<?xml version="1.0" encoding="utf-8"?>
<!-- Generator: Adobe Illustrator 26.0.3, SVG Export Plug-In . SVG Version: 6.00 Build 0)  -->
<svg version="1.1" id="Livello_1" xmlns="http://www.w3.org/2000/svg" xmlns:xlink="http://www.w3.org/1999/xlink" x="0px" y="0px"
	 viewBox="0 0 24 24" style="enable-background:new 0 0 24 24;" xml:space="preserve">
<g>
	<path d="M13.8,5.7L13.8,5.7c0.5-0.3,1-0.7,1.4-1.1c0.4-0.5,0.7-1,0.9-1.6c0.2-0.6,0.3-1.3,0.2-1.9c-0.6,0-1.2,0.2-1.7,0.5
		c-0.6,0.3-1.1,0.7-1.5,1.2c-0.4,0.5-0.7,1-0.9,1.5C12,4.8,11.9,5.4,12,6.1C12.6,6.1,13.2,6,13.8,5.7z"/>
	<path d="M20.2,16.7c-0.6-0.4-1-0.8-1.4-1.4c-0.5-0.8-0.8-1.7-0.8-2.6c0-0.8,0.2-1.6,0.6-2.3c0.3-0.5,0.7-1,1.1-1.4
		c0.2-0.2,0.4-0.4,0.7-0.5c-0.5-0.8-1.3-1.4-2.3-1.8c-0.6-0.2-1.2-0.3-1.8-0.4c-0.4,0-0.7,0-1.1,0c-0.3,0.1-0.6,0.1-1,0.2
		c-0.2,0.1-0.5,0.2-0.9,0.3c-0.4,0.2-0.6,0.2-0.7,0.3c-0.2,0.1-0.4,0.1-0.6,0.1c-0.3,0-0.5-0.1-0.7-0.2c-0.1,0-0.4-0.1-0.9-0.3
		c-0.4-0.1-0.7-0.3-1-0.3c-0.3-0.1-0.7-0.1-1-0.1c-0.9,0-1.8,0.3-2.6,0.8C5.1,7.6,4.4,8.3,4,9.1c-0.6,1.1-0.9,2.4-0.9,3.7
		c0,1.4,0.2,2.7,0.7,4c0.4,1.2,0.9,2.3,1.6,3.3c0.3,0.5,0.6,0.9,1,1.3c0.3,0.4,0.7,0.8,1.1,1.1l0,0C7.9,22.9,8.4,23,8.8,23
		c0.3,0,0.6-0.1,0.9-0.2c0.1,0,0.4-0.2,0.8-0.3c0.3-0.1,0.5-0.2,0.8-0.3c0.3-0.1,0.7-0.1,1.1-0.1c0.4,0,0.7,0,1.1,0.1
		c0.3,0.1,0.6,0.2,0.8,0.3c0.3,0.1,0.5,0.2,0.8,0.3c0.3,0.1,0.6,0.1,0.9,0.1c0.5,0,0.9-0.1,1.3-0.4c0.4-0.3,0.8-0.6,1.1-1
		c0.2-0.3,0.5-0.7,0.9-1.3c0.4-0.7,0.8-1.4,1.1-2.1c0.1-0.3,0.3-0.7,0.4-1C20.6,17,20.4,16.9,20.2,16.7z"/>
</g>
</svg>
