<?xml version="1.0" encoding="utf-8"?>
<!-- Generator: Adobe Illustrator 26.0.3, SVG Export Plug-In . SVG Version: 6.00 Build 0)  -->
<svg version="1.1" id="Livello_1" xmlns="http://www.w3.org/2000/svg" xmlns:xlink="http://www.w3.org/1999/xlink" x="0px" y="0px"
	 viewBox="0 0 24 24" style="enable-background:new 0 0 24 24;" xml:space="preserve">
<path d="M17.9,6.6c-0.1-0.2-0.3-0.4-0.5-0.5C17.3,6,17.1,6,17,6H7C6.4,6,6,6.4,6,7s0.4,1,1,1h7.6l-8.3,8.3c-0.4,0.4-0.4,1,0,1.4
	C6.5,17.9,6.7,18,7,18s0.5-0.1,0.7-0.3L16,9.4V17c0,0.6,0.4,1,1,1s1-0.4,1-1V7C18,6.9,18,6.7,17.9,6.6z"/>
</svg>
