<?xml version="1.0" encoding="utf-8"?>
<!-- Generator: Adobe Illustrator 26.0.3, SVG Export Plug-In . SVG Version: 6.00 Build 0)  -->
<svg version="1.1" id="Livello_1" xmlns="http://www.w3.org/2000/svg" xmlns:xlink="http://www.w3.org/1999/xlink" x="0px" y="0px"
	 viewBox="0 0 24 24" style="enable-background:new 0 0 24 24;" xml:space="preserve">
<path d="M9.4,8H17c0.6,0,1-0.4,1-1s-0.4-1-1-1H7C6.9,6,6.7,6,6.6,6.1C6.4,6.2,6.2,6.4,6.1,6.6C6,6.7,6,6.9,6,7v10c0,0.6,0.4,1,1,1
	s1-0.4,1-1V9.4l8.3,8.3c0.2,0.2,0.5,0.3,0.7,0.3s0.5-0.1,0.7-0.3c0.4-0.4,0.4-1,0-1.4L9.4,8z"/>
</svg>
