<?xml version="1.0" encoding="utf-8"?>
<!-- Generator: Adobe Illustrator 26.0.3, SVG Export Plug-In . SVG Version: 6.00 Build 0)  -->
<svg version="1.1" id="Livello_1" xmlns="http://www.w3.org/2000/svg" xmlns:xlink="http://www.w3.org/1999/xlink" x="0px" y="0px"
	 viewBox="0 0 24 24" style="enable-background:new 0 0 24 24;" xml:space="preserve">
<path d="M18,7c0-0.6-0.4-1-1-1s-1,0.4-1,1v7.6L7.7,6.3c-0.4-0.4-1-0.4-1.4,0s-0.4,1,0,1.4l8.3,8.3H7c-0.6,0-1,0.4-1,1s0.4,1,1,1h10
	c0.1,0,0.3,0,0.4-0.1c0.2-0.1,0.4-0.3,0.5-0.5C18,17.3,18,17.1,18,17V7z"/>
</svg>
