<?xml version="1.0" encoding="utf-8"?>
<!-- Generator: Adobe Illustrator 26.0.3, SVG Export Plug-In . SVG Version: 6.00 Build 0)  -->
<svg version="1.1" id="Livello_1" xmlns="http://www.w3.org/2000/svg" xmlns:xlink="http://www.w3.org/1999/xlink" x="0px" y="0px"
	 viewBox="0 0 24 24" style="enable-background:new 0 0 24 24;" xml:space="preserve">
<g>
	<path d="M18.7,11.3l-5-5c-0.4-0.4-1-0.4-1.4,0s-0.4,1,0,1.4l4.3,4.3l-4.3,4.3c-0.4,0.4-0.4,1,0,1.4c0.2,0.2,0.5,0.3,0.7,0.3
		s0.5-0.1,0.7-0.3l5-5C19.1,12.3,19.1,11.7,18.7,11.3z"/>
	<path d="M11.7,11.3l-5-5c-0.4-0.4-1-0.4-1.4,0s-0.4,1,0,1.4L9.6,12l-4.3,4.3c-0.4,0.4-0.4,1,0,1.4C5.5,17.9,5.7,18,6,18
		s0.5-0.1,0.7-0.3l5-5C12.1,12.3,12.1,11.7,11.7,11.3z"/>
</g>
</svg>
