<?xml version="1.0" encoding="utf-8"?>
<!-- Generator: Adobe Illustrator 26.0.3, SVG Export Plug-In . SVG Version: 6.00 Build 0)  -->
<svg version="1.1" id="Livello_1" xmlns="http://www.w3.org/2000/svg" xmlns:xlink="http://www.w3.org/1999/xlink" x="0px" y="0px"
	 viewBox="0 0 24 24" style="enable-background:new 0 0 24 24;" xml:space="preserve">
<g>
	<path d="M20,8h-9c-1.7,0-3,1.3-3,3v9c0,1.7,1.3,3,3,3h9c1.7,0,3-1.3,3-3v-9C23,9.3,21.7,8,20,8z M21,20c0,0.6-0.4,1-1,1h-9
		c-0.6,0-1-0.4-1-1v-9c0-0.6,0.4-1,1-1h9c0.6,0,1,0.4,1,1V20z"/>
	<path d="M5,14H4c-0.6,0-1-0.4-1-1V4c0-0.6,0.4-1,1-1h9c0.6,0,1,0.4,1,1v1c0,0.6,0.4,1,1,1s1-0.4,1-1V4c0-1.7-1.3-3-3-3H4
		C2.3,1,1,2.3,1,4v9c0,1.7,1.3,3,3,3h1c0.6,0,1-0.4,1-1S5.6,14,5,14z"/>
</g>
</svg>
