<?xml version="1.0" encoding="utf-8"?>
<!-- Generator: Adobe Illustrator 26.0.3, SVG Export Plug-In . SVG Version: 6.00 Build 0)  -->
<svg version="1.1" id="Livello_1" xmlns="http://www.w3.org/2000/svg" xmlns:xlink="http://www.w3.org/1999/xlink" x="0px" y="0px"
	 viewBox="0 0 24 24" style="enable-background:new 0 0 24 24;" xml:space="preserve">
<path d="M20,19h-7c-1.7,0-3-1.3-3-3V6.4l3.3,3.3C13.5,9.9,13.7,10,14,10s0.5-0.1,0.7-0.3c0.4-0.4,0.4-1,0-1.4l-5-5
	C9.6,3.2,9.5,3.1,9.4,3.1C9.1,3,8.9,3,8.6,3.1C8.5,3.1,8.4,3.2,8.3,3.3l-5,5c-0.4,0.4-0.4,1,0,1.4s1,0.4,1.4,0L8,6.4V16
	c0,2.8,2.2,5,5,5h7c0.6,0,1-0.4,1-1S20.6,19,20,19z"/>
</svg>
