<?xml version="1.0" encoding="utf-8"?>
<!-- Generator: Adobe Illustrator 26.0.3, SVG Export Plug-In . SVG Version: 6.00 Build 0)  -->
<svg version="1.1" id="Livello_1" xmlns="http://www.w3.org/2000/svg" xmlns:xlink="http://www.w3.org/1999/xlink" x="0px" y="0px"
	 viewBox="0 0 24 24" style="enable-background:new 0 0 24 24;" xml:space="preserve">
<path d="M20.9,15.4c0.1-0.2,0.1-0.5,0-0.8c-0.1-0.1-0.1-0.2-0.2-0.3l-5-5c-0.4-0.4-1-0.4-1.4,0s-0.4,1,0,1.4l3.3,3.3H8
	c-1.7,0-3-1.3-3-3V4c0-0.6-0.4-1-1-1S3,3.4,3,4v7c0,2.8,2.2,5,5,5h9.6l-3.3,3.3c-0.4,0.4-0.4,1,0,1.4c0.2,0.2,0.5,0.3,0.7,0.3
	s0.5-0.1,0.7-0.3l5-5C20.8,15.6,20.9,15.5,20.9,15.4z"/>
</svg>
