<?xml version="1.0" encoding="utf-8"?>
<!-- Generator: Adobe Illustrator 26.0.3, SVG Export Plug-In . SVG Version: 6.00 Build 0)  -->
<svg version="1.1" id="Livello_1" xmlns="http://www.w3.org/2000/svg" xmlns:xlink="http://www.w3.org/1999/xlink" x="0px" y="0px"
	 viewBox="0 0 24 24" style="enable-background:new 0 0 24 24;" xml:space="preserve">
<path d="M16,8H6.4l3.3-3.3c0.4-0.4,0.4-1,0-1.4s-1-0.4-1.4,0l-5,5C3.2,8.4,3.1,8.5,3.1,8.6C3,8.9,3,9.1,3.1,9.4
	c0.1,0.1,0.1,0.2,0.2,0.3l5,5C8.5,14.9,8.7,15,9,15s0.5-0.1,0.7-0.3c0.4-0.4,0.4-1,0-1.4L6.4,10H16c1.7,0,3,1.3,3,3v7
	c0,0.6,0.4,1,1,1s1-0.4,1-1v-7C21,10.2,18.8,8,16,8z"/>
</svg>
