<?xml version="1.0" encoding="utf-8"?>
<!-- Generator: Adobe Illustrator 26.0.3, SVG Export Plug-In . SVG Version: 6.00 Build 0)  -->
<svg version="1.1" id="Livello_1" xmlns="http://www.w3.org/2000/svg" xmlns:xlink="http://www.w3.org/1999/xlink" x="0px" y="0px"
	 viewBox="0 0 24 24" style="enable-background:new 0 0 24 24;" xml:space="preserve">
<g>
	<path d="M15.3,16.3L13,18.6V12c0-0.6-0.4-1-1-1s-1,0.4-1,1v6.6l-2.3-2.3c-0.4-0.4-1-0.4-1.4,0s-0.4,1,0,1.4l4,4
		c0.1,0.1,0.2,0.2,0.3,0.2C11.7,22,11.9,22,12,22s0.3,0,0.4-0.1c0.1-0.1,0.2-0.1,0.3-0.2l4-4c0.4-0.4,0.4-1,0-1.4
		S15.7,15.9,15.3,16.3z"/>
	<path d="M22.9,10.5C21.8,9,20,8,18,8c0,0,0,0,0,0h-0.5C16,3.6,11.3,1.1,6.8,2.3C4.4,2.9,2.5,4.3,1.2,6.4c-1.2,2.1-1.6,4.5-1,6.8
		c0.4,1.4,1,2.7,2,3.7c0.4,0.4,1,0.5,1.4,0.1c0.4-0.4,0.5-1,0.1-1.4c-0.7-0.8-1.3-1.8-1.5-2.9C1.7,10.9,2,9,3,7.4
		c1-1.6,2.5-2.8,4.3-3.2c3.7-1,7.6,1.3,8.5,5c0.1,0.4,0.5,0.8,1,0.8H18c0,0,0,0,0,0c1.3,0,2.5,0.6,3.3,1.7c0.6,0.9,0.9,1.9,0.7,3
		s-0.8,2-1.6,2.6c-0.5,0.3-0.6,0.9-0.2,1.4c0.2,0.3,0.5,0.4,0.8,0.4c0.2,0,0.4-0.1,0.6-0.2c1.3-0.9,2.2-2.3,2.5-3.9
		S23.8,11.9,22.9,10.5z"/>
</g>
</svg>
