<?xml version="1.0" encoding="utf-8"?>
<!-- Generator: Adobe Illustrator 26.0.3, SVG Export Plug-In . SVG Version: 6.00 Build 0)  -->
<svg version="1.1" id="Livello_1" xmlns="http://www.w3.org/2000/svg" xmlns:xlink="http://www.w3.org/1999/xlink" x="0px" y="0px"
	 viewBox="0 0 24 24" style="enable-background:new 0 0 24 24;" xml:space="preserve">
<path d="M12,2C6.5,2,2,6.5,2,12s4.5,10,10,10c5.5,0,10-4.5,10-10C22,6.5,17.5,2,12,2z M18.6,6.6c1.2,1.5,1.9,3.4,1.9,5.3
	c-2-0.4-4-0.5-6-0.3c-0.1-0.1-0.1-0.3-0.2-0.4c-0.2-0.4-0.4-0.8-0.6-1.2C15.7,9.3,17.3,8.1,18.6,6.6L18.6,6.6z M10,3.7
	c2.7-0.7,5.6,0.1,7.7,1.9c-1.2,1.4-2.7,2.5-4.5,3.1C12.2,7,11.2,5.3,10,3.7L10,3.7z M3.6,10.3c0.6-2.6,2.3-4.8,4.7-6
	c1.1,1.6,2.2,3.2,3.2,4.9C9,9.9,6.3,10.2,3.6,10.3L3.6,10.3z M3.5,12v-0.3c3,0,5.9-0.4,8.8-1.2c0.2,0.5,0.5,1,0.7,1.4
	c-0.1,0-0.2,0.1-0.3,0.1c-2.9,1-5.3,3-6.9,5.6C4.2,16.2,3.5,14.1,3.5,12z M15.3,19.9c-2.9,1.2-6.1,0.8-8.6-1.1
	c1.5-2.6,3.9-4.5,6.7-5.3l0.1,0C14.3,15.5,14.9,17.7,15.3,19.9L15.3,19.9z M16.8,19.1C16.4,17,15.8,15,15.1,13
	c1.8-0.3,3.6-0.1,5.3,0.4l0,0C20.1,15.7,18.7,17.8,16.8,19.1z"/>
</svg>
