<?xml version="1.0" encoding="utf-8"?>
<!-- Generator: Adobe Illustrator 26.0.3, SVG Export Plug-In . SVG Version: 6.00 Build 0)  -->
<svg version="1.1" id="Livello_1" xmlns="http://www.w3.org/2000/svg" xmlns:xlink="http://www.w3.org/1999/xlink" x="0px" y="0px"
	 viewBox="0 0 24 24" style="enable-background:new 0 0 24 24;" xml:space="preserve">
<g>
	<path d="M20,12c-0.6,0-1,0.4-1,1v7c0,0.6-0.4,1-1,1H4c-0.6,0-1-0.4-1-1V6c0-0.6,0.4-1,1-1h7c0.6,0,1-0.4,1-1s-0.4-1-1-1H4
		C2.3,3,1,4.3,1,6v14c0,1.7,1.3,3,3,3h14c1.7,0,3-1.3,3-3v-7C21,12.4,20.6,12,20,12z"/>
	<path d="M22.2,1.8c-1.2-1.2-3.2-1.2-4.4,0l-9.5,9.5c-0.1,0.1-0.2,0.3-0.3,0.5l-1,4c-0.1,0.3,0,0.7,0.3,0.9C7.5,16.9,7.7,17,8,17
		c0.1,0,0.2,0,0.2,0l4-1c0.2,0,0.3-0.1,0.5-0.3l9.5-9.5C23.4,5,23.4,3,22.2,1.8z M20.8,4.8l-9.3,9.3l-2.1,0.5l0.5-2.1l9.3-9.3
		c0.4-0.4,1.2-0.4,1.6,0C21.2,3.6,21.2,4.4,20.8,4.8z"/>
</g>
</svg>
