<?xml version="1.0" encoding="utf-8"?>
<!-- Generator: Adobe Illustrator 26.0.3, SVG Export Plug-In . SVG Version: 6.00 Build 0)  -->
<svg version="1.1" id="Livello_1" xmlns="http://www.w3.org/2000/svg" xmlns:xlink="http://www.w3.org/1999/xlink" x="0px" y="0px"
	 viewBox="0 0 24 24" style="enable-background:new 0 0 24 24;" xml:space="preserve">
<path d="M21.5,3.9L21.5,3.9C20.3,2.7,18.7,2,17,2h0c-1.7,0-3.4,0.7-4.6,1.9c0,0,0,0,0,0L12,4.3l-0.4-0.4C10.4,2.7,8.8,2,7,2
	C5.3,2,3.7,2.7,2.5,3.9S0.5,6.8,0.5,8.5s0.7,3.4,1.9,4.6l8.8,8.8c0.2,0.2,0.4,0.3,0.7,0.3s0.5-0.1,0.7-0.3l8.8-8.8
	C24.1,10.6,24.1,6.4,21.5,3.9z M20.1,11.7L12,19.8l-8.1-8.1c-1.8-1.8-1.8-4.6,0-6.4C4.7,4.4,5.9,4,7,4c1.2,0,2.3,0.4,3.2,1.3
	l1.1,1.1c0.4,0.4,1,0.4,1.4,0l1-1.1c0,0,0,0,0,0C14.6,4.5,15.7,4,17,4c0,0,0,0,0,0c1.2,0,2.3,0.5,3.2,1.3l0,0c0.8,0.9,1.3,2,1.3,3.2
	C21.5,9.7,21,10.8,20.1,11.7z"/>
</svg>
