<?xml version="1.0" encoding="utf-8"?>
<!-- Generator: Adobe Illustrator 26.0.3, SVG Export Plug-In . SVG Version: 6.00 Build 0)  -->
<svg version="1.1" id="Livello_1" xmlns="http://www.w3.org/2000/svg" xmlns:xlink="http://www.w3.org/1999/xlink" x="0px" y="0px"
	 viewBox="0 0 24 24" style="enable-background:new 0 0 24 24;" xml:space="preserve">
<g>
	<path d="M21.9,7.9c0-0.8-0.2-1.7-0.5-2.4c-0.3-0.7-0.6-1.3-1.2-1.8c-0.5-0.5-1.1-0.9-1.8-1.2c-0.8-0.3-1.6-0.4-2.4-0.5
		C15.1,2,14.7,2,12,2S8.9,2,7.9,2.1c-0.8,0-1.7,0.2-2.4,0.5C4.8,2.8,4.2,3.2,3.7,3.7C3.2,4.2,2.8,4.8,2.5,5.5C2.2,6.2,2.1,7,2.1,7.9
		C2,8.9,2,9.3,2,12s0,3.1,0.1,4.1c0,0.8,0.2,1.7,0.5,2.4c0.2,0.7,0.6,1.3,1.1,1.8c0.5,0.5,1.1,0.9,1.8,1.2c0.8,0.3,1.6,0.4,2.4,0.5
		C8.9,22,9.3,22,12,22s3.1,0,4.1-0.1c0.8,0,1.7-0.2,2.4-0.5c1.3-0.5,2.4-1.6,2.9-2.9c0.3-0.8,0.4-1.6,0.5-2.4c0-1.1,0.1-1.4,0.1-4.1
		S22,8.9,21.9,7.9z M20.1,16c0,0.6-0.1,1.3-0.3,1.9c-0.3,0.9-1,1.6-1.9,1.9c-0.6,0.2-1.2,0.3-1.9,0.3c-1,0.1-1.4,0.1-4,0.1
		s-3,0-4-0.1c-0.7,0-1.3-0.1-1.9-0.3c-0.9-0.3-1.6-1-1.9-1.9C4,17.3,3.9,16.6,3.9,16c0-1-0.1-1.4-0.1-4s0-3,0.1-4
		c0-0.6,0.1-1.3,0.3-1.9c0.3-0.9,1-1.6,1.9-1.9C6.7,4,7.4,3.9,8,3.9c1,0,1.4-0.1,4-0.1s3,0,4,0.1c0.6,0,1.3,0.1,1.9,0.3
		c0.9,0.3,1.6,1,1.9,1.9C20,6.7,20.1,7.3,20.1,8c0,1,0.1,1.4,0.1,4S20.2,15,20.1,16z"/>
	<path d="M12,6.9c-2.8,0-5.1,2.3-5.1,5.1s2.3,5.1,5.1,5.1s5.1-2.3,5.1-5.1S14.8,6.9,12,6.9z M12,15.3c-1.8,0-3.3-1.5-3.3-3.3
		s1.5-3.3,3.3-3.3s3.3,1.5,3.3,3.3S13.8,15.3,12,15.3z"/>
	<path d="M17.3,5.5c-0.7,0-1.2,0.5-1.2,1.2c0,0.7,0.5,1.2,1.2,1.2c0.7,0,1.2-0.5,1.2-1.2C18.5,6,18,5.5,17.3,5.5z"/>
</g>
</svg>
