<?xml version="1.0" encoding="utf-8"?>
<!-- Generator: Adobe Illustrator 26.0.3, SVG Export Plug-In . SVG Version: 6.00 Build 0)  -->
<svg version="1.1" id="Livello_1" xmlns="http://www.w3.org/2000/svg" xmlns:xlink="http://www.w3.org/1999/xlink" x="0px" y="0px"
	 viewBox="0 0 24 24" style="enable-background:new 0 0 24 24;" xml:space="preserve">
<g>
	<path d="M21.1,2.8c-2.3-2.3-6-2.3-8.3,0L11,4.5c-0.4,0.4-0.4,1,0,1.4c0.4,0.4,1,0.4,1.4,0l1.7-1.7c1.6-1.5,4-1.5,5.6,0
		c1.6,1.5,1.6,4.1,0.1,5.6l-3,3c-0.1,0.1-0.3,0.3-0.4,0.4c-1.8,1.3-4.3,1-5.6-0.8c-0.3-0.4-1-0.5-1.4-0.2c-0.4,0.3-0.5,1-0.2,1.4
		c1.2,1.6,3,2.4,4.8,2.4c1.2,0,2.5-0.4,3.6-1.2c0.2-0.2,0.4-0.4,0.7-0.6l3-3C23.6,8.9,23.5,5,21.1,2.8z"/>
	<path d="M11.5,18.1l-1.7,1.7c-1.6,1.5-4,1.5-5.6,0c-1.6-1.5-1.6-4.1-0.1-5.6l3-3c0.1-0.1,0.3-0.3,0.4-0.4c0.9-0.6,1.9-0.9,3-0.8
		c1.1,0.2,2,0.7,2.6,1.6c0.3,0.4,1,0.5,1.4,0.2c0.4-0.3,0.5-1,0.2-1.4c-1-1.3-2.4-2.1-3.9-2.3C9.3,7.8,7.7,8.2,6.4,9.2
		C6.2,9.4,6,9.6,5.8,9.8l-3,3c-2.3,2.4-2.2,6.2,0.1,8.5c1.2,1.1,2.7,1.7,4.2,1.7c1.5,0,3-0.6,4.2-1.7l1.7-1.7c0.4-0.4,0.4-1,0-1.4
		S11.9,17.7,11.5,18.1z"/>
</g>
</svg>
