<?xml version="1.0" encoding="utf-8"?>
<!-- Generator: Adobe Illustrator 26.0.3, SVG Export Plug-In . SVG Version: 6.00 Build 0)  -->
<svg version="1.1" id="Livello_1" xmlns="http://www.w3.org/2000/svg" xmlns:xlink="http://www.w3.org/1999/xlink" x="0px" y="0px"
	 viewBox="0 0 24 24" style="enable-background:new 0 0 24 24;" xml:space="preserve">
<g>
	<rect x="3.2" y="8.9" width="3.7" height="12"/>
	<path d="M5,2.9c-1.2,0-2.2,1-2.2,2.2c0,1.2,1,2.2,2.2,2.2c0,0,0,0,0,0c1.2,0,2.2-1,2.2-2.2c0,0,0,0,0,0C7.2,3.9,6.2,2.9,5,2.9z"/>
	<path d="M16.4,8.6c-1.4-0.1-2.8,0.7-3.5,1.9h0V8.9H9.2v12H13v-6c0-1.6,0.3-3.1,2.2-3.1c1.9,0,1.9,1.8,1.9,3.2v5.8h3.7v-6.6
		C20.9,11.1,20.2,8.6,16.4,8.6z"/>
</g>
</svg>
