<?xml version="1.0" encoding="utf-8"?>
<!-- Generator: Adobe Illustrator 26.0.3, SVG Export Plug-In . SVG Version: 6.00 Build 0)  -->
<svg version="1.1" id="Livello_1" xmlns="http://www.w3.org/2000/svg" xmlns:xlink="http://www.w3.org/1999/xlink" x="0px" y="0px"
	 viewBox="0 0 24 24" style="enable-background:new 0 0 24 24;" xml:space="preserve">
<g>
	<path d="M12,1c-0.6,0-1,0.4-1,1v4c0,0.6,0.4,1,1,1s1-0.4,1-1V2C13,1.4,12.6,1,12,1z"/>
	<path d="M12,17c-0.6,0-1,0.4-1,1v4c0,0.6,0.4,1,1,1s1-0.4,1-1v-4C13,17.4,12.6,17,12,17z"/>
	<path d="M5.6,4.2c-0.4-0.4-1-0.4-1.4,0s-0.4,1,0,1.4l2.8,2.8c0.2,0.2,0.5,0.3,0.7,0.3s0.5-0.1,0.7-0.3c0.4-0.4,0.4-1,0-1.4L5.6,4.2
		z"/>
	<path d="M16.9,15.5c-0.4-0.4-1-0.4-1.4,0s-0.4,1,0,1.4l2.8,2.8c0.2,0.2,0.5,0.3,0.7,0.3s0.5-0.1,0.7-0.3c0.4-0.4,0.4-1,0-1.4
		L16.9,15.5z"/>
	<path d="M7,12c0-0.6-0.4-1-1-1H2c-0.6,0-1,0.4-1,1s0.4,1,1,1h4C6.6,13,7,12.6,7,12z"/>
	<path d="M22,11h-4c-0.6,0-1,0.4-1,1s0.4,1,1,1h4c0.6,0,1-0.4,1-1S22.6,11,22,11z"/>
	<path d="M7.1,15.5l-2.8,2.8c-0.4,0.4-0.4,1,0,1.4c0.2,0.2,0.5,0.3,0.7,0.3s0.5-0.1,0.7-0.3l2.8-2.8c0.4-0.4,0.4-1,0-1.4
		S7.4,15.1,7.1,15.5z"/>
	<path d="M16.2,8.8c0.3,0,0.5-0.1,0.7-0.3l2.8-2.8c0.4-0.4,0.4-1,0-1.4s-1-0.4-1.4,0l-2.8,2.8c-0.4,0.4-0.4,1,0,1.4
		C15.7,8.7,16,8.8,16.2,8.8z"/>
</g>
</svg>
