<?xml version="1.0" encoding="utf-8"?>
<!-- Generator: Adobe Illustrator 26.0.3, SVG Export Plug-In . SVG Version: 6.00 Build 0)  -->
<svg version="1.1" id="Livello_1" xmlns="http://www.w3.org/2000/svg" xmlns:xlink="http://www.w3.org/1999/xlink" x="0px" y="0px"
	 viewBox="0 0 24 24" style="enable-background:new 0 0 24 24;" xml:space="preserve">
<g>
	<path d="M9,20H5c-0.6,0-1-0.4-1-1V5c0-0.6,0.4-1,1-1h4c0.6,0,1-0.4,1-1S9.6,2,9,2H5C3.3,2,2,3.3,2,5v14c0,1.7,1.3,3,3,3h4
		c0.6,0,1-0.4,1-1S9.6,20,9,20z"/>
	<path d="M21.9,12.4c0.1-0.2,0.1-0.5,0-0.8c-0.1-0.1-0.1-0.2-0.2-0.3l-5-5c-0.4-0.4-1-0.4-1.4,0s-0.4,1,0,1.4l3.3,3.3H9
		c-0.6,0-1,0.4-1,1s0.4,1,1,1h9.6l-3.3,3.3c-0.4,0.4-0.4,1,0,1.4c0.2,0.2,0.5,0.3,0.7,0.3s0.5-0.1,0.7-0.3l5-5
		C21.8,12.6,21.9,12.5,21.9,12.4z"/>
</g>
</svg>
