<?xml version="1.0" encoding="utf-8"?>
<!-- Generator: Adobe Illustrator 26.0.3, SVG Export Plug-In . SVG Version: 6.00 Build 0)  -->
<svg version="1.1" id="Livello_1" xmlns="http://www.w3.org/2000/svg" xmlns:xlink="http://www.w3.org/1999/xlink" x="0px" y="0px"
	 viewBox="0 0 24 24" style="enable-background:new 0 0 24 24;" xml:space="preserve">
<g>
	<path d="M12,0C6.5,0,2,4.5,2,10c0,7.4,9.1,13.6,9.4,13.8c0.2,0.1,0.4,0.2,0.6,0.2s0.4-0.1,0.6-0.2C12.9,23.6,22,17.4,22,10
		C22,4.5,17.5,0,12,0z M12,21.8c-1.9-1.4-8-6.4-8-11.8c0-4.4,3.6-8,8-8s8,3.6,8,8C20,15.4,13.9,20.4,12,21.8z"/>
	<path d="M12,6c-2.2,0-4,1.8-4,4s1.8,4,4,4c2.2,0,4-1.8,4-4S14.2,6,12,6z M12,12c-1.1,0-2-0.9-2-2s0.9-2,2-2c1.1,0,2,0.9,2,2
		S13.1,12,12,12z"/>
</g>
</svg>
