<?xml version="1.0" encoding="utf-8"?>
<!-- Generator: Adobe Illustrator 26.0.3, SVG Export Plug-In . SVG Version: 6.00 Build 0)  -->
<svg version="1.1" id="Livello_1" xmlns="http://www.w3.org/2000/svg" xmlns:xlink="http://www.w3.org/1999/xlink" x="0px" y="0px"
	 viewBox="0 0 24 24" style="enable-background:new 0 0 24 24;" xml:space="preserve">
<path d="M21.5,11.9c-0.3-0.2-0.8-0.2-1.1,0.1c-2.1,1.6-5,1.6-7.1,0C10.6,10,10,6.3,12,3.6c0.2-0.3,0.3-0.7,0.1-1.1
	c-0.2-0.3-0.6-0.5-1-0.5c-4.8,0.4-8.6,4.2-9,9c-0.5,5.5,3.5,10.4,9,10.9c0.3,0,0.6,0,0.9,0c2.3,0,4.6-0.8,6.4-2.3
	c2.1-1.7,3.3-4.1,3.6-6.8C22,12.5,21.8,12.1,21.5,11.9z M17.2,18.1c-1.6,1.4-3.7,2-5.8,1.8c-4.4-0.4-7.6-4.3-7.2-8.7
	c0.3-3.1,2.4-5.8,5.2-6.8c-1.2,3.2-0.1,7,2.8,9.2c2.2,1.6,5,2,7.5,1.1C19.1,16,18.3,17.2,17.2,18.1z"/>
</svg>
