<?xml version="1.0" encoding="utf-8"?>
<!-- Generator: Adobe Illustrator 26.0.3, SVG Export Plug-In . SVG Version: 6.00 Build 0)  -->
<svg version="1.1" id="Livello_1" xmlns="http://www.w3.org/2000/svg" xmlns:xlink="http://www.w3.org/1999/xlink" x="0px" y="0px"
	 viewBox="0 0 24 24" style="enable-background:new 0 0 24 24;" xml:space="preserve">
<path d="M20.4,13.9c-0.9-0.1-1.8-0.3-2.6-0.6c-1.1-0.4-2.3-0.1-3.2,0.7l-0.7,0.7c-1.8-1.2-3.4-2.7-4.6-4.6l0.7-0.7
	c0.8-0.8,1.1-2.1,0.7-3.2c-0.3-0.8-0.5-1.7-0.6-2.6C9.9,2.1,8.6,1,7.1,1c0,0,0,0,0,0h-3C4,1,3.9,1,3.8,1C3,1.1,2.3,1.5,1.8,2.1
	C1.3,2.7,1.1,3.5,1.1,4.3c0.3,3.2,1.5,6.4,3.2,9.1c1.6,2.5,3.8,4.7,6.3,6.3c2.7,1.8,5.9,2.9,9.1,3.2c0.1,0,0.2,0,0.3,0c0,0,0,0,0,0
	c0.8,0,1.6-0.3,2.1-0.9s0.9-1.3,0.9-2.1v-3C23,15.4,21.9,14.1,20.4,13.9z M21,16.9v3c0,0.3-0.1,0.5-0.3,0.7
	c-0.2,0.2-0.4,0.3-0.8,0.3c-2.9-0.3-5.7-1.3-8.2-2.9c-2.3-1.4-4.2-3.4-5.7-5.7C4.4,9.8,3.4,7,3.1,4.1c0-0.3,0.1-0.5,0.2-0.7
	C3.5,3.2,3.8,3,4.1,3h3c0,0,0,0,0,0c0.5,0,0.9,0.4,1,0.9c0.1,1,0.4,2.1,0.8,3c0.1,0.4,0,0.8-0.2,1.1L7.4,9.2C7.1,9.5,7,10,7.2,10.4
	c1.5,2.7,3.7,4.9,6.4,6.4c0.4,0.2,0.9,0.2,1.2-0.2l1.3-1.3c0.3-0.3,0.7-0.4,1.1-0.2c1,0.4,2,0.6,3,0.8C20.6,16,21,16.4,21,16.9
	C21,16.9,21,16.9,21,16.9z"/>
</svg>
