<?xml version="1.0" encoding="utf-8"?>
<!-- Generator: Adobe Illustrator 26.0.3, SVG Export Plug-In . SVG Version: 6.00 Build 0)  -->
<svg version="1.1" id="Livello_1" xmlns="http://www.w3.org/2000/svg" xmlns:xlink="http://www.w3.org/1999/xlink" x="0px" y="0px"
	 viewBox="0 0 24 24" style="enable-background:new 0 0 24 24;" xml:space="preserve">
<path d="M14.9,2.5C14,2.2,13,2,12,2l0,0C6.5,2,2,6.5,2,12c0,4.1,2.5,7.8,6.3,9.3c-0.1-1-0.1-1.9,0-2.9c0.2-0.8,1.2-5,1.2-5
	c-0.2-0.5-0.3-1-0.3-1.5c0-1.4,0.8-2.4,1.8-2.4c0.7,0,1.3,0.5,1.3,1.2c0,0.1,0,0.1,0,0.2c-0.2,1.1-0.5,2.2-0.8,3.3
	c-0.2,0.8,0.3,1.6,1,1.8c0.1,0,0.3,0.1,0.4,0c1.8,0,3.1-1.9,3.1-4.6c0.1-2.2-1.6-4-3.8-4.1c-0.1,0-0.2,0-0.4,0
	c-2.4-0.1-4.4,1.7-4.5,4.1c0,0.1,0,0.1,0,0.2c0,0.8,0.3,1.6,0.7,2.3c0.1,0.1,0.1,0.2,0.1,0.3c-0.1,0.3-0.2,1-0.3,1.1
	c0,0.2-0.1,0.2-0.3,0.1c-1.2-0.6-2-2.4-2-3.9c0-3.1,2.3-6,6.6-6c3.2-0.2,6,2.3,6.2,5.6c0,0.1,0,0.1,0,0.2c0,3.4-2.2,6.2-5.2,6.2
	c-0.9,0-1.8-0.4-2.3-1.1l-0.6,2.4C10,19.9,9.6,20.7,9,21.6c5.3,1.6,10.9-1.3,12.5-6.6C23.2,9.7,20.2,4.1,14.9,2.5z"/>
</svg>
