<?xml version="1.0" encoding="utf-8"?>
<!-- Generator: Adobe Illustrator 26.0.3, SVG Export Plug-In . SVG Version: 6.00 Build 0)  -->
<svg version="1.1" id="Livello_1" xmlns="http://www.w3.org/2000/svg" xmlns:xlink="http://www.w3.org/1999/xlink" x="0px" y="0px"
	 viewBox="0 0 24 24" style="enable-background:new 0 0 24 24;" xml:space="preserve">
<g>
	<path d="M12,8c-2.2,0-4,1.8-4,4c0,2.2,1.8,4,4,4c2.2,0,4-1.8,4-4C16,9.8,14.2,8,12,8z M12,14c-1.1,0-2-0.9-2-2c0-1.1,0.9-2,2-2
		c1.1,0,2,0.9,2,2C14,13.1,13.1,14,12,14z"/>
	<path d="M20.3,15.4c0.1-0.2,0.3-0.4,0.7-0.4c1.7,0,3-1.3,3-3s-1.3-3-3-3h-0.2c-0.2,0-0.4-0.1-0.5-0.3c0-0.1,0-0.1-0.1-0.2
		c-0.1-0.2-0.1-0.5,0.2-0.8c1.2-1.2,1.2-3.1,0-4.2v0c0,0,0,0,0,0c-0.6-0.6-1.3-0.9-2.1-0.9c0,0,0,0,0,0c-0.8,0-1.6,0.3-2.2,0.9
		c-0.2,0.2-0.5,0.2-0.7,0.1C15.2,3.6,15,3.3,15,3c0-1.7-1.3-3-3-3S9,1.3,9,3v0.2c0,0.2-0.1,0.4-0.3,0.5c-0.1,0-0.1,0-0.2,0.1
		C8.3,3.9,8,3.8,7.7,3.6c-1.2-1.2-3.1-1.2-4.2,0C2.3,4.8,2.3,6.7,3.6,7.9c0.2,0.2,0.2,0.5,0.1,0.8C3.6,8.9,3.3,9.1,3,9.1
		c-1.7,0-3,1.3-3,3s1.3,3,3,3h0.2c0.3,0,0.5,0.2,0.6,0.4c0.1,0.2,0.1,0.5-0.2,0.8c-0.6,0.6-0.9,1.3-0.9,2.1c0,0.8,0.3,1.5,0.9,2.1
		c0,0,0,0,0,0c1.2,1.2,3.1,1.2,4.3-0.1c0.2-0.2,0.5-0.2,0.8-0.1c0.3,0.1,0.4,0.3,0.4,0.7c0,1.7,1.3,3,3,3s3-1.3,3-3v-0.2
		c0-0.3,0.2-0.5,0.4-0.6c0.2-0.1,0.5-0.1,0.8,0.2c1.2,1.2,3.1,1.2,4.2,0c1.2-1.2,1.2-3.1-0.1-4.3C20.3,15.9,20.2,15.6,20.3,15.4
		C20.3,15.4,20.3,15.4,20.3,15.4z M18.5,14.6c-0.4,1-0.2,2.1,0.6,3c0.2,0.2,0.3,0.4,0.3,0.7c0,0.3-0.1,0.5-0.3,0.7
		c-0.2,0.2-0.4,0.3-0.7,0.3c0,0,0,0,0,0c-0.3,0-0.5-0.1-0.8-0.4c-0.8-0.8-1.9-1-2.9-0.5c-1,0.4-1.6,1.4-1.6,2.4V21c0,0.6-0.4,1-1,1
		s-1-0.4-1-1c0,0,0-0.1,0-0.1c0-1.1-0.7-2-1.7-2.4c-0.3-0.2-0.7-0.2-1.1-0.2c-0.7,0-1.4,0.3-1.9,0.8c-0.4,0.4-1,0.4-1.4,0
		c0,0,0,0,0,0h0c-0.2-0.2-0.3-0.4-0.3-0.7c0-0.3,0.1-0.5,0.4-0.8c0.8-0.8,1-1.9,0.5-2.9c-0.4-1-1.4-1.6-2.4-1.6H3c-0.6,0-1-0.4-1-1
		s0.4-1,1-1c0,0,0.1,0,0.1,0c1.1,0,2-0.7,2.4-1.7c0.4-1,0.2-2.1-0.6-3C4.5,6,4.5,5.4,4.9,5c0.4-0.4,1-0.4,1.5,0.1
		C7.1,5.8,8.2,6,9.1,5.7c0.1,0,0.2,0,0.3-0.1c1-0.4,1.6-1.4,1.6-2.4V3c0-0.6,0.4-1,1-1s1,0.4,1,1.1c0,1.1,0.6,2,1.6,2.4
		c1,0.4,2.1,0.2,3-0.6c0.2-0.2,0.4-0.3,0.7-0.3h0c0.3,0,0.5,0.1,0.7,0.3c0,0,0,0,0,0c0.4,0.4,0.4,1-0.1,1.5
		c-0.7,0.7-0.9,1.8-0.6,2.7c0,0.1,0,0.2,0.1,0.3c0.4,1,1.4,1.6,2.4,1.6H21c0.6,0,1,0.4,1,1s-0.4,1-1.1,1
		C19.9,13,18.9,13.6,18.5,14.6z"/>
</g>
</svg>
