<?xml version="1.0" encoding="utf-8"?>
<!-- Generator: Adobe Illustrator 26.0.3, SVG Export Plug-In . SVG Version: 6.00 Build 0)  -->
<svg version="1.1" id="Livello_1" xmlns="http://www.w3.org/2000/svg" xmlns:xlink="http://www.w3.org/1999/xlink" x="0px" y="0px"
	 viewBox="0 0 24 24" style="enable-background:new 0 0 24 24;" xml:space="preserve">
<g>
	<circle cx="9" cy="21" r="2"/>
	<circle cx="20" cy="21" r="2"/>
	<path d="M23.8,5.4C23.6,5.1,23.3,5,23,5H6.8L6,0.8C5.9,0.3,5.5,0,5,0H1C0.4,0,0,0.4,0,1s0.4,1,1,1h3.2L5,6.2c0,0,0,0.1,0,0.1
		l1.7,8.3C7,16,8.2,17,9.6,17c0,0,0,0,0.1,0h9.7c1.5,0,2.7-1,3-2.4L24,6.2C24,5.9,24,5.6,23.8,5.4z M20.4,14.2
		c-0.1,0.5-0.5,0.8-1,0.8H9.7c-0.5,0-0.9-0.3-1-0.8L7.2,7h14.6L20.4,14.2z"/>
</g>
</svg>
