<?xml version="1.0" encoding="utf-8"?>
<!-- Generator: Adobe Illustrator 26.0.3, SVG Export Plug-In . SVG Version: 6.00 Build 0)  -->
<svg version="1.1" id="Livello_1" xmlns="http://www.w3.org/2000/svg" xmlns:xlink="http://www.w3.org/1999/xlink" x="0px" y="0px"
	 viewBox="0 0 24 24" style="enable-background:new 0 0 24 24;" xml:space="preserve">
<path d="M20.8,13.6L20.8,13.6L20.8,13.6l-0.1-0.1C20.7,13.5,20.8,13.6,20.8,13.6c0.1-0.5,0.1-1.1,0.1-1.6c0-2.4-0.9-4.7-2.6-6.3
	c-0.8-0.8-1.8-1.5-2.8-1.9C14.4,3.2,13.2,2.9,12,3c-0.6,0-1.1,0.1-1.7,0.2l0.1,0l-0.2,0l0.1,0C7.7,1.8,4.5,2.7,3.1,5.3
	c-0.8,1.6-0.8,3.5,0.1,5.1l0-0.1l0,0.2l0-0.1c-0.1,0.5-0.1,1-0.1,1.5c0,1.2,0.2,2.4,0.7,3.5c0.4,1.1,1.1,2,1.9,2.9
	c0.8,0.8,1.8,1.5,2.8,1.9c1.1,0.5,2.3,0.7,3.5,0.7c0.5,0,1,0,1.6-0.1l-0.1,0l0.2,0l-0.1,0c2.5,1.4,5.8,0.5,7.2-2
	c0.5-0.8,0.7-1.7,0.7-2.6C21.5,15.3,21.2,14.4,20.8,13.6z M12,17.4c-3.2,0-4.6-1.6-4.6-2.7c0-0.6,0.4-1,1-1c0,0,0.1,0,0.1,0
	c1.4,0,1,2,3.6,2c1.3,0,2-0.7,2-1.4c0-0.4-0.2-0.9-1.1-1.1l-2.8-0.7c-2.3-0.6-2.7-1.8-2.7-3c0-2.4,2.3-3.3,4.4-3.3
	c2,0,4.3,1.1,4.3,2.5c0,0.6-0.5,1-1.1,1c0,0,0,0-0.1,0C13.8,9.6,14,8,11.7,8c-1.2,0-1.8,0.5-1.8,1.3c0,0.8,0.9,1,1.7,1.2l2.1,0.5
	c2.3,0.5,2.9,1.9,2.9,3.1C16.5,16,15,17.4,12,17.4z"/>
</svg>
