<?xml version="1.0" encoding="utf-8"?>
<!-- Generator: Adobe Illustrator 26.0.3, SVG Export Plug-In . SVG Version: 6.00 Build 0)  -->
<svg version="1.1" id="Livello_1" xmlns="http://www.w3.org/2000/svg" xmlns:xlink="http://www.w3.org/1999/xlink" x="0px" y="0px"
	 viewBox="0 0 24 24" style="enable-background:new 0 0 24 24;" xml:space="preserve">
<path d="M12,2C6.5,2,2,6.5,2,12s4.5,10,10,10s10-4.5,10-10C22,6.5,17.5,2,12,2z M16.6,16.4C16.6,16.4,16.6,16.4,16.6,16.4
	c-0.2,0.3-0.6,0.4-0.8,0.3c0,0,0,0,0,0c-2.4-1.5-5.3-1.8-8.8-1c-0.3,0.1-0.7-0.1-0.8-0.4c-0.1-0.3,0.1-0.7,0.5-0.8
	c3.8-0.9,7.1-0.5,9.7,1.1C16.6,15.7,16.8,16.1,16.6,16.4z M17.8,13.7C17.8,13.7,17.8,13.7,17.8,13.7c-0.2,0.4-0.7,0.5-1.1,0.3
	c0,0,0,0,0,0c-3-1.7-6.6-2.1-9.9-1.2c-0.4,0.1-0.8-0.1-0.9-0.5c-0.1-0.4,0.1-0.8,0.5-0.9c3.8-1.1,7.8-0.6,11.2,1.4
	C17.9,12.9,18,13.3,17.8,13.7z M17.9,10.9C14.7,9,9.3,8.8,6.3,9.8c-0.5,0.1-1-0.1-1.1-0.6C5,8.7,5.3,8.2,5.8,8
	c3.5-1,9.4-0.8,13.1,1.4c0.4,0.3,0.6,0.8,0.3,1.3C18.9,11,18.3,11.1,17.9,10.9z"/>
</svg>
