<?xml version="1.0" encoding="utf-8"?>
<!-- Generator: Adobe Illustrator 26.0.3, SVG Export Plug-In . SVG Version: 6.00 Build 0)  -->
<svg version="1.1" id="Livello_1" xmlns="http://www.w3.org/2000/svg" xmlns:xlink="http://www.w3.org/1999/xlink" x="0px" y="0px"
	 viewBox="0 0 24 24" style="enable-background:new 0 0 24 24;" xml:space="preserve">
<g>
	<path d="M21.3,9.9l-8.6-8.6C12.5,1.1,12.3,1,12,1H2C1.4,1,1,1.4,1,2v10c0,0.3,0.1,0.5,0.3,0.7l8.6,8.6c0.6,0.6,1.4,0.9,2.1,0.9
		c0.8,0,1.5-0.3,2.1-0.9l7.2-7.2c0,0,0,0,0,0C22.5,12.9,22.5,11.1,21.3,9.9z M19.9,12.7l-7.2,7.2c-0.4,0.4-1,0.4-1.4,0L3,11.6V3h8.6
		l8.3,8.3C20.3,11.7,20.3,12.3,19.9,12.7z"/>
	<path d="M7,6L7,6C6.4,6,6,6.4,6,7s0.5,1,1,1s1-0.4,1-1S7.6,6,7,6z"/>
</g>
</svg>
