<?xml version="1.0" encoding="utf-8"?>
<!-- Generator: Adobe Illustrator 26.0.3, SVG Export Plug-In . SVG Version: 6.00 Build 0)  -->
<svg version="1.1" id="Livello_1" xmlns="http://www.w3.org/2000/svg" xmlns:xlink="http://www.w3.org/1999/xlink" x="0px" y="0px"
	 viewBox="0 0 24 24" style="enable-background:new 0 0 24 24;" xml:space="preserve">
<path d="M17.2,5.5c-0.9-0.9-1.4-2.2-1.5-3.5c-1.1,0-2.2,0-3.3,0c0,3.3,0,6.7,0,10.1c0,1.5,0,3-0.1,4.5c0,0.3-0.2,0.6-0.3,0.9
	c-0.5,0.8-1.4,1.3-2.3,1.3c-1.4,0.1-2.7-1-2.9-2.4c-0.1-0.5,0-0.9,0.1-1.3c0,0,0,0,0,0c0.5-1.5,2.2-2.3,3.6-1.8c0-1.2,0.1-2.5,0-3.7
	c-0.1,0-0.3,0-0.4-0.1c-3.4-0.3-6.5,2.2-6.9,5.6c0,0.4,0,0.8,0,1.2c0.2,2,1.3,3.7,3,4.8c1,0.6,2.2,0.9,3.4,0.9
	c2-0.1,3.8-1.1,4.9-2.7c0.7-1,1.1-2.1,1.1-3.3c0-2.4,0-4.9,0-7.3c0.4,0.3,0.9,0.6,1.3,0.8c1.1,0.5,2.3,0.8,3.5,0.8V7
	C19.4,6.9,18.1,6.4,17.2,5.5z"/>
</svg>
