<?xml version="1.0" encoding="utf-8"?>
<!-- Generator: Adobe Illustrator 26.0.3, SVG Export Plug-In . SVG Version: 6.00 Build 0)  -->
<svg version="1.1" id="Livello_1" xmlns="http://www.w3.org/2000/svg" xmlns:xlink="http://www.w3.org/1999/xlink" x="0px" y="0px"
	 viewBox="0 0 24 24" style="enable-background:new 0 0 24 24;" xml:space="preserve">
<path d="M21,5h-4V4c0-1.7-1.3-3-3-3h-4C8.3,1,7,2.3,7,4v1H3C2.4,5,2,5.4,2,6s0.4,1,1,1h1v13c0,1.7,1.3,3,3,3h10c1.7,0,3-1.3,3-3V7h1
	c0.6,0,1-0.4,1-1S21.6,5,21,5z M9,4c0-0.6,0.4-1,1-1h4c0.6,0,1,0.4,1,1v1H9V4z M18,20c0,0.6-0.4,1-1,1H7c-0.6,0-1-0.4-1-1V7h12V20z"
	/>
</svg>
