<?xml version="1.0" encoding="utf-8"?>
<!-- Generator: Adobe Illustrator 26.0.3, SVG Export Plug-In . SVG Version: 6.00 Build 0)  -->
<svg version="1.1" id="Livello_1" xmlns="http://www.w3.org/2000/svg" xmlns:xlink="http://www.w3.org/1999/xlink" x="0px" y="0px"
	 viewBox="0 0 24 24" style="enable-background:new 0 0 24 24;" xml:space="preserve">
<g>
	<path d="M21,14c-0.6,0-1,0.4-1,1v4c0,0.6-0.4,1-1,1H5c-0.6,0-1-0.4-1-1v-4c0-0.6-0.4-1-1-1s-1,0.4-1,1v4c0,1.7,1.3,3,3,3h14
		c1.7,0,3-1.3,3-3v-4C22,14.4,21.6,14,21,14z"/>
	<path d="M7.7,8.7L11,5.4V15c0,0.6,0.4,1,1,1s1-0.4,1-1V5.4l3.3,3.3C16.5,8.9,16.7,9,17,9s0.5-0.1,0.7-0.3c0.4-0.4,0.4-1,0-1.4l-5-5
		c-0.1-0.1-0.2-0.2-0.3-0.2c-0.2-0.1-0.5-0.1-0.8,0c-0.1,0.1-0.2,0.1-0.3,0.2l-5,5c-0.4,0.4-0.4,1,0,1.4S7.3,9.1,7.7,8.7z"/>
</g>
</svg>
