<?xml version="1.0" encoding="utf-8"?>
<!-- Generator: Adobe Illustrator 26.0.3, SVG Export Plug-In . SVG Version: 6.00 Build 0)  -->
<svg version="1.1" id="Livello_1" xmlns="http://www.w3.org/2000/svg" xmlns:xlink="http://www.w3.org/1999/xlink" x="0px" y="0px"
	 viewBox="0 0 24 24" style="enable-background:new 0 0 24 24;" xml:space="preserve">
<g>
	<path d="M13,14H5c-2.8,0-5,2.2-5,5v2c0,0.6,0.4,1,1,1s1-0.4,1-1v-2c0-1.7,1.3-3,3-3h8c1.7,0,3,1.3,3,3v2c0,0.6,0.4,1,1,1s1-0.4,1-1
		v-2C18,16.2,15.8,14,13,14z"/>
	<path d="M9,12c2.8,0,5-2.2,5-5s-2.2-5-5-5S4,4.2,4,7S6.2,12,9,12z M9,4c1.7,0,3,1.3,3,3s-1.3,3-3,3S6,8.7,6,7S7.3,4,9,4z"/>
	<path d="M20.2,14.2c-0.5-0.1-1.1,0.2-1.2,0.7c-0.1,0.5,0.2,1.1,0.7,1.2c1.3,0.3,2.2,1.5,2.2,2.9v2c0,0.6,0.4,1,1,1s1-0.4,1-1v-2
		C24,16.7,22.5,14.7,20.2,14.2z"/>
	<path d="M16.2,2.2C15.7,2,15.2,2.3,15,2.9c-0.1,0.5,0.2,1.1,0.7,1.2c1.6,0.4,2.6,2,2.2,3.7c-0.3,1.1-1.1,1.9-2.2,2.2
		c-0.5,0.1-0.9,0.7-0.7,1.2c0.1,0.5,0.5,0.8,1,0.8c0.1,0,0.2,0,0.2,0c1.8-0.5,3.2-1.8,3.6-3.6C20.5,5.6,18.9,2.8,16.2,2.2z"/>
</g>
</svg>
