<?xml version="1.0" encoding="utf-8"?>
<!-- Generator: Adobe Illustrator 26.0.3, SVG Export Plug-In . SVG Version: 6.00 Build 0)  -->
<svg version="1.1" id="Livello_1" xmlns="http://www.w3.org/2000/svg" xmlns:xlink="http://www.w3.org/1999/xlink" x="0px" y="0px"
	 viewBox="0 0 24 24" style="enable-background:new 0 0 24 24;" xml:space="preserve">
<g>
	<path d="M16.6,14L16.6,14c-0.2-0.1-1.5-0.7-1.7-0.8s-0.4-0.1-0.6,0.1c-0.2,0.2-0.6,0.8-0.8,1c-0.1,0.2-0.3,0.2-0.5,0.1
		c-0.7-0.3-1.4-0.7-2-1.2c-0.5-0.5-1-1.1-1.4-1.7c-0.1-0.2,0-0.4,0.1-0.5c0.1-0.1,0.2-0.3,0.4-0.4c0.1-0.1,0.2-0.3,0.2-0.4
		c0.1-0.1,0.1-0.3,0-0.4c-0.1-0.1-0.6-1.3-0.8-1.8C9.4,7.3,9.2,7.4,9,7.3s-0.3,0-0.5,0C8.3,7.3,8,7.5,7.9,7.6C7.3,8.2,7,8.9,7,9.7
		c0.1,0.9,0.4,1.8,1,2.6c1.1,1.6,2.5,2.9,4.2,3.7c0.6,0.3,1.1,0.4,1.4,0.5c0.5,0.2,1,0.2,1.6,0.1c0.7-0.1,1.3-0.6,1.7-1.2
		c0.2-0.4,0.2-0.8,0.1-1.2C17,14.2,16.8,14.1,16.6,14z"/>
	<path d="M19,4.9L19,4.9C15.2,1,8.9,1,5,4.9c-3.2,3.2-3.8,8.1-1.6,12L2,22l5.3-1.4c1.5,0.8,3.1,1.2,4.7,1.2c5.5,0,9.9-4.4,9.9-9.9
		C22,9.3,20.9,6.8,19,4.9z M12,20.2L12,20.2c-1.5,0-2.9-0.4-4.2-1.1l-0.3-0.2l-3.1,0.8l0.8-3l-0.2-0.3C2.6,12.4,3.8,7.4,7.7,4.9
		c3.9-2.4,8.9-1.3,11.4,2.6c0.8,1.3,1.3,2.8,1.3,4.4C20.3,16.5,16.6,20.1,12,20.2z"/>
</g>
</svg>
