<?xml version="1.0" encoding="utf-8"?>
<!-- Generator: Adobe Illustrator 26.0.3, SVG Export Plug-In . SVG Version: 6.00 Build 0)  -->
<svg version="1.1" id="Livello_1" xmlns="http://www.w3.org/2000/svg" xmlns:xlink="http://www.w3.org/1999/xlink" x="0px" y="0px"
	 viewBox="0 0 24 24" style="enable-background:new 0 0 24 24;" xml:space="preserve">
<path d="M22.1,6.9c-0.2-0.9-0.9-1.6-1.8-1.8C18.6,4.7,12,4.7,12,4.7s-6.6,0-8.2,0.4C2.9,5.3,2.2,6,2,6.9C1.6,8.6,1.5,10.3,1.5,12
	c0,1.7,0.1,3.4,0.5,5.1c0.2,0.9,0.9,1.6,1.8,1.8c1.6,0.4,8.2,0.4,8.2,0.4s6.6,0,8.2-0.4c0.9-0.2,1.6-0.9,1.8-1.8
	c0.3-1.7,0.4-3.4,0.4-5.1C22.5,10.3,22.4,8.6,22.1,6.9z M9.9,15.2V8.9l5.5,3.2L9.9,15.2z"/>
</svg>
