<svg xmlns="http://www.w3.org/2000/svg" width="16" height="16" viewBox="0 0 16 16" fill="currentColor">
    <path d="M14.667,7.333C15.035,7.333 15.333,7.632 15.333,8C15.333,8.368 15.035,8.667 14.667,8.667L12.481,8.667L10.632,14.211C10.542,14.483 10.287,14.667 10,14.667C9.713,14.667 9.458,14.483 9.368,14.211L6,4.108L4.632,8.211C4.542,8.483 4.287,8.667 4,8.667L1.333,8.667C0.965,8.667 0.667,8.368 0.667,8C0.667,7.632 0.965,7.333 1.333,7.333L3.519,7.333L5.368,1.789C5.458,1.517 5.713,1.333 6,1.333C6.287,1.333 6.542,1.517 6.632,1.789L10,11.892L11.368,7.789C11.458,7.517 11.713,7.333 12,7.333L14.667,7.333Z"/>
</svg>
