<svg xmlns="http://www.w3.org/2000/svg" width="16" height="16" viewBox="0 0 16 16" fill="currentColor">
    <path d="M6.29,2.228C6.652,1.631 7.302,1.265 8,1.265C8.698,1.265 9.348,1.631 9.71,2.228L9.712,2.231L15.359,11.657C15.36,11.66 15.362,11.664 15.364,11.667C15.54,11.971 15.632,12.316 15.632,12.667C15.632,13.756 14.743,14.655 13.654,14.667C13.652,14.667 13.649,14.667 13.647,14.667L2.353,14.667C2.351,14.667 2.348,14.667 2.346,14.667C1.257,14.655 0.368,13.756 0.368,12.667C0.368,12.316 0.46,11.971 0.636,11.667C0.638,11.664 0.64,11.66 0.641,11.657L6.288,2.231L6.29,2.228ZM7.43,2.918C7.43,2.918 1.789,12.336 1.787,12.339C1.731,12.439 1.701,12.552 1.701,12.667C1.701,13.029 1.997,13.328 2.359,13.333C2.359,13.333 13.641,13.333 13.641,13.333C14.003,13.328 14.299,13.029 14.299,12.667C14.299,12.551 14.268,12.437 14.211,12.336L8.57,2.918C8.449,2.72 8.233,2.598 8,2.598C7.767,2.598 7.551,2.72 7.43,2.918ZM7.333,6C7.333,5.632 7.632,5.333 8,5.333C8.368,5.333 8.667,5.632 8.667,6L8.667,8.667C8.667,9.035 8.368,9.333 8,9.333C7.632,9.333 7.333,9.035 7.333,8.667L7.333,6ZM8,10.667C8.368,10.667 8.667,10.965 8.667,11.333C8.667,11.701 8.368,12 8,12C7.632,12 7.333,11.701 7.333,11.333C7.333,10.965 7.632,10.667 8,10.667Z"/>
</svg>
