<svg xmlns="http://www.w3.org/2000/svg" width="16" height="16" viewBox="0 0 16 16" fill="currentColor">
    <path d="M8,0.667C12.047,0.667 15.333,3.953 15.333,8C15.333,12.047 12.047,15.333 8,15.333C3.953,15.333 0.667,12.047 0.667,8C0.667,3.953 3.953,0.667 8,0.667ZM8,2C4.689,2 2,4.689 2,8C2,11.311 4.689,14 8,14C11.311,14 14,11.311 14,8C14,4.689 11.311,2 8,2ZM8,10C8.368,10 8.667,10.299 8.667,10.667C8.667,11.035 8.368,11.333 8,11.333C7.632,11.333 7.333,11.035 7.333,10.667C7.333,10.299 7.632,10 8,10ZM7.333,5.333C7.333,4.965 7.632,4.667 8,4.667C8.368,4.667 8.667,4.965 8.667,5.333L8.667,8C8.667,8.368 8.368,8.667 8,8.667C7.632,8.667 7.333,8.368 7.333,8L7.333,5.333Z"/>
</svg>
