<svg xmlns="http://www.w3.org/2000/svg" width="16" height="16" viewBox="0 0 16 16" fill="currentColor">
    <path d="M11.6,6.39C13.7,7.52 15.13,9.62 15.34,12.1L0.67,12.1C0.88,9.62 2.31,7.52 4.41,6.4L3.19,4.31C3.19,4.31 3.15,4.22 3.15,4.17C3.15,4.03 3.27,3.92 3.4,3.92C3.49,3.92 3.58,3.97 3.63,4.06L4.87,6.17C6.87,5.28 9.15,5.28 11.15,6.17L12.39,4.05C12.43,3.97 12.52,3.91 12.62,3.91C12.76,3.91 12.87,4.02 12.87,4.16C12.87,4.21 12.86,4.25 12.83,4.3L11.61,6.39L11.6,6.39ZM4.63,10.03C4.97,10.03 5.24,9.76 5.24,9.43C5.24,9.1 4.96,8.83 4.63,8.83C4.3,8.83 4.02,9.1 4.02,9.43C4.02,9.76 4.3,10.03 4.63,10.03ZM11.38,10.03C11.72,10.03 11.99,9.76 11.99,9.43C11.99,9.1 11.71,8.83 11.38,8.83C11.05,8.83 10.77,9.1 10.77,9.43C10.77,9.76 11.05,10.03 11.38,10.03Z"/>
</svg>
