<svg xmlns="http://www.w3.org/2000/svg" width="16" height="16" viewBox="0 0 16 16" fill="currentColor">
    <path d="M11.432,6.549L11.43,6.549C13.432,7.626 14.801,9.628 15,11.995L1,11.995C1.199,9.63 2.568,7.626 4.568,6.552L3.404,4.557C3.379,4.518 3.366,4.474 3.366,4.428C3.366,4.296 3.476,4.188 3.609,4.188C3.699,4.188 3.782,4.238 3.824,4.317L5.003,6.335C6.909,5.49 9.091,5.49 10.997,6.335L12.176,4.314C12.218,4.235 12.301,4.185 12.391,4.185C12.524,4.185 12.634,4.294 12.634,4.426C12.634,4.471 12.621,4.516 12.596,4.555L11.432,6.549ZM11.223,10.022C11.543,10.022 11.806,9.761 11.806,9.445C11.806,9.129 11.543,8.868 11.223,8.868C10.903,8.868 10.64,9.129 10.64,9.445C10.64,9.761 10.903,10.022 11.223,10.022ZM4.78,10.022C5.1,10.022 5.363,9.761 5.363,9.445C5.363,9.129 5.1,8.868 4.78,8.868C4.46,8.868 4.196,9.129 4.196,9.445C4.196,9.761 4.46,10.022 4.78,10.022Z"/>
</svg>
