<svg xmlns="http://www.w3.org/2000/svg" width="16" height="16" viewBox="0 0 16 16" fill="currentColor">
    <path d="M12.24,8.42C12.24,8.52 12.14,10.41 14.23,11.46C13.81,12.72 12.45,15.34 10.88,15.34C9.94,15.34 9.41,14.71 8.37,14.71C7.33,14.71 6.69,15.23 5.86,15.34C4.29,15.34 2.72,12.41 2.3,11.25C1.99,10.31 1.78,9.47 1.78,8.63C1.78,5.7 3.77,4.33 5.55,4.23C6.6,4.23 7.65,4.86 8.17,4.86C8.59,4.86 9.95,4.13 11.1,4.23C12.36,4.33 13.3,4.86 13.82,5.7C12.77,6.33 12.14,7.27 12.25,8.42L12.24,8.42ZM10.35,3.08C9.72,3.81 8.88,4.23 8.05,4.13C7.95,3.29 8.36,2.45 8.89,1.83C9.41,1.2 10.36,0.78 11.09,0.68C11.19,0.99 11.19,2.04 10.36,3.09L10.35,3.08Z"/>
</svg>
