<svg xmlns="http://www.w3.org/2000/svg" width="16" height="16" viewBox="0 0 16 16" fill="currentColor">
    <path d="M1.333,6L0.667,6C0.298,6 0,5.702 0,5.333L0,2C0,1.632 0.298,1.333 0.667,1.333L15.333,1.333C15.702,1.333 16,1.632 16,2L16,5.333C16,5.702 15.702,6 15.333,6L14.667,6L14.667,14C14.667,14.368 14.368,14.667 14,14.667L2,14.667C1.632,14.667 1.333,14.368 1.333,14L1.333,6ZM1.333,4.667L14.667,4.667L14.667,2.667L1.333,2.667L1.333,4.667ZM2.667,6C2.667,7.921 2.667,13.333 2.667,13.333L13.333,13.333L13.333,6L2.667,6ZM6.667,8.667C6.299,8.667 6,8.368 6,8C6,7.632 6.299,7.333 6.667,7.333L9.333,7.333C9.701,7.333 10,7.632 10,8C10,8.368 9.701,8.667 9.333,8.667L6.667,8.667Z"/>
</svg>
