<svg xmlns="http://www.w3.org/2000/svg" width="16" height="16" viewBox="0 0 16 16" fill="currentColor">
    <path d="M7.333,4.943L3.805,8.471C3.545,8.732 3.122,8.732 2.862,8.471C2.602,8.211 2.602,7.789 2.862,7.529L7.529,2.862C7.654,2.737 7.823,2.667 8,2.667C8.177,2.667 8.346,2.737 8.471,2.862L13.138,7.529C13.398,7.789 13.398,8.211 13.138,8.471C12.878,8.732 12.455,8.732 12.195,8.471C12.195,8.471 9.85,6.126 8.667,4.943L8.667,12.667C8.667,13.035 8.368,13.333 8,13.333C7.632,13.333 7.333,13.035 7.333,12.667L7.333,4.943Z"/>
</svg>
