<svg xmlns="http://www.w3.org/2000/svg" width="16" height="16" viewBox="0 0 16 16" fill="currentColor">
    <path d="M7.529,13.138L2.862,8.471C2.602,8.211 2.602,7.789 2.862,7.529C3.122,7.268 3.545,7.268 3.805,7.529C3.805,7.529 6.15,9.874 7.333,11.057L7.333,3.333C7.333,2.965 7.632,2.667 8,2.667C8.368,2.667 8.667,2.965 8.667,3.333L8.667,11.057L12.195,7.529C12.455,7.268 12.878,7.268 13.138,7.529C13.398,7.789 13.398,8.211 13.138,8.471L8.471,13.138C8.346,13.263 8.177,13.333 8,13.333C7.823,13.333 7.654,13.263 7.529,13.138Z"/>
</svg>
