<svg xmlns="http://www.w3.org/2000/svg" width="16" height="16" viewBox="0 0 16 16" fill="currentColor">
    <path d="M11.057,8.667L3.333,8.667C2.965,8.667 2.667,8.368 2.667,8C2.667,7.632 2.965,7.333 3.333,7.333L11.057,7.333L7.529,3.805C7.268,3.545 7.268,3.122 7.529,2.862C7.789,2.602 8.211,2.602 8.471,2.862L13.138,7.529C13.263,7.654 13.333,7.823 13.333,8C13.333,8.177 13.263,8.346 13.138,8.471L8.471,13.138C8.211,13.398 7.789,13.398 7.529,13.138C7.268,12.878 7.268,12.455 7.529,12.195C7.529,12.195 9.874,9.85 11.057,8.667Z"/>
</svg>
