<svg xmlns="http://www.w3.org/2000/svg" width="16" height="16" viewBox="0 0 16 16" fill="currentColor">
    <path d="M2.862,8.471C2.737,8.346 2.667,8.177 2.667,8C2.667,7.823 2.737,7.654 2.862,7.529L7.529,2.862C7.789,2.602 8.211,2.602 8.471,2.862C8.732,3.122 8.732,3.545 8.471,3.805C8.471,3.805 6.126,6.15 4.943,7.333L12.667,7.333C13.035,7.333 13.333,7.632 13.333,8C13.333,8.368 13.035,8.667 12.667,8.667L4.943,8.667L8.471,12.195C8.732,12.455 8.732,12.878 8.471,13.138C8.211,13.398 7.789,13.398 7.529,13.138L2.862,8.471Z"/>
</svg>
