<svg xmlns="http://www.w3.org/2000/svg" width="16" height="16" viewBox="0 0 16 16" fill="currentColor">
    <path d="M4.76,9.569C3.488,8.594 2.667,7.059 2.667,5.333C2.667,2.39 5.056,0 8,0C10.944,0 13.333,2.39 13.333,5.333C13.333,7.058 12.513,8.593 11.241,9.568L11.994,15.246C12.028,15.499 11.913,15.75 11.699,15.891C11.485,16.031 11.21,16.037 10.99,15.905L8,14.111L5.01,15.905C4.79,16.037 4.515,16.031 4.301,15.891C4.087,15.75 3.972,15.499 4.006,15.246L4.76,9.569ZM10.214,8.664C11.29,7.947 12,6.722 12,5.333C12,3.126 10.208,1.333 8,1.333C5.792,1.333 4,3.126 4,5.333C4,7.541 5.792,9.333 8,9.333C8.778,9.333 9.505,9.111 10.119,8.726C10.15,8.704 10.182,8.684 10.214,8.664ZM9.991,10.282C9.375,10.53 8.704,10.667 8,10.667C7.297,10.667 6.625,10.53 6.01,10.282L5.51,14.05L7.657,12.762C7.868,12.635 8.132,12.635 8.343,12.762L10.491,14.05L9.991,10.282Z"/>
</svg>
