<svg xmlns="http://www.w3.org/2000/svg" width="16" height="16" viewBox="0 0 16 16" fill="currentColor">
    <path d="M6.58,7.52C7.69,7.83 8.23,8.67 8.23,9.81C8.23,11.64 6.69,12.43 5.04,12.43L0.67,12.43L0.67,3.4L4.94,3.4C6.48,3.4 7.82,3.83 7.82,5.63C7.82,6.54 7.39,7.13 6.58,7.52ZM4.76,10.89C5.57,10.89 6.23,10.62 6.23,9.69C6.23,8.76 5.67,8.4 4.8,8.4L2.64,8.4L2.64,10.88L4.76,10.88L4.76,10.89ZM2.65,4.94L2.65,7.05L4.66,7.05C5.36,7.05 5.87,6.74 5.87,5.97C5.87,5.14 5.22,4.94 4.51,4.94L2.65,4.94ZM15.33,9.25C15.33,9.37 15.32,9.48 15.32,9.59L10.6,9.59C10.6,10.64 11.16,11.26 12.2,11.26C12.75,11.26 13.45,10.97 13.62,10.41L15.2,10.41C14.71,11.91 13.7,12.61 12.14,12.61C10.07,12.61 8.8,11.14 8.8,9.18C8.8,7.22 10.09,5.72 12.14,5.72C14.19,5.72 15.32,7.33 15.33,9.25ZM10.59,8.46L13.52,8.46C13.44,7.6 12.94,7.07 12.08,7.07C11.22,7.07 10.65,7.6 10.59,8.46ZM13.89,4.76L10.23,4.76L10.23,3.87L13.89,3.87L13.89,4.76Z"/>
</svg>
