<svg xmlns="http://www.w3.org/2000/svg" width="16" height="16" viewBox="0 0 16 16" fill="currentColor">
    <path d="M5,3.6C5.4,3.6 5.8,3.6 6.1,3.7C6.5,3.8 6.8,3.9 7,4.1C7.2,4.3 7.4,4.5 7.6,4.8C7.7,5.1 7.8,5.5 7.8,5.8C7.8,6.2 7.7,6.6 7.5,6.9C7.3,7.2 7,7.4 6.6,7.6C7.1,7.7 7.5,8 7.8,8.4C8.1,8.8 8.2,9.3 8.2,9.8C8.2,10.2 8.1,10.6 8,10.9C7.8,11.2 7.6,11.5 7.3,11.7C7,11.9 6.7,12.1 6.3,12.1C5.9,12.2 5.6,12.2 5.2,12.2L1,12.2L1,3.6L5,3.6ZM10.9,10.7C11.2,11 11.6,11.1 12,11.1C12.3,11.1 12.6,11 12.9,10.8C13.1,10.7 13.3,10.5 13.4,10.3L14.9,10.3C14.7,10.9 14.3,11.5 13.8,11.9C13.3,12.2 12.6,12.4 12,12.4C11.5,12.4 11.1,12.3 10.7,12.2C10.3,12.1 10,11.8 9.7,11.5C9.4,11.2 9.2,10.9 9.1,10.5C8.8,10 8.8,9.6 8.8,9.1C8.8,8.7 8.9,8.2 9,7.8C9.3,7 9.9,6.4 10.7,6.1C11.1,5.9 11.6,5.8 12,5.8C12.5,5.8 13,5.9 13.4,6.1C13.8,6.3 14.1,6.6 14.4,6.9C14.7,7.3 14.8,7.7 14.9,8.1C15,8.6 15,9 15,9.5L10.5,9.5C10.5,10 10.6,10.4 10.9,10.7ZM4.9,10.7C5.1,10.7 5.3,10.7 5.4,10.6C5.6,10.6 5.7,10.5 5.8,10.4C5.9,10.3 6,10.2 6.1,10.1C6.3,10 6.3,9.8 6.3,9.6C6.3,9.2 6.2,8.9 5.9,8.7C5.6,8.5 5.3,8.4 4.9,8.4L2.9,8.4L2.9,10.8L4.9,10.7C4.9,10.8 4.9,10.7 4.9,10.7ZM12.8,7.5C12.5,7.3 12.2,7.1 11.8,7.2C11.6,7.2 11.3,7.2 11.1,7.3C10.9,7.4 10.8,7.5 10.7,7.6C10.6,7.7 10.5,7.9 10.5,8C10.5,8.1 10.4,8.3 10.4,8.4L13.2,8.4C13.2,8.1 13.1,7.7 12.8,7.5ZM4.8,7.1C5.1,7.1 5.4,7 5.6,6.9C5.9,6.7 6,6.4 6,6.1C6,5.9 6,5.8 5.9,5.6C5.8,5.5 5.7,5.4 5.6,5.3C5.4,5.2 5.3,5.2 5.1,5.1L2.9,5.1L2.9,7.1L4.8,7.1ZM10.1,4.2L13.6,4.2L13.6,5L10.1,5L10.1,4.2Z" style="fill-rule:nonzero;"/>
</svg>
