<svg xmlns="http://www.w3.org/2000/svg" width="16" height="16" viewBox="0 0 16 16" fill="currentColor">
    <path d="M14.99,9.19L14.99,9.2C14.989,9.307 14.98,9.413 14.98,9.51L10.48,9.51C10.48,10.51 11.01,11.1 12.01,11.1C12.53,11.1 13.2,10.82 13.36,10.29L14.87,10.29C14.4,11.72 13.44,12.39 11.95,12.39C9.98,12.39 8.76,10.99 8.76,9.12C8.76,7.25 9.99,5.82 11.95,5.82C13.906,5.82 14.986,7.354 14.99,9.19ZM10.48,8.44L13.27,8.44C13.19,7.62 12.72,7.11 11.9,7.11C11.08,7.11 10.54,7.62 10.48,8.44ZM6.64,7.54L6.65,7.54C7.71,7.84 8.22,8.64 8.22,9.72C8.22,11.47 6.75,12.22 5.18,12.22L1,12.22L1,3.61L5.07,3.61C6.54,3.61 7.82,4.02 7.82,5.74C7.82,6.61 7.41,7.17 6.64,7.54ZM2.9,5.08L2.9,7.09L4.82,7.09C5.49,7.09 5.97,6.79 5.97,6.06C5.97,5.27 5.35,5.08 4.67,5.08L2.9,5.08ZM4.91,10.76C5.68,10.76 6.31,10.5 6.31,9.62C6.31,8.74 5.78,8.39 4.95,8.39L2.89,8.39L2.89,10.76L4.91,10.76ZM13.62,4.91L10.13,4.91L10.13,4.06L13.62,4.06L13.62,4.91Z"/>
</svg>
