<svg xmlns="http://www.w3.org/2000/svg" width="16" height="16" viewBox="0 0 16 16" fill="currentColor">
    <path d="M7.333,14C7.333,13.269 6.731,12.667 6,12.667L1.333,12.667C0.965,12.667 0.667,12.368 0.667,12L0.667,2C0.667,1.632 0.965,1.333 1.333,1.333L5.333,1.333C6.419,1.333 7.39,1.863 8,2.676C8.61,1.863 9.581,1.333 10.667,1.333L14.667,1.333C15.035,1.333 15.333,1.632 15.333,2L15.333,12C15.333,12.368 15.035,12.667 14.667,12.667L10,12.667C9.269,12.667 8.667,13.269 8.667,14C8.667,14.368 8.368,14.667 8,14.667C7.632,14.667 7.333,14.368 7.333,14ZM7.333,4.667C7.333,3.569 6.431,2.667 5.333,2.667L2,2.667C2,2.667 2,11.333 2,11.333L6,11.333C6.484,11.333 6.94,11.465 7.333,11.695L7.333,4.667ZM8.667,11.695C9.06,11.465 9.516,11.333 10,11.333C10,11.333 14,11.333 14,11.333L14,2.667L10.667,2.667C9.569,2.667 8.667,3.569 8.667,4.667L8.667,11.695Z"/>
</svg>
