<svg xmlns="http://www.w3.org/2000/svg" width="16" height="16" viewBox="0 0 16 16" fill="currentColor">
    <path d="M2,13L2,3C2,1.72 3.053,0.667 4.333,0.667L13.333,0.667C13.702,0.667 14,0.965 14,1.333L14,14.667C14,15.035 13.702,15.333 13.333,15.333L4.333,15.333C3.053,15.333 2,14.28 2,13ZM12.667,10.667L12.667,2L4.333,2C3.785,2 3.333,2.451 3.333,3L3.333,10.894C3.637,10.749 3.976,10.667 4.333,10.667L12.667,10.667ZM3.333,13C3.333,13.549 3.785,14 4.333,14L12.667,14L12.667,12L4.333,12C3.785,12 3.333,12.451 3.333,13Z"/>
</svg>
