<svg xmlns="http://www.w3.org/2000/svg" width="16" height="16" viewBox="0 0 16 16" fill="currentColor">
    <path d="M12.279,14.542L8,11.486L3.721,14.542C3.518,14.688 3.25,14.707 3.028,14.593C2.806,14.479 2.667,14.25 2.667,14L2.667,3.333C2.667,2.236 3.569,1.333 4.667,1.333L11.333,1.333C12.431,1.333 13.333,2.236 13.333,3.333L13.333,14C13.333,14.25 13.194,14.479 12.972,14.593C12.75,14.707 12.482,14.688 12.279,14.542ZM12,12.705L12,3.333C12,2.968 11.699,2.667 11.333,2.667L4.667,2.667C4.301,2.667 4,2.968 4,3.333L4,12.705L7.613,10.124C7.844,9.959 8.156,9.959 8.387,10.124L12,12.705Z"/>
</svg>
