<svg xmlns="http://www.w3.org/2000/svg" width="16" height="16" viewBox="0 0 16 16" fill="currentColor">
    <path d="M13.333,14.667L2.667,14.667C1.563,14.667 0.667,13.77 0.667,12.667L0.667,6C0.667,4.896 1.563,4 2.667,4L4.667,4L4.667,3.333C4.667,2.236 5.569,1.333 6.667,1.333L9.333,1.333C10.431,1.333 11.333,2.236 11.333,3.333L11.333,4L13.333,4C14.437,4 15.333,4.896 15.333,6L15.333,12.667C15.333,13.77 14.437,14.667 13.333,14.667ZM4.667,5.333L2.667,5.333C2.299,5.333 2,5.632 2,6L2,12.667C2,13.035 2.299,13.333 2.667,13.333L4.667,13.333L4.667,5.333ZM10,4L10,3.333C10,2.968 9.699,2.667 9.333,2.667L6.667,2.667C6.301,2.667 6,2.968 6,3.333L6,4L10,4ZM11.333,13.333L13.333,13.333C13.701,13.333 14,13.035 14,12.667L14,6C14,5.632 13.701,5.333 13.333,5.333L11.333,5.333L11.333,13.333ZM6,13.333L10,13.333L10,5.333L6,5.333L6,13.333Z"/>
</svg>
