<svg xmlns="http://www.w3.org/2000/svg" width="16" height="16" viewBox="0 0 16 16" fill="currentColor">
    <path d="M1.333,13.333L1.333,4C1.333,2.896 2.23,2 3.333,2L4.667,2L4.667,1.333C4.667,0.965 4.965,0.667 5.333,0.667C5.701,0.667 6,0.965 6,1.333L6,2L10,2L10,1.333C10,0.965 10.299,0.667 10.667,0.667C11.035,0.667 11.333,0.965 11.333,1.333L11.333,2L12.667,2C13.77,2 14.667,2.896 14.667,4L14.667,13.333C14.667,14.437 13.77,15.333 12.667,15.333L3.333,15.333C2.23,15.333 1.333,14.437 1.333,13.333ZM4.667,3.333L3.333,3.333C2.965,3.333 2.667,3.632 2.667,4L2.667,6L13.333,6L13.333,4C13.333,3.632 13.035,3.333 12.667,3.333L11.333,3.333L11.333,4C11.333,4.368 11.035,4.667 10.667,4.667C10.299,4.667 10,4.368 10,4L10,3.333L6,3.333L6,4C6,4.368 5.701,4.667 5.333,4.667C4.965,4.667 4.667,4.368 4.667,4L4.667,3.333ZM2.667,7.333L2.667,13.333C2.667,13.701 2.965,14 3.333,14L12.667,14C13.035,14 13.333,13.701 13.333,13.333L13.333,7.333L2.667,7.333Z"/>
</svg>
