<svg xmlns="http://www.w3.org/2000/svg" width="16" height="16" viewBox="0 0 16 16" fill="currentColor">
    <path d="M4.195,9.138C3.935,8.878 3.935,8.455 4.195,8.195C4.455,7.935 4.878,7.935 5.138,8.195C5.138,8.195 8,11.057 8,11.057L10.862,8.195C11.122,7.935 11.545,7.935 11.805,8.195C12.065,8.455 12.065,8.878 11.805,9.138L8.471,12.471C8.211,12.732 7.789,12.732 7.529,12.471L4.195,9.138ZM4.195,4.471C3.935,4.211 3.935,3.789 4.195,3.529C4.455,3.268 4.878,3.268 5.138,3.529C5.138,3.529 8,6.391 8,6.391L10.862,3.529C11.122,3.268 11.545,3.268 11.805,3.529C12.065,3.789 12.065,4.211 11.805,4.471L8.471,7.805C8.211,8.065 7.789,8.065 7.529,7.805L4.195,4.471Z"/>
</svg>
