<svg xmlns="http://www.w3.org/2000/svg" width="16" height="16" viewBox="0 0 16 16" fill="currentColor">
    <path d="M7.805,10.862C8.065,11.122 8.065,11.545 7.805,11.805C7.545,12.065 7.122,12.065 6.862,11.805L3.529,8.471C3.268,8.211 3.268,7.789 3.529,7.529L6.862,4.195C7.122,3.935 7.545,3.935 7.805,4.195C8.065,4.455 8.065,4.878 7.805,5.138C7.805,5.138 4.943,8 4.943,8L7.805,10.862ZM12.471,10.862C12.732,11.122 12.732,11.545 12.471,11.805C12.211,12.065 11.789,12.065 11.529,11.805L8.195,8.471C7.935,8.211 7.935,7.789 8.195,7.529L11.529,4.195C11.789,3.935 12.211,3.935 12.471,4.195C12.732,4.455 12.732,4.878 12.471,5.138C12.471,5.138 9.609,8 9.609,8L12.471,10.862Z"/>
</svg>
