<svg xmlns="http://www.w3.org/2000/svg" width="16" height="16" viewBox="0 0 16 16" fill="currentColor">
    <path d="M9.138,11.805C8.878,12.065 8.455,12.065 8.195,11.805C7.935,11.545 7.935,11.122 8.195,10.862C8.195,10.862 11.057,8 11.057,8L8.195,5.138C7.935,4.878 7.935,4.455 8.195,4.195C8.455,3.935 8.878,3.935 9.138,4.195L12.471,7.529C12.732,7.789 12.732,8.211 12.471,8.471L9.138,11.805ZM4.471,11.805C4.211,12.065 3.789,12.065 3.529,11.805C3.268,11.545 3.268,11.122 3.529,10.862C3.529,10.862 6.391,8 6.391,8L3.529,5.138C3.268,4.878 3.268,4.455 3.529,4.195C3.789,3.935 4.211,3.935 4.471,4.195L7.805,7.529C8.065,7.789 8.065,8.211 7.805,8.471L4.471,11.805Z"/>
</svg>
