<svg xmlns="http://www.w3.org/2000/svg" width="16" height="16" viewBox="0 0 16 16" fill="currentColor">
    <path d="M11.805,6.862C12.065,7.122 12.065,7.545 11.805,7.805C11.545,8.065 11.122,8.065 10.862,7.805C10.862,7.805 8,4.943 8,4.943L5.138,7.805C4.878,8.065 4.455,8.065 4.195,7.805C3.935,7.545 3.935,7.122 4.195,6.862L7.529,3.529C7.789,3.268 8.211,3.268 8.471,3.529L11.805,6.862ZM11.805,11.529C12.065,11.789 12.065,12.211 11.805,12.471C11.545,12.732 11.122,12.732 10.862,12.471C10.862,12.471 8,9.609 8,9.609L5.138,12.471C4.878,12.732 4.455,12.732 4.195,12.471C3.935,12.211 3.935,11.789 4.195,11.529L7.529,8.195C7.789,7.935 8.211,7.935 8.471,8.195L11.805,11.529Z"/>
</svg>
