<svg xmlns="http://www.w3.org/2000/svg" width="16" height="16" viewBox="0 0 16 16" fill="currentColor">
    <path d="M11.333,2L12,2C13.097,2 14,2.903 14,4L14,13.333C14,14.431 13.097,15.333 12,15.333L4,15.333C2.903,15.333 2,14.431 2,13.333L2,4C2,2.903 2.903,2 4,2L4.667,2C4.667,1.264 5.264,0.667 6,0.667L10,0.667C10.736,0.667 11.333,1.264 11.333,2ZM4.667,3.333L4,3.333C3.634,3.333 3.333,3.634 3.333,4L3.333,13.333C3.333,13.699 3.634,14 4,14L12,14C12.366,14 12.667,13.699 12.667,13.333L12.667,4C12.667,3.634 12.366,3.333 12,3.333L11.333,3.333C11.333,4.069 10.736,4.667 10,4.667L6,4.667C5.264,4.667 4.667,4.069 4.667,3.333ZM10,3.333L10,2L6,2L6,3.333L10,3.333Z"/>
</svg>
