<svg xmlns="http://www.w3.org/2000/svg" width="16" height="16" viewBox="0 0 16 16" fill="currentColor">
    <path d="M8,0.667C12.047,0.667 15.333,3.953 15.333,8C15.333,12.047 12.047,15.333 8,15.333C3.953,15.333 0.667,12.047 0.667,8C0.667,3.953 3.953,0.667 8,0.667ZM8,2C4.689,2 2,4.689 2,8C2,11.311 4.689,14 8,14C11.311,14 14,11.311 14,8C14,4.689 11.311,2 8,2ZM7.333,4C7.333,3.632 7.632,3.333 8,3.333C8.368,3.333 8.667,3.632 8.667,4L8.667,7.588L10.965,8.737C11.294,8.902 11.428,9.302 11.263,9.631C11.098,9.961 10.698,10.094 10.369,9.93L7.702,8.596C7.476,8.483 7.333,8.253 7.333,8L7.333,4Z"/>
</svg>
