<svg xmlns="http://www.w3.org/2000/svg" width="16" height="16" viewBox="0 0 16 16" fill="currentColor">
    <path d="M8,0.667C12.047,0.667 15.333,3.953 15.333,8C15.333,12.047 12.047,15.333 8,15.333C3.953,15.333 0.667,12.047 0.667,8C0.667,3.953 3.953,0.667 8,0.667ZM8,2C4.689,2 2,4.689 2,8C2,11.311 4.689,14 8,14C11.311,14 14,11.311 14,8C14,4.689 11.311,2 8,2ZM11.459,5.384L10.046,9.624C9.979,9.823 9.823,9.979 9.624,10.046L5.384,11.459C5.145,11.539 4.88,11.477 4.702,11.298C4.523,11.12 4.461,10.855 4.541,10.616L5.954,6.376C6.021,6.177 6.177,6.021 6.376,5.954L10.616,4.541C10.855,4.461 11.12,4.523 11.298,4.702C11.477,4.88 11.539,5.145 11.459,5.384ZM9.773,6.227L7.114,7.114L6.227,9.773L8.886,8.886L9.773,6.227Z"/>
</svg>
