<svg xmlns="http://www.w3.org/2000/svg" width="16" height="16" viewBox="0 0 16 16" fill="currentColor">
    <path d="M15.333,7.333L15.333,13.333C15.333,14.437 14.437,15.333 13.333,15.333L7.333,15.333C6.23,15.333 5.333,14.437 5.333,13.333L5.333,7.333C5.333,6.23 6.23,5.333 7.333,5.333L13.333,5.333C14.437,5.333 15.333,6.23 15.333,7.333ZM14,7.333C14,6.965 13.701,6.667 13.333,6.667L7.333,6.667C6.965,6.667 6.667,6.965 6.667,7.333L6.667,13.333C6.667,13.701 6.965,14 7.333,14L13.333,14C13.701,14 14,13.701 14,13.333L14,7.333ZM3.333,9.333C3.701,9.333 4,9.632 4,10C4,10.368 3.701,10.667 3.333,10.667L2.667,10.667C1.569,10.667 0.667,9.764 0.667,8.667L0.667,2.667C0.667,1.569 1.569,0.667 2.667,0.667L8.667,0.667C9.764,0.667 10.667,1.569 10.667,2.667L10.667,3.333C10.667,3.701 10.368,4 10,4C9.632,4 9.333,3.701 9.333,3.333L9.333,2.667C9.333,2.301 9.032,2 8.667,2L2.667,2C2.301,2 2,2.301 2,2.667L2,8.667C2,9.032 2.301,9.333 2.667,9.333L3.333,9.333Z"/>
</svg>
