<svg xmlns="http://www.w3.org/2000/svg" width="16" height="16" viewBox="0 0 16 16" fill="currentColor">
    <path d="M10.667,4.276L10.667,10.667C10.667,12.495 9.162,14 7.333,14L2.667,14C2.299,14 2,13.701 2,13.333C2,12.965 2.299,12.667 2.667,12.667L7.333,12.667C8.431,12.667 9.333,11.764 9.333,10.667L9.333,4.276L7.138,6.471C6.878,6.732 6.455,6.732 6.195,6.471C5.935,6.211 5.935,5.789 6.195,5.529L9.529,2.195C9.654,2.07 9.823,2 10,2C10.177,2 10.346,2.07 10.471,2.195L13.805,5.529C14.065,5.789 14.065,6.211 13.805,6.471C13.545,6.732 13.122,6.732 12.862,6.471C12.862,6.471 11.512,5.122 10.667,4.276Z"/>
</svg>
