<svg xmlns="http://www.w3.org/2000/svg" width="16" height="16" viewBox="0 0 16 16" fill="currentColor">
    <path d="M2.195,10.471C2.07,10.346 2,10.177 2,10C2,9.823 2.07,9.654 2.195,9.529L5.529,6.195C5.789,5.935 6.211,5.935 6.471,6.195C6.732,6.455 6.732,6.878 6.471,7.138C6.471,7.138 5.122,8.488 4.276,9.333L10.667,9.333C11.764,9.333 12.667,8.431 12.667,7.333L12.667,2.667C12.667,2.299 12.965,2 13.333,2C13.701,2 14,2.299 14,2.667L14,7.333C14,9.162 12.495,10.667 10.667,10.667L4.276,10.667L6.471,12.862C6.732,13.122 6.732,13.545 6.471,13.805C6.211,14.065 5.789,14.065 5.529,13.805L2.195,10.471Z"/>
</svg>
