<svg xmlns="http://www.w3.org/2000/svg" width="16" height="16" viewBox="0 0 16 16" fill="currentColor">
    <path d="M11.724,6.667L5.333,6.667C4.236,6.667 3.333,7.569 3.333,8.667L3.333,13.333C3.333,13.701 3.035,14 2.667,14C2.299,14 2,13.701 2,13.333L2,8.667C2,6.838 3.505,5.333 5.333,5.333L11.724,5.333L9.529,3.138C9.268,2.878 9.268,2.455 9.529,2.195C9.789,1.935 10.211,1.935 10.471,2.195L13.805,5.529C13.93,5.654 14,5.823 14,6C14,6.177 13.93,6.346 13.805,6.471L10.471,9.805C10.211,10.065 9.789,10.065 9.529,9.805C9.268,9.545 9.268,9.122 9.529,8.862C9.529,8.862 10.878,7.512 11.724,6.667Z"/>
</svg>
