<svg xmlns="http://www.w3.org/2000/svg" width="16" height="16" viewBox="0 0 16 16" fill="currentColor">
    <path d="M9.333,11.724L9.333,5.333C9.333,4.236 8.431,3.333 7.333,3.333L2.667,3.333C2.299,3.333 2,3.035 2,2.667C2,2.299 2.299,2 2.667,2L7.333,2C9.162,2 10.667,3.505 10.667,5.333L10.667,11.724L12.862,9.529C13.122,9.268 13.545,9.268 13.805,9.529C14.065,9.789 14.065,10.211 13.805,10.471L10.471,13.805C10.346,13.93 10.177,14 10,14C9.823,14 9.654,13.93 9.529,13.805L6.195,10.471C5.935,10.211 5.935,9.789 6.195,9.529C6.455,9.268 6.878,9.268 7.138,9.529C7.138,9.529 8.488,10.878 9.333,11.724Z"/>
</svg>
