<svg xmlns="http://www.w3.org/2000/svg" width="16" height="16" viewBox="0 0 16 16" fill="currentColor">
    <path d="M5.529,13.805L2.195,10.471C1.935,10.211 1.935,9.789 2.195,9.529C2.455,9.268 2.878,9.268 3.138,9.529C3.138,9.529 4.488,10.878 5.333,11.724L5.333,5.333C5.333,3.505 6.838,2 8.667,2L13.333,2C13.701,2 14,2.299 14,2.667C14,3.035 13.701,3.333 13.333,3.333L8.667,3.333C7.569,3.333 6.667,4.236 6.667,5.333L6.667,11.724L8.862,9.529C9.122,9.268 9.545,9.268 9.805,9.529C10.065,9.789 10.065,10.211 9.805,10.471L6.471,13.805C6.346,13.93 6.177,14 6,14C5.823,14 5.654,13.93 5.529,13.805Z"/>
</svg>
