<svg xmlns="http://www.w3.org/2000/svg" width="16" height="16" viewBox="0 0 16 16" fill="currentColor">
    <path d="M11.724,10.667L5.333,10.667C3.505,10.667 2,9.162 2,7.333L2,2.667C2,2.299 2.299,2 2.667,2C3.035,2 3.333,2.299 3.333,2.667L3.333,7.333C3.333,8.431 4.236,9.333 5.333,9.333L11.724,9.333L9.529,7.138C9.268,6.878 9.268,6.455 9.529,6.195C9.789,5.935 10.211,5.935 10.471,6.195L13.805,9.529C13.93,9.654 14,9.823 14,10C14,10.177 13.93,10.346 13.805,10.471L10.471,13.805C10.211,14.065 9.789,14.065 9.529,13.805C9.268,13.545 9.268,13.122 9.529,12.862C9.529,12.862 10.878,11.512 11.724,10.667Z"/>
</svg>
