<svg xmlns="http://www.w3.org/2000/svg" width="16" height="16" viewBox="0 0 16 16" fill="currentColor">
    <path d="M5.333,4.276L3.138,6.471C2.878,6.732 2.455,6.732 2.195,6.471C1.935,6.211 1.935,5.789 2.195,5.529L5.529,2.195C5.654,2.07 5.823,2 6,2C6.177,2 6.346,2.07 6.471,2.195L9.805,5.529C10.065,5.789 10.065,6.211 9.805,6.471C9.545,6.732 9.122,6.732 8.862,6.471C8.862,6.471 7.512,5.122 6.667,4.276L6.667,10.667C6.667,11.764 7.569,12.667 8.667,12.667L13.333,12.667C13.701,12.667 14,12.965 14,13.333C14,13.701 13.701,14 13.333,14L8.667,14C6.838,14 5.333,12.495 5.333,10.667L5.333,4.276Z"/>
</svg>
