<svg xmlns="http://www.w3.org/2000/svg" width="16" height="16" viewBox="0 0 16 16" fill="currentColor">
    <path d="M2.195,6.471C2.07,6.346 2,6.177 2,6C2,5.823 2.07,5.654 2.195,5.529L5.529,2.195C5.789,1.935 6.211,1.935 6.471,2.195C6.732,2.455 6.732,2.878 6.471,3.138C6.471,3.138 5.122,4.488 4.276,5.333L10.667,5.333C12.495,5.333 14,6.838 14,8.667L14,13.333C14,13.701 13.701,14 13.333,14C12.965,14 12.667,13.701 12.667,13.333L12.667,8.667C12.667,7.569 11.764,6.667 10.667,6.667L4.276,6.667L6.471,8.862C6.732,9.122 6.732,9.545 6.471,9.805C6.211,10.065 5.789,10.065 5.529,9.805L2.195,6.471Z"/>
</svg>
