<svg xmlns="http://www.w3.org/2000/svg" width="16" height="16" viewBox="0 0 16 16" fill="currentColor">
    <path d="M12.17,4.2C12.17,4.2 12.17,4.19 12.15,4.19C11.37,3.83 10.55,3.58 9.71,3.43C9.69,3.43 9.68,3.43 9.67,3.45C9.56,3.65 9.46,3.86 9.37,4.07C8.46,3.93 7.54,3.93 6.63,4.07C6.54,3.86 6.44,3.65 6.32,3.45C6.32,3.44 6.3,3.43 6.28,3.43C5.44,3.58 4.61,3.83 3.84,4.19C3.84,4.19 3.83,4.19 3.82,4.2C2.26,6.52 1.84,8.79 2.05,11.03C2.05,11.04 2.05,11.05 2.07,11.06C2.98,11.73 3.99,12.24 5.07,12.57C5.09,12.57 5.1,12.57 5.11,12.56C5.34,12.25 5.55,11.91 5.72,11.56C5.72,11.54 5.72,11.52 5.7,11.51C5.38,11.39 5.06,11.24 4.76,11.06C4.74,11.05 4.74,11.02 4.75,11.01C4.81,10.96 4.88,10.91 4.94,10.87C4.95,10.87 4.97,10.86 4.98,10.87C6.94,11.77 9.07,11.77 11.01,10.87L11.05,10.87C11.11,10.92 11.17,10.97 11.24,11.02C11.26,11.03 11.26,11.06 11.24,11.07C10.94,11.24 10.63,11.39 10.3,11.51C10.28,11.51 10.27,11.54 10.28,11.56C10.46,11.91 10.66,12.24 10.89,12.56C10.89,12.57 10.92,12.58 10.93,12.57C12.01,12.24 13.03,11.73 13.93,11.06C13.93,11.06 13.95,11.04 13.95,11.03C14.2,8.44 13.53,6.2 12.17,4.2ZM6.01,9.67C5.42,9.67 4.93,9.13 4.93,8.46C4.93,7.79 5.41,7.25 6.01,7.25C6.61,7.25 7.1,7.8 7.09,8.46C7.09,9.13 6.61,9.67 6.01,9.67ZM10,9.67C9.41,9.67 8.92,9.13 8.92,8.46C8.92,7.79 9.4,7.25 10,7.25C10.6,7.25 11.09,7.8 11.08,8.46C11.08,9.13 10.61,9.67 10,9.67Z"/>
</svg>
