<svg xmlns="http://www.w3.org/2000/svg" width="16" height="16" viewBox="0 0 16 16" fill="currentColor">
    <path d="M12.63,3.78L12.64,3.78C14.15,6 14.9,8.49 14.62,11.37C14.62,11.38 14.6,11.4 14.6,11.4C13.6,12.15 12.47,12.71 11.27,13.08C11.26,13.09 11.23,13.08 11.23,13.07C10.97,12.72 10.75,12.35 10.55,11.96C10.54,11.93 10.55,11.9 10.57,11.9C10.93,11.77 11.28,11.6 11.61,11.41C11.63,11.39 11.63,11.36 11.61,11.35C11.53,11.29 11.47,11.24 11.4,11.18L11.36,11.18C9.2,12.18 6.84,12.18 4.66,11.18C4.65,11.17 4.63,11.18 4.62,11.18C4.55,11.23 4.48,11.28 4.41,11.34C4.4,11.36 4.4,11.39 4.42,11.4C4.75,11.6 5.1,11.77 5.46,11.9C5.48,11.92 5.48,11.94 5.48,11.96C5.29,12.35 5.06,12.73 4.8,13.07C4.79,13.08 4.78,13.08 4.76,13.08C3.56,12.71 2.44,12.14 1.43,11.4C1.41,11.39 1.41,11.38 1.41,11.37C1.18,8.88 1.65,6.36 3.38,3.78C3.39,3.77 3.4,3.77 3.4,3.77C4.25,3.37 5.18,3.1 6.11,2.93C6.13,2.93 6.15,2.94 6.15,2.95C6.28,3.17 6.39,3.41 6.49,3.64C7.5,3.48 8.52,3.48 9.53,3.64C9.63,3.41 9.74,3.17 9.86,2.95C9.87,2.93 9.88,2.93 9.9,2.93C10.83,3.09 11.74,3.37 12.61,3.77C12.63,3.77 12.63,3.78 12.63,3.78ZM5.79,9.86C6.46,9.86 6.99,9.26 6.99,8.52C7,7.79 6.46,7.18 5.79,7.18C5.12,7.18 4.59,7.78 4.59,8.52C4.59,9.26 5.13,9.86 5.79,9.86ZM10.22,9.86C10.9,9.86 11.42,9.26 11.42,8.52C11.43,7.79 10.89,7.18 10.22,7.18C9.55,7.18 9.02,7.78 9.02,8.52C9.02,9.26 9.56,9.86 10.22,9.86Z"/>
</svg>
