<svg xmlns="http://www.w3.org/2000/svg" width="16" height="16" viewBox="0 0 16 16" fill="currentColor">
    <path d="M7.529,14.471L4.862,11.805C4.602,11.545 4.602,11.122 4.862,10.862C5.122,10.602 5.545,10.602 5.805,10.862L7.333,12.391L7.333,8C7.333,7.632 7.632,7.333 8,7.333C8.368,7.333 8.667,7.632 8.667,8L8.667,12.391L10.195,10.862C10.455,10.602 10.878,10.602 11.138,10.862C11.398,11.122 11.398,11.545 11.138,11.805L8.471,14.471C8.346,14.597 8.177,14.667 8,14.667C7.823,14.667 7.654,14.597 7.529,14.471ZM14.303,12.605C14.003,12.817 13.586,12.744 13.375,12.443C13.163,12.143 13.236,11.726 13.537,11.515C14.246,11.016 14.669,10.201 14.669,9.333C14.669,7.87 13.465,6.667 12.003,6.667L11.16,6.667C10.856,6.667 10.59,6.461 10.514,6.166C9.986,4.109 8.118,2.659 5.994,2.659C3.434,2.659 1.327,4.766 1.327,7.326C1.327,8.465 1.744,9.565 2.499,10.418C2.743,10.694 2.717,11.115 2.442,11.359C2.166,11.603 1.745,11.577 1.501,11.302C0.53,10.205 -0.006,8.79 -0.006,7.326C-0.006,4.034 2.703,1.326 5.994,1.326C8.549,1.326 10.816,2.957 11.654,5.333L12.003,5.333C14.197,5.333 16.003,7.139 16.003,9.333C16.003,10.634 15.368,11.857 14.303,12.605Z"/>
</svg>
