<svg xmlns="http://www.w3.org/2000/svg" width="16" height="16" viewBox="0 0 16 16" fill="currentColor">
    <path d="M7.529,10.471L4.195,7.138C3.935,6.878 3.935,6.455 4.195,6.195C4.455,5.935 4.878,5.935 5.138,6.195C5.138,6.195 6.488,7.545 7.333,8.391L7.333,2C7.333,1.632 7.632,1.333 8,1.333C8.368,1.333 8.667,1.632 8.667,2L8.667,8.391L10.862,6.195C11.122,5.935 11.545,5.935 11.805,6.195C12.065,6.455 12.065,6.878 11.805,7.138L8.471,10.471C8.346,10.597 8.177,10.667 8,10.667C7.823,10.667 7.654,10.597 7.529,10.471ZM13.333,10C13.333,9.632 13.632,9.333 14,9.333C14.368,9.333 14.667,9.632 14.667,10L14.667,12.667C14.667,13.764 13.764,14.667 12.667,14.667L3.333,14.667C2.236,14.667 1.333,13.764 1.333,12.667L1.333,10C1.333,9.632 1.632,9.333 2,9.333C2.368,9.333 2.667,9.632 2.667,10L2.667,12.667C2.667,13.032 2.968,13.333 3.333,13.333L12.667,13.333C13.032,13.333 13.333,13.032 13.333,12.667L13.333,10Z"/>
</svg>
