<svg xmlns="http://www.w3.org/2000/svg" width="16" height="16" viewBox="0 0 16 16" fill="currentColor">
    <path d="M8,0.67C12.05,0.67 15.33,3.96 15.33,8C15.33,12.04 12.04,15.33 8,15.33C3.96,15.33 0.67,12.05 0.67,8C0.67,3.95 3.95,0.67 8,0.67ZM12.855,4.066C12.697,4.26 11.644,5.6 9.36,6.53C9.58,6.98 9.74,7.34 9.91,7.76C12,7.5 14.06,7.91 14.27,7.96C14.26,6.483 13.722,5.125 12.855,4.066ZM1.74,8L1.74,8.02C1.745,9.622 2.354,11.085 3.35,12.19C4.36,10.46 6.43,8.63 8.69,7.99C8.53,7.64 8.36,7.28 8.18,6.93C5.05,7.87 2.01,7.82 1.74,7.82L1.74,8ZM11.51,13.223C12.915,12.273 13.911,10.766 14.19,9.03C13.98,8.96 12.26,8.44 10.29,8.76C11.12,11.01 11.45,12.84 11.51,13.22L11.51,13.223ZM4.16,12.96L4.16,12.97L4.15,12.97C6,14.41 8.42,14.65 10.44,13.79C10.36,13.24 9.99,11.33 9.11,9.04C6.59,9.89 4.81,11.63 4.16,12.96ZM5.33,2.35L5.33,2.34C3.58,3.17 2.26,4.79 1.86,6.73C2.14,6.74 4.72,6.75 7.65,5.97C6.61,4.12 5.5,2.58 5.33,2.35ZM12.15,3.34C10.61,1.97 8.52,1.45 6.53,1.93C6.7,2.17 7.83,3.72 8.86,5.6C11.1,4.77 12.04,3.5 12.15,3.34Z"/>
</svg>
