<svg xmlns="http://www.w3.org/2000/svg" width="16" height="16" viewBox="0 0 16 16" fill="currentColor">
    <path d="M8,2C4.69,2 2,4.69 2,8C2,11.31 4.69,14 8,14C11.31,14 14,11.31 14,8C14,4.69 11.31,2 8,2ZM11.97,4.77C12.68,5.64 13.12,6.75 13.13,7.96C12.96,7.92 11.27,7.58 9.56,7.8C9.42,7.46 9.29,7.16 9.11,6.79C11,6.02 11.86,4.91 11.97,4.77ZM11.4,4.18C11.31,4.31 10.54,5.35 8.71,6.03C7.87,4.49 6.94,3.22 6.8,3.03C8.43,2.64 10.14,3.06 11.4,4.18ZM5.82,3.37C5.96,3.56 6.87,4.82 7.72,6.33C5.32,6.97 3.21,6.96 2.98,6.95C3.31,5.36 4.39,4.04 5.82,3.36L5.82,3.37ZM2.88,8.01L2.88,7.85C3.1,7.85 5.59,7.89 8.15,7.12C8.3,7.41 8.44,7.7 8.57,7.99C6.72,8.51 5.03,10.01 4.2,11.43C3.38,10.52 2.88,9.32 2.88,8L2.88,8.01ZM4.86,12.05C5.39,10.96 6.85,9.54 8.91,8.84C9.63,10.71 9.93,12.28 10,12.73C8.35,13.43 6.37,13.24 4.85,12.06L4.86,12.05ZM10.87,12.26C10.82,11.95 10.55,10.45 9.87,8.61C11.48,8.35 12.89,8.77 13.06,8.83C12.83,10.25 12.01,11.49 10.86,12.27L10.87,12.26Z"/>
</svg>
