<svg xmlns="http://www.w3.org/2000/svg" width="16" height="16" viewBox="0 0 16 16" fill="currentColor">
    <path d="M7.333,2C7.701,2 8,2.299 8,2.667C8,3.035 7.701,3.333 7.333,3.333L2.667,3.333C2.301,3.333 2,3.634 2,4L2,13.333C2,13.699 2.301,14 2.667,14L12,14C12.366,14 12.667,13.699 12.667,13.333L12.667,8.667C12.667,8.299 12.965,8 13.333,8C13.701,8 14,8.299 14,8.667L14,13.333C14,14.431 13.097,15.333 12,15.333L2.667,15.333C1.569,15.333 0.667,14.431 0.667,13.333L0.667,4C0.667,2.903 1.569,2 2.667,2L7.333,2ZM11.862,1.195C12.252,0.805 12.782,0.586 13.333,0.586C14.475,0.586 15.414,1.525 15.414,2.667C15.414,3.218 15.195,3.748 14.805,4.138L8.471,10.471C8.386,10.557 8.279,10.617 8.162,10.647L5.495,11.313C5.268,11.37 5.028,11.304 4.862,11.138C4.696,10.972 4.63,10.732 4.687,10.505L5.353,7.838C5.383,7.721 5.443,7.614 5.529,7.529L11.862,1.195ZM12.805,2.138L6.602,8.341L6.25,9.75L7.659,9.398L13.862,3.195C14.002,3.055 14.081,2.865 14.081,2.667C14.081,2.257 13.743,1.919 13.333,1.919C13.135,1.919 12.945,1.998 12.805,2.138Z"/>
</svg>
