<svg xmlns="http://www.w3.org/2000/svg" width="16" height="16" viewBox="0 0 16 16" fill="currentColor">
    <path d="M13.333,3.609L7.138,9.805C6.878,10.065 6.455,10.065 6.195,9.805C5.935,9.545 5.935,9.122 6.195,8.862L12.391,2.667L10,2.667C9.632,2.667 9.333,2.368 9.333,2C9.333,1.632 9.632,1.333 10,1.333L14,1.333C14.177,1.333 14.346,1.403 14.471,1.529C14.597,1.654 14.667,1.823 14.667,2L14.667,6C14.667,6.368 14.368,6.667 14,6.667C13.632,6.667 13.333,6.368 13.333,6L13.333,3.609ZM11.333,8.667C11.333,8.299 11.632,8 12,8C12.368,8 12.667,8.299 12.667,8.667L12.667,12.667C12.667,13.764 11.764,14.667 10.667,14.667L3.333,14.667C2.236,14.667 1.333,13.764 1.333,12.667L1.333,5.333C1.333,4.236 2.236,3.333 3.333,3.333L7.333,3.333C7.701,3.333 8,3.632 8,4C8,4.368 7.701,4.667 7.333,4.667L3.333,4.667C2.968,4.667 2.667,4.968 2.667,5.333L2.667,12.667C2.667,13.032 2.968,13.333 3.333,13.333L10.667,13.333C11.032,13.333 11.333,13.032 11.333,12.667L11.333,8.667Z"/>
</svg>
