<svg xmlns="http://www.w3.org/2000/svg" width="16" height="16" viewBox="0 0 16 16" fill="currentColor">
    <path d="M11.884,12.827C10.731,13.569 9.39,13.977 8.011,14C8.007,14 8.004,14 8,14C5.958,14 4.261,13.08 2.967,11.96C1.085,10.333 0.07,8.298 0.07,8.298C-0.026,8.104 -0.023,7.876 0.079,7.685C0.834,6.279 1.84,5.026 3.046,3.988L0.195,1.138C-0.065,0.878 -0.065,0.455 0.195,0.195C0.455,-0.065 0.878,-0.065 1.138,0.195C1.138,0.195 4.515,3.572 4.522,3.579L7.041,6.098C7.052,6.109 7.063,6.121 7.075,6.132L9.868,8.925C9.879,8.937 9.891,8.948 9.902,8.959C9.902,8.959 12.435,11.492 12.442,11.499L15.805,14.862C16.065,15.122 16.065,15.545 15.805,15.805C15.545,16.065 15.122,16.065 14.862,15.805L11.884,12.827ZM3.991,4.934C2.967,5.801 2.099,6.839 1.428,8.003C1.76,8.576 2.583,9.866 3.839,10.952C4.911,11.879 6.305,12.665 7.999,12.667C9.028,12.648 10.03,12.367 10.914,11.857L9.366,10.309C8.946,10.573 8.455,10.717 7.95,10.717C6.487,10.717 5.283,9.513 5.283,8.05C5.283,7.545 5.427,7.054 5.691,6.634L3.991,4.934ZM8.372,9.315L6.685,7.628C6.64,7.763 6.617,7.905 6.617,8.05C6.617,8.781 7.219,9.383 7.95,9.383C8.095,9.383 8.237,9.36 8.372,9.315ZM6.752,3.476C6.394,3.56 6.035,3.337 5.951,2.979C5.867,2.62 6.09,2.261 6.448,2.178C6.957,2.058 7.478,1.999 8.001,2C10.042,2 11.739,2.92 13.033,4.04C14.915,5.667 15.93,7.702 15.93,7.702C16.026,7.895 16.023,8.124 15.921,8.314C15.495,9.112 14.986,9.864 14.403,10.556C14.167,10.837 13.746,10.874 13.464,10.637C13.183,10.4 13.146,9.979 13.383,9.697C13.829,9.167 14.227,8.599 14.572,7.998C14.241,7.424 13.417,6.135 12.161,5.048C11.088,4.12 9.692,3.333 8,3.333L7.998,3.333C7.579,3.332 7.161,3.38 6.752,3.476Z"/>
</svg>
