<svg xmlns="http://www.w3.org/2000/svg" width="16" height="16" viewBox="0 0 16 16" fill="currentColor">
    <path d="M0.07,7.702C0.07,7.702 1.085,5.667 2.967,4.04C4.261,2.92 5.958,2 8,2C10.042,2 11.739,2.92 13.033,4.04C14.915,5.667 15.93,7.702 15.93,7.702C16.023,7.89 16.023,8.11 15.93,8.298C15.93,8.298 14.915,10.333 13.033,11.96C11.739,13.08 10.042,14 8,14C5.958,14 4.261,13.08 2.967,11.96C1.085,10.333 0.07,8.298 0.07,8.298C-0.023,8.11 -0.023,7.89 0.07,7.702ZM1.427,8C1.757,8.572 2.581,9.864 3.839,10.952C4.912,11.88 6.308,12.667 8,12.667C9.692,12.667 11.088,11.88 12.161,10.952C13.419,9.864 14.243,8.573 14.573,8C14.243,7.427 13.419,6.136 12.161,5.048C11.088,4.12 9.692,3.333 8,3.333C6.308,3.333 4.912,4.12 3.839,5.048C2.581,6.136 1.757,7.428 1.427,8ZM8,5.333C9.472,5.333 10.667,6.528 10.667,8C10.667,9.472 9.472,10.667 8,10.667C6.528,10.667 5.333,9.472 5.333,8C5.333,6.528 6.528,5.333 8,5.333ZM8,6.667C7.264,6.667 6.667,7.264 6.667,8C6.667,8.736 7.264,9.333 8,9.333C8.736,9.333 9.333,8.736 9.333,8C9.333,7.264 8.736,6.667 8,6.667Z"/>
</svg>
