<svg xmlns="http://www.w3.org/2000/svg" width="16" height="16" viewBox="0 0 16 16" fill="currentColor">
    <path d="M15.36,8.02L15.37,8.02C15.37,11.78 12.55,14.89 8.9,15.33L8.9,10.27L10.89,10.27L11.31,8.02L8.9,8.02L8.9,7.22C8.9,6.03 9.37,5.58 10.57,5.58C10.94,5.58 11.25,5.59 11.42,5.6L11.42,3.56C11.09,3.47 10.28,3.38 9.81,3.38C7.34,3.38 6.21,4.55 6.21,7.05L6.21,8.02L4.69,8.02L4.69,10.27L6.21,10.27L6.21,15.17C3.01,14.38 0.63,11.48 0.63,8.03C0.63,3.97 3.92,0.67 7.99,0.67C12.057,0.67 15.355,3.965 15.36,8.02Z"/>
</svg>
