<svg xmlns="http://www.w3.org/2000/svg" width="16" height="16" viewBox="0 0 16 16" fill="currentColor">
    <path d="M14,6L14,13.333C14,14.431 13.097,15.333 12,15.333L4,15.333C2.903,15.333 2,14.431 2,13.333L2,2.667C2,1.569 2.903,0.667 4,0.667L8.667,0.667C8.847,0.667 9.015,0.739 9.138,0.862L13.805,5.529C13.928,5.651 14,5.82 14,6ZM8,2L4,2C3.634,2 3.333,2.301 3.333,2.667L3.333,13.333C3.333,13.699 3.634,14 4,14L12,14C12.366,14 12.667,13.699 12.667,13.333L12.667,6.667L8.667,6.667C8.298,6.667 8,6.368 8,6L8,2ZM11.724,5.333L9.333,2.943C9.333,4.054 9.333,5.333 9.333,5.333L11.724,5.333Z"/>
</svg>
