<svg xmlns="http://www.w3.org/2000/svg" width="16" height="16" viewBox="0 0 16 16" fill="currentColor">
    <path d="M15.176,2.43L10,8.551L10,14C10,14.231 9.88,14.446 9.684,14.567C9.487,14.689 9.242,14.7 9.035,14.596L6.369,13.263C6.143,13.15 6,12.919 6,12.667L6,8.551L0.824,2.43C0.657,2.232 0.619,1.955 0.729,1.719C0.838,1.484 1.074,1.333 1.333,1.333L14.667,1.333C14.926,1.333 15.162,1.484 15.271,1.719C15.381,1.955 15.343,2.232 15.176,2.43ZM13.23,2.667C13.23,2.667 2.77,2.667 2.77,2.667L7.176,7.876C7.277,7.997 7.333,8.149 7.333,8.307C7.333,8.307 7.333,12.255 7.333,12.255C7.333,12.255 8.667,12.921 8.667,12.921L8.667,8.307C8.667,8.149 8.723,7.997 8.824,7.876L13.23,2.667Z"/>
</svg>
