<svg xmlns="http://www.w3.org/2000/svg" width="16" height="16" viewBox="0 0 16 16" fill="currentColor">
    <path d="M2,14.667L2,2C2,1.823 2.07,1.654 2.195,1.529C2.195,1.529 2.965,0.667 5.333,0.667C6.425,0.667 7.338,1.017 8.248,1.381C9.005,1.684 9.758,2 10.667,2C12.163,2 12.879,1.512 12.879,1.512C12.998,1.401 13.158,1.333 13.333,1.333C13.701,1.333 14,1.632 14,2L14,10C14,10.177 13.93,10.346 13.805,10.471C13.805,10.471 13.035,11.333 10.667,11.333C9.575,11.333 8.662,10.983 7.752,10.619C6.995,10.316 6.242,10 5.333,10C4.305,10 3.645,10.23 3.333,10.374L3.333,14.667C3.333,15.035 3.035,15.333 2.667,15.333C2.299,15.333 2,15.035 2,14.667ZM3.333,2.374L3.333,8.929C3.813,8.782 4.466,8.667 5.333,8.667C6.425,8.667 7.338,9.017 8.248,9.381C9.005,9.684 9.758,10 10.667,10C11.695,10 12.355,9.77 12.667,9.626C12.667,8.184 12.667,3.071 12.666,3.071C12.187,3.218 11.534,3.333 10.667,3.333C9.575,3.333 8.662,2.983 7.752,2.619C6.995,2.316 6.242,2 5.333,2C4.305,2 3.645,2.23 3.333,2.374Z"/>
</svg>
