<svg xmlns="http://www.w3.org/2000/svg" width="16" height="16" viewBox="0 0 16 16" fill="currentColor">
    <path d="M15.333,12.667C15.333,13.764 14.431,14.667 13.333,14.667L2.667,14.667C1.569,14.667 0.667,13.764 0.667,12.667L0.667,3.333C0.667,2.236 1.569,1.333 2.667,1.333L6,1.333C6.223,1.333 6.431,1.445 6.555,1.63C6.555,1.63 7.69,3.333 7.69,3.333L13.333,3.333C14.431,3.333 15.333,4.236 15.333,5.333L15.333,12.667ZM14,12.667L14,5.333C14,4.968 13.699,4.667 13.333,4.667L7.333,4.667C7.11,4.667 6.902,4.555 6.779,4.37L5.643,2.667L2.667,2.667C2.301,2.667 2,2.968 2,3.333L2,12.667C2,13.032 2.301,13.333 2.667,13.333L13.333,13.333C13.699,13.333 14,13.032 14,12.667Z"/>
</svg>
