<svg xmlns="http://www.w3.org/2000/svg" width="16" height="16" viewBox="0 0 16 16" fill="currentColor">
    <path d="M2,8.667L1.333,8.667C0.965,8.667 0.667,8.368 0.667,8L0.667,4.667C0.667,4.298 0.965,4 1.333,4L2.894,4C2.749,3.696 2.667,3.357 2.667,3C2.667,1.72 3.72,0.667 5,0.667C6.171,0.667 7.021,1.312 7.604,2.115C7.754,2.323 7.886,2.541 8,2.757C8.114,2.541 8.246,2.323 8.396,2.115C8.979,1.312 9.829,0.667 11,0.667C12.28,0.667 13.333,1.72 13.333,3C13.333,3.357 13.251,3.696 13.106,4L14.667,4C15.035,4 15.333,4.298 15.333,4.667L15.333,8C15.333,8.368 15.035,8.667 14.667,8.667L14,8.667L14,14.667C14,15.035 13.702,15.333 13.333,15.333L2.667,15.333C2.298,15.333 2,15.035 2,14.667L2,8.667ZM7.333,5.333L2,5.333L2,7.333L7.333,7.333L7.333,5.333ZM7.105,4C6.975,3.66 6.787,3.26 6.524,2.898C6.179,2.421 5.695,2 5,2C4.451,2 4,2.451 4,3C4,3.549 4.451,4 5,4L7.105,4ZM11,4C11.549,4 12,3.549 12,3C12,2.451 11.549,2 11,2C10.305,2 9.821,2.421 9.476,2.898C9.213,3.26 9.025,3.66 8.895,4L11,4ZM8.667,7.333L14,7.333L14,5.333L11,5.333L8.667,5.333L8.667,7.333ZM8.667,14L12.667,14L12.667,8.667L8.667,8.667L8.667,14ZM3.333,8.667L3.333,14L7.333,14L7.333,8.667L3.333,8.667Z"/>
</svg>
