<svg xmlns="http://www.w3.org/2000/svg" width="16" height="16" viewBox="0 0 16 16" fill="currentColor">
    <path d="M7.92,2.15C4.56,2.15 2,4.7 2,8.05C2,10.73 3.69,13.03 6.1,13.84C6.41,13.9 6.52,13.7 6.52,13.55L6.52,12.06C6.52,12.06 4.83,12.42 4.47,11.34C4.47,11.34 4.19,10.64 3.8,10.45C3.8,10.45 3.25,10.07 3.84,10.08C3.84,10.08 4.44,10.13 4.77,10.7C5.3,11.63 6.19,11.37 6.53,11.21C6.59,10.82 6.74,10.55 6.92,10.39C5.57,10.24 4.2,10.04 4.2,7.72C4.2,7.05 4.38,6.72 4.77,6.3C4.71,6.14 4.5,5.49 4.83,4.66C5.34,4.5 6.5,5.31 6.5,5.31C6.98,5.17 7.5,5.1 8.02,5.1C8.54,5.1 9.06,5.17 9.54,5.31C9.54,5.31 10.7,4.5 11.21,4.66C11.54,5.5 11.34,6.15 11.27,6.3C11.66,6.73 11.89,7.06 11.89,7.72C11.89,10.05 10.47,10.24 9.11,10.39C9.33,10.58 9.52,10.94 9.52,11.51L9.52,13.53C9.52,13.69 9.63,13.88 9.94,13.82C12.36,13.02 14,10.72 14,8.04C14,4.68 11.28,2.14 7.92,2.14L7.92,2.15Z"/>
</svg>
