<svg xmlns="http://www.w3.org/2000/svg" width="16" height="16" viewBox="0 0 16 16" fill="currentColor">
    <path d="M7.9,0.86C3.8,0.86 0.67,3.97 0.67,8.07C0.67,11.35 2.74,14.16 5.68,15.15C6.06,15.22 6.19,14.98 6.19,14.8L6.19,12.98C6.19,12.98 4.12,13.42 3.68,12.1C3.68,12.1 3.34,11.24 2.86,11.01C2.86,11.01 2.19,10.55 2.91,10.56C2.91,10.56 3.64,10.62 4.05,11.32C4.7,12.46 5.79,12.14 6.2,11.94C6.27,11.46 6.46,11.13 6.68,10.94C5.03,10.76 3.36,10.51 3.36,7.68C3.36,6.86 3.58,6.46 4.06,5.94C3.99,5.74 3.73,4.95 4.13,3.94C4.75,3.74 6.17,4.73 6.17,4.73C6.76,4.56 7.39,4.47 8.03,4.47C8.67,4.47 9.3,4.56 9.89,4.73C9.89,4.73 11.31,3.74 11.93,3.94C12.33,4.97 12.09,5.76 12,5.94C12.48,6.47 12.76,6.87 12.76,7.68C12.76,10.53 11.02,10.76 9.36,10.94C9.63,11.17 9.86,11.61 9.86,12.31L9.86,14.78C9.86,14.98 9.99,15.21 10.37,15.13C13.33,14.15 15.33,11.34 15.33,8.07C15.33,3.95 12.01,0.84 7.9,0.84L7.9,0.86Z"/>
</svg>
