<svg xmlns="http://www.w3.org/2000/svg" width="16" height="16" viewBox="0 0 16 16" fill="currentColor">
    <path d="M7.333,2L7.333,6.667C7.333,7.035 7.035,7.333 6.667,7.333L2,7.333C1.632,7.333 1.333,7.035 1.333,6.667L1.333,2C1.333,1.632 1.632,1.333 2,1.333L6.667,1.333C7.035,1.333 7.333,1.632 7.333,2ZM6,2.667C6,2.667 2.667,2.667 2.667,2.667C2.667,2.667 2.667,6 2.667,6C2.667,6 6,6 6,6L6,2.667ZM14.667,2L14.667,6.667C14.667,7.035 14.368,7.333 14,7.333L9.333,7.333C8.965,7.333 8.667,7.035 8.667,6.667L8.667,2C8.667,1.632 8.965,1.333 9.333,1.333L14,1.333C14.368,1.333 14.667,1.632 14.667,2ZM13.333,2.667C13.333,2.667 10,2.667 10,2.667C10,2.667 10,6 10,6C10,6 13.333,6 13.333,6L13.333,2.667ZM14.667,9.333L14.667,14C14.667,14.368 14.368,14.667 14,14.667L9.333,14.667C8.965,14.667 8.667,14.368 8.667,14L8.667,9.333C8.667,8.965 8.965,8.667 9.333,8.667L14,8.667C14.368,8.667 14.667,8.965 14.667,9.333ZM13.333,10C13.333,10 10,10 10,10C10,10 10,13.333 10,13.333C10,13.333 13.333,13.333 13.333,13.333L13.333,10ZM7.333,9.333L7.333,14C7.333,14.368 7.035,14.667 6.667,14.667L2,14.667C1.632,14.667 1.333,14.368 1.333,14L1.333,9.333C1.333,8.965 1.632,8.667 2,8.667L6.667,8.667C7.035,8.667 7.333,8.965 7.333,9.333ZM6,10C6,10 2.667,10 2.667,10C2.667,10 2.667,13.333 2.667,13.333C2.667,13.333 6,13.333 6,13.333L6,10Z"/>
</svg>
