<svg xmlns="http://www.w3.org/2000/svg" width="16" height="16" viewBox="0 0 16 16" fill="currentColor">
    <path d="M14.365,2.602C15.177,3.414 15.635,4.518 15.635,5.667C15.635,6.816 15.177,7.919 14.365,8.731L8.471,14.625C8.211,14.885 7.789,14.885 7.529,14.625L1.635,8.731C0.823,7.919 0.366,6.816 0.366,5.667C0.366,3.289 2.322,1.332 4.7,1.332C5.849,1.332 6.952,1.789 7.765,2.602L8,2.837L8.235,2.602C9.048,1.789 10.151,1.332 11.3,1.332C12.449,1.332 13.552,1.789 14.365,2.602ZM13.422,3.545C12.859,2.982 12.096,2.665 11.3,2.665C10.504,2.665 9.741,2.982 9.178,3.545L8.471,4.251C8.211,4.512 7.789,4.512 7.529,4.251L6.822,3.545C6.259,2.982 5.496,2.666 4.7,2.666C3.054,2.666 1.699,4.02 1.699,5.667C1.699,6.462 2.016,7.226 2.578,7.789L8,13.211L13.422,7.788C13.985,7.226 14.301,6.462 14.301,5.667C14.301,4.871 13.985,4.107 13.422,3.545Z"/>
</svg>
