<svg xmlns="http://www.w3.org/2000/svg" width="16" height="16" viewBox="0 0 16 16" fill="currentColor">
    <path d="M8,0.667C12.047,0.667 15.333,3.953 15.333,8C15.333,12.047 12.047,15.333 8,15.333C3.953,15.333 0.667,12.047 0.667,8C0.667,3.953 3.953,0.667 8,0.667ZM8,2C4.689,2 2,4.689 2,8C2,11.311 4.689,14 8,14C11.311,14 14,11.311 14,8C14,4.689 11.311,2 8,2ZM6.689,6.221C6.567,6.568 6.186,6.751 5.839,6.629C5.492,6.507 5.309,6.126 5.431,5.779C5.806,4.714 6.818,3.997 7.947,3.997C9.41,3.997 10.613,5.201 10.613,6.664L10.613,6.667C10.613,7.406 10.202,8.015 9.669,8.459C8.997,9.019 8.157,9.299 8.157,9.299C7.808,9.415 7.431,9.227 7.314,8.877C7.198,8.528 7.387,8.151 7.736,8.034C7.736,8.034 8.336,7.834 8.816,7.435C9.052,7.238 9.28,6.994 9.28,6.667L9.28,6.664C9.28,5.932 8.678,5.33 7.947,5.33C7.382,5.33 6.876,5.689 6.689,6.221ZM8,10.667C8.368,10.667 8.667,10.965 8.667,11.333C8.667,11.701 8.368,12 8,12C7.632,12 7.333,11.701 7.333,11.333C7.333,10.965 7.632,10.667 8,10.667Z"/>
</svg>
