<svg xmlns="http://www.w3.org/2000/svg" width="16" height="16" viewBox="0 0 16 16" fill="currentColor">
    <path d="M1.589,5.475L7.589,0.775C7.83,0.586 8.17,0.586 8.411,0.775L14.411,5.475C14.572,5.602 14.667,5.795 14.667,6L14.667,13.3C14.667,14.359 13.759,15.267 12.7,15.267L3.3,15.267C2.241,15.267 1.333,14.359 1.333,13.3L1.333,6C1.333,5.795 1.428,5.602 1.589,5.475ZM2.667,6.325L2.667,13.3C2.667,13.641 2.959,13.933 3.3,13.933L12.7,13.933C13.041,13.933 13.333,13.641 13.333,13.3L13.333,6.325L8,2.147L2.667,6.325Z"/>
</svg>
