<svg xmlns="http://www.w3.org/2000/svg" width="16" height="16" viewBox="0 0 16 16" fill="currentColor">
    <path d="M12.667,15.333L3.333,15.333C2.236,15.333 1.333,14.431 1.333,13.333L1.333,6C1.333,5.794 1.428,5.6 1.591,5.474L7.591,0.807C7.831,0.62 8.169,0.62 8.409,0.807L14.409,5.474C14.572,5.6 14.667,5.794 14.667,6L14.667,13.333C14.667,14.431 13.764,15.333 12.667,15.333ZM10.667,14L12.667,14C13.032,14 13.333,13.699 13.333,13.333L13.333,6.326C13.333,6.326 8,2.178 8,2.178L2.667,6.326L2.667,13.333C2.667,13.699 2.968,14 3.333,14L5.333,14L5.333,8C5.333,7.632 5.632,7.333 6,7.333L10,7.333C10.368,7.333 10.667,7.632 10.667,8L10.667,14ZM6.667,14L9.333,14C9.333,12.437 9.333,8.667 9.333,8.667L6.667,8.667L6.667,14Z"/>
</svg>
