<svg xmlns="http://www.w3.org/2000/svg" width="16" height="16" viewBox="0 0 16 16" fill="currentColor">
    <path d="M3.333,14.667C2.23,14.667 1.333,13.77 1.333,12.667L1.333,3.333C1.333,2.23 2.23,1.333 3.333,1.333L12.667,1.333C13.77,1.333 14.667,2.23 14.667,3.333L14.667,12.667C14.667,13.77 13.77,14.667 12.667,14.667L3.333,14.667ZM4.943,13.333L12.667,13.333C13.035,13.333 13.333,13.035 13.333,12.667L13.333,10.276C12.688,9.631 10.667,7.609 10.667,7.609L4.943,13.333ZM13.333,8.391L13.333,3.333C13.333,2.965 13.035,2.667 12.667,2.667L3.333,2.667C2.965,2.667 2.667,2.965 2.667,3.333L2.667,12.667C2.667,12.952 2.847,13.196 3.099,13.291L10.195,6.195C10.456,5.935 10.878,5.935 11.138,6.195L13.333,8.391ZM5.667,4C6.587,4 7.333,4.747 7.333,5.667C7.333,6.587 6.587,7.333 5.667,7.333C4.747,7.333 4,6.587 4,5.667C4,4.747 4.747,4 5.667,4ZM5.667,5.333C5.483,5.333 5.333,5.483 5.333,5.667C5.333,5.851 5.483,6 5.667,6C5.851,6 6,5.851 6,5.667C6,5.483 5.851,5.333 5.667,5.333Z"/>
</svg>
