<svg xmlns="http://www.w3.org/2000/svg" width="16" height="16" viewBox="0 0 16 16" fill="currentColor">
    <path d="M14.62,5.24C14.69,6.34 14.69,9.64 14.62,10.74C14.56,11.81 14.32,12.75 13.54,13.53C12.76,14.31 11.82,14.55 10.75,14.61C9.65,14.68 6.35,14.68 5.25,14.61C4.18,14.55 3.24,14.31 2.46,13.53C1.68,12.75 1.44,11.81 1.38,10.74C1.31,9.64 1.31,6.34 1.38,5.24C1.44,4.17 1.68,3.23 2.46,2.45C3.24,1.67 4.18,1.43 5.25,1.37C6.35,1.3 9.65,1.3 10.75,1.37C11.82,1.43 12.76,1.67 13.54,2.45C14.32,3.23 14.56,4.17 14.62,5.24ZM13.2,11.92C13.55,11.05 13.47,8.96 13.47,7.99C13.47,7.02 13.54,4.94 13.2,4.06C12.96,3.47 12.51,3.02 11.93,2.79C11.06,2.44 8.97,2.52 8,2.52C7.03,2.52 4.95,2.45 4.07,2.79C3.48,3.03 3.03,3.48 2.8,4.06C2.45,4.93 2.53,7.02 2.53,7.99C2.53,8.96 2.46,11.04 2.8,11.92C3.04,12.51 3.49,12.96 4.07,13.19C4.94,13.54 7.03,13.46 8,13.46C8.97,13.46 11.05,13.53 11.93,13.19C12.52,12.95 12.97,12.5 13.2,11.92ZM7.99,4.57C9.89,4.57 11.41,6.09 11.41,7.99C11.41,9.89 9.89,11.41 7.99,11.41C6.09,11.41 4.57,9.89 4.57,7.99C4.57,6.09 6.1,4.57 7.99,4.57ZM7.99,10.21C9.21,10.21 10.21,9.21 10.21,7.99C10.21,6.77 9.21,5.77 7.99,5.77C6.77,5.77 5.77,6.77 5.77,7.99C5.77,9.21 6.77,10.21 7.99,10.21ZM12.35,4.43C12.35,4.87 11.99,5.23 11.55,5.23C11.11,5.23 10.75,4.87 10.75,4.43C10.75,3.99 11.11,3.63 11.55,3.63C11.99,3.63 12.35,3.99 12.35,4.43Z"/>
</svg>
