<svg xmlns="http://www.w3.org/2000/svg" width="16" height="16" viewBox="0 0 16 16" fill="currentColor">
    <path d="M8,4.92C6.3,4.92 4.92,6.29 4.92,8C4.92,9.71 6.29,11.08 8,11.08C9.71,11.08 11.08,9.71 11.08,8C11.08,6.29 9.71,4.92 8,4.92ZM8,10C6.9,10 6,9.1 6,8C6,6.9 6.9,6 8,6C9.1,6 10,6.9 10,8C10,9.1 9.1,10 8,10ZM11.92,4.8C11.92,5.2 11.6,5.52 11.2,5.52C10.8,5.52 10.48,5.2 10.48,4.8C10.48,4.4 10.8,4.08 11.2,4.08C11.6,4.08 11.92,4.4 11.92,4.8ZM13.96,5.53C13.91,4.57 13.69,3.72 12.99,3.02C12.29,2.32 11.44,2.1 10.48,2.05C9.49,1.99 6.52,1.99 5.53,2.05C4.57,2.1 3.72,2.32 3.02,3.02C2.32,3.72 2.1,4.57 2.05,5.53C1.99,6.52 1.99,9.49 2.05,10.48C2.1,11.44 2.32,12.29 3.02,12.99C3.72,13.69 4.57,13.91 5.53,13.96C6.52,14.02 9.49,14.02 10.48,13.96C11.44,13.91 12.29,13.69 12.99,12.99C13.69,12.29 13.91,11.44 13.96,10.48C14.02,9.49 14.02,6.52 13.96,5.53ZM12.68,11.54C12.47,12.06 12.07,12.47 11.54,12.68C10.75,12.99 8.88,12.92 8,12.92C7.12,12.92 5.25,12.99 4.46,12.68C3.94,12.47 3.53,12.07 3.32,11.54C3.01,10.75 3.08,8.88 3.08,8C3.08,7.12 3.01,5.25 3.32,4.46C3.53,3.94 3.93,3.53 4.46,3.32C5.25,3.01 7.12,3.08 8,3.08C8.88,3.08 10.75,3.01 11.54,3.32C12.06,3.53 12.47,3.93 12.68,4.46C12.99,5.25 12.92,7.12 12.92,8C12.92,8.88 12.99,10.75 12.68,11.54Z"/>
</svg>
