<svg xmlns="http://www.w3.org/2000/svg" width="16" height="16" viewBox="0 0 16 16" fill="currentColor">
    <path d="M7.549,6.841L13.529,0.862C13.789,0.602 14.211,0.602 14.471,0.862C14.732,1.122 14.732,1.545 14.471,1.805L13.609,2.667L15.138,4.195C15.398,4.456 15.398,4.878 15.138,5.138L12.805,7.471C12.544,7.732 12.122,7.732 11.862,7.471L10.333,5.943L8.502,7.774C9.05,8.515 9.351,9.417 9.351,10.35C9.351,12.727 7.395,14.683 5.018,14.683C3.859,14.683 2.747,14.218 1.933,13.394C1.932,13.392 1.93,13.39 1.928,13.388C1.148,12.581 0.712,11.501 0.712,10.378C0.712,8.001 2.668,6.045 5.045,6.045C5.947,6.045 6.822,6.326 7.549,6.841ZM7.13,8.22L7.125,8.215C6.566,7.678 5.82,7.378 5.045,7.378C3.4,7.378 2.045,8.732 2.045,10.378C2.045,11.154 2.347,11.901 2.885,12.46C3.448,13.029 4.217,13.35 5.018,13.35C6.664,13.35 8.018,11.996 8.018,10.35C8.018,9.55 7.698,8.783 7.13,8.22ZM12.667,3.609L11.276,5L12.333,6.057L13.724,4.667L12.667,3.609Z"/>
</svg>
