<svg xmlns="http://www.w3.org/2000/svg" width="16" height="16" viewBox="0 0 16 16" fill="currentColor">
    <path d="M13.7,1.33L13.71,1.33C14.226,1.336 14.65,1.773 14.65,2.3L14.65,13.7C14.65,14.24 14.22,14.67 13.7,14.67L2.28,14.67C1.76,14.67 1.34,14.23 1.34,13.7L1.34,2.3C1.34,1.76 1.76,1.33 2.28,1.33L13.7,1.33ZM5.36,12.76L5.36,6.4L3.38,6.4L3.38,12.76L5.36,12.76ZM12.76,12.76L12.75,12.75L12.74,12.75L12.74,9.26C12.74,7.55 12.38,6.23 10.38,6.23C9.42,6.23 8.78,6.75 8.51,7.25L8.49,7.25L8.49,6.38L6.59,6.38L6.59,12.74L8.57,12.74L8.57,9.6C8.57,8.77 8.75,7.97 9.76,7.97C10.77,7.97 10.78,8.93 10.78,9.66L10.78,12.76L12.76,12.76ZM4.37,5.53C5,5.53 5.51,5.02 5.51,4.39C5.51,3.76 5,3.25 4.37,3.25C3.74,3.25 3.23,3.76 3.23,4.39C3.23,5.02 3.74,5.53 4.37,5.53Z"/>
</svg>
