<svg xmlns="http://www.w3.org/2000/svg" width="16" height="16" viewBox="0 0 16 16" fill="currentColor">
    <path d="M13.14,2L2.85,2C2.38,2 2,2.39 2,2.87L2,13.14C2,13.62 2.38,14.01 2.85,14.01L13.14,14.01C13.61,14.01 14,13.62 14,13.14L14,2.87C14,2.39 13.61,2 13.14,2ZM5.62,12.29L3.84,12.29L3.84,6.56L5.62,6.56L5.62,12.29ZM4.73,5.78C4.16,5.78 3.7,5.32 3.7,4.75C3.7,4.18 4.16,3.72 4.73,3.72C5.3,3.72 5.76,4.18 5.76,4.75C5.76,5.32 5.3,5.78 4.73,5.78ZM12.29,12.29L10.51,12.29L10.51,9.5C10.51,8.84 10.5,7.98 9.59,7.98C8.68,7.98 8.52,8.7 8.52,9.45L8.52,12.28L6.74,12.28L6.74,6.55L8.45,6.55L8.45,7.33L8.47,7.33C8.71,6.88 9.29,6.41 10.15,6.41C11.95,6.41 12.28,7.6 12.28,9.14L12.28,12.28L12.29,12.29Z"/>
</svg>
