<svg xmlns="http://www.w3.org/2000/svg" width="16" height="16" viewBox="0 0 16 16" fill="currentColor">
    <path d="M5.333,4.667C4.965,4.667 4.667,4.368 4.667,4C4.667,3.632 4.965,3.333 5.333,3.333L14,3.333C14.368,3.333 14.667,3.632 14.667,4C14.667,4.368 14.368,4.667 14,4.667L5.333,4.667ZM5.333,8.667C4.965,8.667 4.667,8.368 4.667,8C4.667,7.632 4.965,7.333 5.333,7.333L14,7.333C14.368,7.333 14.667,7.632 14.667,8C14.667,8.368 14.368,8.667 14,8.667L5.333,8.667ZM5.333,12.667C4.965,12.667 4.667,12.368 4.667,12C4.667,11.632 4.965,11.333 5.333,11.333L14,11.333C14.368,11.333 14.667,11.632 14.667,12C14.667,12.368 14.368,12.667 14,12.667L5.333,12.667ZM2.007,3.333C2.375,3.333 2.673,3.632 2.673,4C2.673,4.368 2.375,4.667 2.007,4.667C1.639,4.667 1.34,4.368 1.34,4C1.34,3.632 1.639,3.333 2.007,3.333ZM2.007,7.333C2.375,7.333 2.673,7.632 2.673,8C2.673,8.368 2.375,8.667 2.007,8.667C1.639,8.667 1.34,8.368 1.34,8C1.34,7.632 1.639,7.333 2.007,7.333ZM2.007,11.333C2.375,11.333 2.673,11.632 2.673,12C2.673,12.368 2.375,12.667 2.007,12.667C1.639,12.667 1.34,12.368 1.34,12C1.34,11.632 1.639,11.333 2.007,11.333Z"/>
</svg>
