<svg xmlns="http://www.w3.org/2000/svg" width="16" height="16" viewBox="0 0 16 16" fill="currentColor">
    <path d="M7.333,1.333C7.333,0.965 7.632,0.667 8,0.667C8.368,0.667 8.667,0.965 8.667,1.333L8.667,4C8.667,4.368 8.368,4.667 8,4.667C7.632,4.667 7.333,4.368 7.333,4L7.333,1.333ZM7.333,12C7.333,11.632 7.632,11.333 8,11.333C8.368,11.333 8.667,11.632 8.667,12L8.667,14.667C8.667,15.035 8.368,15.333 8,15.333C7.632,15.333 7.333,15.035 7.333,14.667L7.333,12ZM2.815,3.758C2.555,3.498 2.555,3.075 2.815,2.815C3.075,2.555 3.498,2.555 3.758,2.815L5.645,4.702C5.905,4.962 5.905,5.385 5.645,5.645C5.385,5.905 4.962,5.905 4.702,5.645L2.815,3.758ZM10.355,11.298C10.095,11.038 10.095,10.615 10.355,10.355C10.615,10.095 11.038,10.095 11.298,10.355L13.185,12.242C13.445,12.502 13.445,12.925 13.185,13.185C12.925,13.445 12.502,13.445 12.242,13.185L10.355,11.298ZM1.333,8.667C0.965,8.667 0.667,8.368 0.667,8C0.667,7.632 0.965,7.333 1.333,7.333L4,7.333C4.368,7.333 4.667,7.632 4.667,8C4.667,8.368 4.368,8.667 4,8.667L1.333,8.667ZM12,8.667C11.632,8.667 11.333,8.368 11.333,8C11.333,7.632 11.632,7.333 12,7.333L14.667,7.333C15.035,7.333 15.333,7.632 15.333,8C15.333,8.368 15.035,8.667 14.667,8.667L12,8.667ZM3.758,13.185C3.498,13.445 3.075,13.445 2.815,13.185C2.555,12.925 2.555,12.502 2.815,12.242L4.702,10.355C4.962,10.095 5.385,10.095 5.645,10.355C5.905,10.615 5.905,11.038 5.645,11.298L3.758,13.185ZM11.298,5.645C11.038,5.905 10.615,5.905 10.355,5.645C10.095,5.385 10.095,4.962 10.355,4.702L12.242,2.815C12.502,2.555 12.925,2.555 13.185,2.815C13.445,3.075 13.445,3.498 13.185,3.758L11.298,5.645Z"/>
</svg>
