<svg xmlns="http://www.w3.org/2000/svg" width="16" height="16" viewBox="0 0 16 16" fill="currentColor">
    <path d="M12.391,8.667L6,8.667C5.632,8.667 5.333,8.368 5.333,8C5.333,7.632 5.632,7.333 6,7.333L12.391,7.333L10.195,5.138C9.935,4.878 9.935,4.455 10.195,4.195C10.455,3.935 10.878,3.935 11.138,4.195L14.471,7.529C14.597,7.654 14.667,7.823 14.667,8C14.667,8.177 14.597,8.346 14.471,8.471L11.138,11.805C10.878,12.065 10.455,12.065 10.195,11.805C9.935,11.545 9.935,11.122 10.195,10.862C10.195,10.862 11.545,9.512 12.391,8.667ZM6,13.333C6.368,13.333 6.667,13.632 6.667,14C6.667,14.368 6.368,14.667 6,14.667L3.333,14.667C2.236,14.667 1.333,13.764 1.333,12.667L1.333,3.333C1.333,2.236 2.236,1.333 3.333,1.333L6,1.333C6.368,1.333 6.667,1.632 6.667,2C6.667,2.368 6.368,2.667 6,2.667L3.333,2.667C2.968,2.667 2.667,2.968 2.667,3.333L2.667,12.667C2.667,13.032 2.968,13.333 3.333,13.333L6,13.333Z"/>
</svg>
