<svg xmlns="http://www.w3.org/2000/svg" width="16" height="16" viewBox="0 0 16 16" fill="currentColor">
    <path d="M8.391,8.667L2,8.667C1.632,8.667 1.333,8.368 1.333,8C1.333,7.632 1.632,7.333 2,7.333L8.391,7.333L6.195,5.138C5.935,4.878 5.935,4.455 6.195,4.195C6.455,3.935 6.878,3.935 7.138,4.195L10.471,7.529C10.597,7.654 10.667,7.823 10.667,8C10.667,8.177 10.597,8.346 10.471,8.471L7.138,11.805C6.878,12.065 6.455,12.065 6.195,11.805C5.935,11.545 5.935,11.122 6.195,10.862C6.195,10.862 7.545,9.512 8.391,8.667ZM10,2.667C9.632,2.667 9.333,2.368 9.333,2C9.333,1.632 9.632,1.333 10,1.333L12.667,1.333C13.764,1.333 14.667,2.236 14.667,3.333L14.667,12.667C14.667,13.764 13.764,14.667 12.667,14.667L10,14.667C9.632,14.667 9.333,14.368 9.333,14C9.333,13.632 9.632,13.333 10,13.333L12.667,13.333C13.032,13.333 13.333,13.032 13.333,12.667L13.333,3.333C13.333,2.968 13.032,2.667 12.667,2.667L10,2.667Z"/>
</svg>
