<svg xmlns="http://www.w3.org/2000/svg" width="16" height="16" viewBox="0 0 16 16" fill="currentColor">
    <path d="M15.333,4L15.333,12C15.333,13.1 14.433,14 13.333,14L2.667,14C1.567,14 0.667,13.1 0.667,12L0.667,4C0.667,3.999 0.667,3.999 0.667,3.998C0.668,2.899 1.567,2 2.667,2L13.333,2C14.433,2 15.332,2.899 15.333,3.998C15.333,3.999 15.333,3.999 15.333,4ZM2,5.28L2,12C2,12.367 2.3,12.667 2.667,12.667L13.333,12.667C13.7,12.667 14,12.367 14,12L14,5.28L8.382,9.213C8.153,9.374 7.847,9.374 7.618,9.213L2,5.28ZM13.929,3.702C13.82,3.484 13.593,3.333 13.333,3.333L2.667,3.333C2.407,3.333 2.18,3.484 2.071,3.702L8,7.853L13.929,3.702Z"/>
</svg>
