<svg xmlns="http://www.w3.org/2000/svg" width="16" height="16" viewBox="0 0 16 16" fill="currentColor">
    <path d="M14.667,6.667C14.667,8.683 13.653,10.594 12.409,12.15C10.614,14.393 8.37,15.888 8.37,15.888C8.146,16.037 7.854,16.037 7.63,15.888C7.63,15.888 5.386,14.393 3.591,12.15C2.347,10.594 1.333,8.683 1.333,6.667C1.333,3.009 4.343,0 8,0C11.657,-0 14.667,3.009 14.667,6.667ZM13.333,6.667C13.333,3.741 10.926,1.333 8,1.333C5.074,1.333 2.667,3.741 2.667,6.667C2.667,8.384 3.573,9.992 4.633,11.317C5.866,12.859 7.329,14.02 8,14.515C8.671,14.02 10.134,12.859 11.367,11.317C12.427,9.992 13.333,8.384 13.333,6.667ZM8,4C9.472,4 10.667,5.195 10.667,6.667C10.667,8.138 9.472,9.333 8,9.333C6.528,9.333 5.333,8.138 5.333,6.667C5.333,5.195 6.528,4 8,4ZM8,5.333C7.264,5.333 6.667,5.931 6.667,6.667C6.667,7.403 7.264,8 8,8C8.736,8 9.333,7.403 9.333,6.667C9.333,5.931 8.736,5.333 8,5.333Z"/>
</svg>
