<svg xmlns="http://www.w3.org/2000/svg" width="16" height="16" viewBox="0 0 16 16" fill="currentColor">
    <path d="M10.369,15.263L5.354,12.756L0.997,15.245C0.791,15.363 0.538,15.363 0.332,15.243C0.127,15.124 0,14.904 0,14.667L-0,4C0,3.761 0.128,3.54 0.336,3.421L5.003,0.754C5.102,0.697 5.216,0.667 5.333,0.667C5.438,0.667 5.54,0.691 5.631,0.737L10.646,3.244L15.003,0.755C15.209,0.637 15.462,0.637 15.668,0.757C15.873,0.876 16,1.096 16,1.333L16,12C16,12.239 15.872,12.46 15.664,12.579L10.997,15.246C10.898,15.303 10.784,15.333 10.667,15.333C10.562,15.333 10.46,15.309 10.369,15.263ZM4.667,2.482L1.333,4.387L1.333,13.518L4.667,11.613L4.667,2.482ZM6,11.588L10,13.588L10,4.412L6,2.412L6,11.588ZM11.333,13.518C12.482,12.861 14.667,11.613 14.667,11.613L14.667,2.482L11.333,4.387L11.333,13.518Z"/>
</svg>
