<svg xmlns="http://www.w3.org/2000/svg" width="16" height="16" viewBox="0 0 16 16" fill="currentColor">
    <path d="M13.333,3.609L9.805,7.138C9.545,7.398 9.122,7.398 8.862,7.138C8.602,6.878 8.602,6.455 8.862,6.195L12.391,2.667L10,2.667C9.632,2.667 9.333,2.368 9.333,2C9.333,1.632 9.632,1.333 10,1.333L14,1.333C14.177,1.333 14.346,1.403 14.471,1.529C14.597,1.654 14.667,1.823 14.667,2L14.667,6C14.667,6.368 14.368,6.667 14,6.667C13.632,6.667 13.333,6.368 13.333,6L13.333,3.609ZM1.333,14L1.333,10C1.333,9.632 1.632,9.333 2,9.333C2.368,9.333 2.667,9.632 2.667,10L2.667,12.391L6.195,8.862C6.455,8.602 6.878,8.602 7.138,8.862C7.398,9.122 7.398,9.545 7.138,9.805L3.609,13.333L6,13.333C6.368,13.333 6.667,13.632 6.667,14C6.667,14.368 6.368,14.667 6,14.667L2,14.667C1.823,14.667 1.654,14.597 1.529,14.471C1.403,14.346 1.333,14.177 1.333,14Z"/>
</svg>
