<svg xmlns="http://www.w3.org/2000/svg" width="16" height="16" viewBox="0 0 16 16" fill="currentColor">
    <path d="M2,8.667C1.632,8.667 1.333,8.368 1.333,8C1.333,7.632 1.632,7.333 2,7.333L14,7.333C14.368,7.333 14.667,7.632 14.667,8C14.667,8.368 14.368,8.667 14,8.667L2,8.667ZM2,4.667C1.632,4.667 1.333,4.368 1.333,4C1.333,3.632 1.632,3.333 2,3.333L14,3.333C14.368,3.333 14.667,3.632 14.667,4C14.667,4.368 14.368,4.667 14,4.667L2,4.667ZM2,12.667C1.632,12.667 1.333,12.368 1.333,12C1.333,11.632 1.632,11.333 2,11.333L14,11.333C14.368,11.333 14.667,11.632 14.667,12C14.667,12.368 14.368,12.667 14,12.667L2,12.667Z"/>
</svg>
