<svg xmlns="http://www.w3.org/2000/svg" width="16" height="16" viewBox="0 0 16 16" fill="currentColor">
    <path d="M8.02,0.67L8.02,0.66C12.16,0.66 15.33,3.68 15.33,7.77C15.33,12.95 10.42,15.85 5.89,14.6C5.64,14.53 5.61,14.59 4.05,15.27C3.98,15.3 3.9,15.32 3.83,15.32C3.5,15.32 3.22,15.08 3.22,14.75C3.18,13.38 3.22,13.25 2.98,13.03C1.55,11.76 0.67,9.92 0.67,7.78C0.67,3.7 3.88,0.67 8.02,0.67ZM12.43,6.14C12.64,5.81 12.24,5.45 11.93,5.68L9.61,7.44C9.45,7.56 9.23,7.56 9.07,7.44L7.35,6.16C7.34,6.13 7.31,6.12 7.29,6.11C6.77,5.78 6.09,5.94 5.76,6.45L3.6,9.87C3.38,10.2 3.79,10.56 4.1,10.33L6.42,8.57C6.58,8.45 6.8,8.45 6.96,8.57L8.68,9.85C8.69,9.88 8.72,9.89 8.74,9.9C9.26,10.23 9.94,10.07 10.27,9.56L12.43,6.14Z"/>
</svg>
