<svg xmlns="http://www.w3.org/2000/svg" width="16" height="16" viewBox="0 0 16 16" fill="currentColor">
    <path d="M8.01,2C4.62,2 1.99,4.48 1.99,7.82C1.99,9.57 2.71,11.08 3.88,12.12C4.08,12.3 4.04,12.41 4.08,13.53C4.08,13.8 4.31,14 4.58,14C4.64,14 4.7,13.98 4.76,13.96C6.04,13.4 6.06,13.35 6.27,13.41C9.98,14.43 14,12.06 14,7.82C14,4.47 11.4,2 8.01,2ZM11.62,6.48L9.85,9.28C9.58,9.7 9.02,9.83 8.6,9.56C8.58,9.55 8.56,9.54 8.55,9.52L7.14,8.47C7.01,8.37 6.83,8.37 6.7,8.47L4.8,9.91C4.55,10.1 4.21,9.8 4.39,9.53L6.16,6.73C6.43,6.31 6.99,6.18 7.41,6.45C7.43,6.46 7.45,6.47 7.46,6.49L8.87,7.54C9,7.64 9.18,7.64 9.31,7.54L11.21,6.1C11.46,5.91 11.79,6.21 11.62,6.48Z"/>
</svg>
