<svg xmlns="http://www.w3.org/2000/svg" width="16" height="16" viewBox="0 0 16 16" fill="currentColor">
    <path d="M14.667,10C14.667,11.097 13.764,12 12.667,12C12.667,12 4.943,12 4.943,12L2.471,14.471C2.281,14.662 1.994,14.719 1.745,14.616C1.496,14.513 1.333,14.27 1.333,14L1.333,3.333C1.333,2.236 2.236,1.333 3.333,1.333L12.667,1.333C13.764,1.333 14.667,2.236 14.667,3.333L14.667,10ZM13.333,10L13.333,3.333C13.333,2.968 13.032,2.667 12.667,2.667L3.333,2.667C2.968,2.667 2.667,2.968 2.667,3.333L2.667,12.391L4.195,10.862C4.32,10.737 4.49,10.667 4.667,10.667L12.667,10.667C13.032,10.667 13.333,10.366 13.333,10Z"/>
</svg>
