<svg xmlns="http://www.w3.org/2000/svg" width="16" height="16" viewBox="0 0 16 16" fill="currentColor">
    <path d="M6,10.943L2.471,14.471C2.211,14.732 1.789,14.732 1.529,14.471C1.268,14.211 1.268,13.789 1.529,13.529L5.057,10L2.667,10C2.299,10 2,9.701 2,9.333C2,8.965 2.299,8.667 2.667,8.667L6.667,8.667C6.844,8.667 7.013,8.737 7.138,8.862C7.263,8.987 7.333,9.156 7.333,9.333L7.333,13.333C7.333,13.701 7.035,14 6.667,14C6.299,14 6,13.701 6,13.333L6,10.943ZM8.667,6.667L8.667,2.667C8.667,2.299 8.965,2 9.333,2C9.701,2 10,2.299 10,2.667L10,5.057L13.529,1.529C13.789,1.268 14.211,1.268 14.471,1.529C14.732,1.789 14.732,2.211 14.471,2.471L10.943,6L13.333,6C13.701,6 14,6.299 14,6.667C14,7.035 13.701,7.333 13.333,7.333L9.333,7.333C9.156,7.333 8.987,7.263 8.862,7.138C8.737,7.013 8.667,6.844 8.667,6.667Z"/>
</svg>
