<svg xmlns="http://www.w3.org/2000/svg" width="16" height="16" viewBox="0 0 16 16" fill="currentColor">
    <path d="M14.664,8.588C14.349,12 11.452,14.641 8.025,14.641C4.368,14.641 1.359,11.632 1.359,7.975C1.359,4.548 4,1.651 7.412,1.336C7.674,1.312 7.925,1.444 8.054,1.673C8.183,1.902 8.166,2.185 8.009,2.396C7.501,3.084 7.226,3.918 7.226,4.774C7.226,6.968 9.032,8.774 11.226,8.774C12.082,8.774 12.916,8.499 13.604,7.991C13.815,7.834 14.098,7.817 14.327,7.946C14.556,8.075 14.688,8.326 14.664,8.588ZM13.039,9.789C12.461,9.998 11.848,10.107 11.226,10.107C8.3,10.107 5.893,7.7 5.893,4.774C5.893,4.152 6.002,3.539 6.211,2.961C4.151,3.711 2.692,5.697 2.692,7.975C2.692,10.9 5.1,13.308 8.025,13.308C10.303,13.308 12.288,11.849 13.039,9.789Z"/>
</svg>
