<svg xmlns="http://www.w3.org/2000/svg" width="16" height="16" viewBox="0 0 16 16" fill="currentColor">
    <path d="M1.715,6.731L14.381,0.731C14.636,0.61 14.939,0.663 15.138,0.862C15.337,1.061 15.39,1.364 15.269,1.619L9.269,14.285C9.149,14.54 8.881,14.691 8.601,14.663C8.321,14.636 8.088,14.435 8.02,14.162L6.784,9.216L1.838,7.98C1.565,7.912 1.364,7.679 1.337,7.399C1.309,7.119 1.46,6.851 1.715,6.731ZM3.969,7.138L7.495,8.02C7.734,8.08 7.92,8.266 7.98,8.505L8.862,12.031L13.265,2.735L3.969,7.138Z"/>
</svg>
