<svg xmlns="http://www.w3.org/2000/svg" width="16" height="16" viewBox="0 0 16 16" fill="currentColor">
    <path d="M13.822,6.895C14.082,6.635 14.505,6.635 14.765,6.895C15.025,7.155 15.025,7.578 14.765,7.838L8.638,13.965C7.763,14.84 6.574,15.332 5.337,15.332C2.775,15.332 0.668,13.225 0.668,10.663C0.668,9.426 1.16,8.237 2.035,7.362L8.162,1.235C8.787,0.61 9.636,0.259 10.52,0.259C12.349,0.259 13.855,1.764 13.855,3.593C13.855,4.477 13.503,5.326 12.878,5.952L6.745,12.078C6.37,12.453 5.86,12.664 5.33,12.664C4.232,12.664 3.329,11.761 3.329,10.663C3.329,10.133 3.54,9.624 3.915,9.249L9.576,3.595C9.836,3.335 10.258,3.335 10.518,3.596C10.778,3.856 10.778,4.278 10.518,4.538L4.858,10.191C4.733,10.317 4.663,10.486 4.663,10.663C4.663,11.029 4.964,11.331 5.33,11.331C5.507,11.331 5.677,11.26 5.802,11.135L11.935,5.009C12.31,4.633 12.521,4.124 12.521,3.593C12.521,2.495 11.618,1.592 10.52,1.592C9.989,1.592 9.48,1.803 9.105,2.178L2.978,8.305C2.353,8.93 2.001,9.779 2.001,10.663C2.001,12.493 3.507,13.999 5.337,13.999C6.221,13.999 7.07,13.647 7.695,13.022L13.822,6.895Z"/>
</svg>
