<svg xmlns="http://www.w3.org/2000/svg" width="16" height="16" viewBox="0 0 16 16" fill="currentColor">
    <path d="M12.571,14.619C12.522,14.619 12.465,14.616 12.409,14.611C10.255,14.376 8.165,13.634 6.355,12.459C4.678,11.394 3.223,9.939 2.155,8.257C0.981,6.444 0.238,4.344 0.009,2.19C-0.04,1.648 0.121,1.129 0.464,0.719C0.805,0.309 1.287,0.056 1.819,0.008C1.88,0.002 1.939,0 1.998,0L4.017,0C5.003,0 5.852,0.736 5.991,1.72C6.07,2.315 6.215,2.896 6.423,3.454C6.696,4.18 6.519,5.009 5.972,5.562L5.491,6.043C6.275,7.273 7.319,8.317 8.549,9.1L9.027,8.622C9.583,8.073 10.407,7.896 11.14,8.169C11.694,8.377 12.276,8.522 12.865,8.599C13.873,8.743 14.612,9.61 14.592,10.622L14.592,12.614C14.594,13.146 14.388,13.649 14.011,14.028C13.635,14.407 13.134,14.616 12.6,14.619L12.571,14.619ZM4.011,1.333L1.998,1.333C1.573,1.369 1.303,1.694 1.336,2.06C1.541,3.996 2.213,5.894 3.278,7.538C4.245,9.06 5.557,10.373 7.075,11.337C8.717,12.403 10.606,13.074 12.543,13.285C12.962,13.285 13.26,12.984 13.258,12.617L13.258,10.614C13.258,10.609 13.258,10.603 13.259,10.597C13.267,10.259 13.02,9.967 12.685,9.92C12.001,9.83 11.322,9.661 10.672,9.419C10.425,9.325 10.152,9.384 9.967,9.567L9.123,10.413C8.909,10.625 8.58,10.667 8.323,10.519C6.549,9.511 5.079,8.043 4.072,6.27C3.924,6.008 3.968,5.681 4.18,5.469L5.027,4.622C5.206,4.44 5.265,4.164 5.174,3.922C4.93,3.269 4.761,2.589 4.67,1.901C4.625,1.579 4.342,1.333 4.011,1.333Z"/>
</svg>
