<svg xmlns="http://www.w3.org/2000/svg" width="16" height="16" viewBox="0 0 16 16" fill="currentColor">
    <path d="M13.36,15.29L13.15,15.29C11,15.06 8.91,14.31 7.1,13.14C5.42,12.07 3.97,10.62 2.9,8.94C1.72,7.11 0.98,5.01 0.75,2.86C0.7,2.32 0.86,1.8 1.21,1.39C1.55,0.98 2.03,0.73 2.57,0.68L4.77,0.68C5.76,0.68 6.6,1.42 6.74,2.4C6.82,3 6.96,3.58 7.17,4.13C7.44,4.86 7.27,5.68 6.72,6.24L6.24,6.72C7.02,7.95 8.07,8.99 9.3,9.78L9.78,9.3C10.34,8.75 11.16,8.57 11.89,8.85C12.44,9.06 13.03,9.2 13.62,9.28C14.63,9.42 15.37,10.29 15.35,11.3L15.35,13.29C15.35,13.82 15.15,14.32 14.77,14.7C14.39,15.08 13.89,15.29 13.36,15.29ZM4.77,2L2.74,2C2.31,2.04 2.04,2.36 2.08,2.73C2.29,4.67 2.96,6.56 4.02,8.21C4.99,9.73 6.3,11.04 7.82,12.01C9.46,13.07 11.35,13.75 13.29,13.96C13.71,13.96 14.01,13.66 14,13.29L14,11.27C14,10.93 13.76,10.64 13.43,10.59C12.75,10.5 12.07,10.33 11.42,10.09C11.17,10 10.9,10.06 10.71,10.24L9.87,11.08C9.66,11.29 9.33,11.34 9.07,11.19C7.3,10.18 5.83,8.71 4.82,6.94C4.67,6.68 4.72,6.35 4.93,6.14L5.78,5.29C5.96,5.11 6.02,4.83 5.93,4.59C5.69,3.94 5.52,3.26 5.43,2.57C5.38,2.25 5.1,2 4.77,2Z"/>
</svg>
