<svg xmlns="http://www.w3.org/2000/svg" width="16" height="16" viewBox="0 0 16 16" fill="currentColor">
    <path d="M14,8C14,11.31 11.31,14 8,14C7.38,14 6.79,13.91 6.22,13.73C6.46,13.33 6.83,12.68 6.97,12.16C7.04,11.88 7.34,10.73 7.34,10.73C7.54,11.1 8.11,11.42 8.71,11.42C10.52,11.42 11.82,9.76 11.82,7.69C11.82,5.62 10.2,4.23 8.12,4.23C5.53,4.23 4.15,5.97 4.15,7.86C4.15,8.74 4.62,9.84 5.37,10.19C5.48,10.24 5.54,10.22 5.57,10.11C5.59,10.03 5.69,9.62 5.74,9.43C5.75,9.37 5.74,9.32 5.7,9.26C5.46,8.96 5.26,8.41 5.26,7.89C5.26,6.57 6.26,5.29 7.97,5.29C9.44,5.29 10.48,6.29 10.48,7.73C10.48,9.35 9.66,10.48 8.59,10.48C8,10.48 7.56,9.99 7.7,9.4C7.87,8.69 8.2,7.92 8.2,7.4C8.2,6.94 7.95,6.56 7.44,6.56C6.84,6.56 6.35,7.18 6.35,8.02C6.35,8.55 6.53,8.91 6.53,8.91C6.53,8.91 5.94,11.42 5.83,11.89C5.71,12.41 5.76,13.14 5.81,13.61C3.58,12.74 2,10.56 2,8.02C2,4.71 4.69,2.02 8,2.02C11.31,2.02 14,4.71 14,8.02L14,8Z"/>
</svg>
