<svg xmlns="http://www.w3.org/2000/svg" width="16" height="16" viewBox="0 0 16 16" fill="currentColor">
    <path d="M15.33,8.01C15.319,12.051 12.033,15.32 8,15.32C7.24,15.32 6.52,15.21 5.82,14.99C6.11,14.5 6.57,13.71 6.74,13.07C6.83,12.73 7.19,11.32 7.19,11.32C7.43,11.77 8.13,12.16 8.86,12.16C11.07,12.16 12.66,10.13 12.66,7.6C12.66,5.07 10.68,3.37 8.14,3.37C4.97,3.37 3.29,5.5 3.29,7.81C3.29,8.89 3.86,10.23 4.78,10.66C4.91,10.72 4.99,10.7 5.02,10.56C5.04,10.46 5.17,9.96 5.23,9.73C5.24,9.66 5.23,9.6 5.18,9.52C4.89,9.15 4.64,8.48 4.64,7.85C4.64,6.24 5.86,4.67 7.95,4.67C9.75,4.67 11.02,5.89 11.02,7.65C11.02,9.63 10.02,11.01 8.71,11.01C7.99,11.01 7.45,10.41 7.62,9.69C7.83,8.82 8.23,7.88 8.23,7.25C8.23,6.69 7.92,6.22 7.3,6.22C6.57,6.22 5.97,6.98 5.97,8C5.97,8.65 6.19,9.09 6.19,9.09C6.19,9.09 5.47,12.16 5.33,12.73C5.18,13.37 5.24,14.26 5.31,14.83C2.58,13.77 0.65,11.1 0.65,8C0.67,3.97 3.95,0.68 8,0.68C12.043,0.68 15.319,3.959 15.33,7.99L15.33,8.01Z"/>
</svg>
