<svg xmlns="http://www.w3.org/2000/svg" width="16" height="16" viewBox="0 0 16 16" fill="currentColor">
    <path d="M7.333,8.667L3.333,8.667C2.965,8.667 2.667,8.368 2.667,8C2.667,7.632 2.965,7.333 3.333,7.333L7.333,7.333L7.333,3.333C7.333,2.965 7.632,2.667 8,2.667C8.368,2.667 8.667,2.965 8.667,3.333L8.667,7.333L12.667,7.333C13.035,7.333 13.333,7.632 13.333,8C13.333,8.368 13.035,8.667 12.667,8.667L8.667,8.667L8.667,12.667C8.667,13.035 8.368,13.333 8,13.333C7.632,13.333 7.333,13.035 7.333,12.667L7.333,8.667Z"/>
</svg>
