<svg xmlns="http://www.w3.org/2000/svg" width="16" height="16" viewBox="0 0 16 16" fill="currentColor">
    <path d="M3.333,12.667L2.667,12.667C1.569,12.667 0.667,11.764 0.667,10.667L0.667,7.333C0.667,6.236 1.569,5.333 2.667,5.333L3.333,5.333L3.333,1.333C3.333,0.965 3.632,0.667 4,0.667L12,0.667C12.368,0.667 12.667,0.965 12.667,1.333L12.667,5.333L13.333,5.333C14.431,5.333 15.333,6.236 15.333,7.333L15.333,10.667C15.333,11.764 14.431,12.667 13.333,12.667L12.667,12.667L12.667,14.667C12.667,15.035 12.368,15.333 12,15.333L4,15.333C3.632,15.333 3.333,15.035 3.333,14.667L3.333,12.667ZM13.333,6.667L2.667,6.667C2.301,6.667 2,6.968 2,7.333L2,10.667C2,11.032 2.301,11.333 2.667,11.333L3.333,11.333L3.333,9.333C3.333,8.965 3.632,8.667 4,8.667L12,8.667C12.368,8.667 12.667,8.965 12.667,9.333L12.667,11.333L13.333,11.333C13.699,11.333 14,11.032 14,10.667L14,7.333C14,6.968 13.699,6.667 13.333,6.667ZM11.333,5.333C11.333,4.195 11.333,2 11.333,2C11.333,2 4.667,2 4.667,2L4.667,5.333L11.333,5.333ZM4.667,12C4.667,13 4.667,14 4.667,14C4.667,14 11.333,14 11.333,14L11.333,10C11.333,10 4.667,10 4.667,10C4.667,10 4.667,11 4.667,12Z"/>
</svg>
