<svg xmlns="http://www.w3.org/2000/svg" width="16" height="16" viewBox="0 0 16 16" fill="currentColor">
    <path d="M2,8C2,4.69 4.69,2 8,2C11.31,2 14,4.69 14,8C14,11.31 11.31,14 8,14L2.87,14C2.55,14 2.39,13.61 2.61,13.39L3.75,12.25C2.66,11.16 1.99,9.66 1.99,8.01L2,8ZM10.19,5.6C10.74,5.6 11.19,5.15 11.19,4.6C11.19,4.05 10.74,3.6 10.19,3.6C9.71,3.6 9.3,3.94 9.21,4.4C8.4,4.49 7.77,5.17 7.77,6C6.89,6.04 6.09,6.29 5.45,6.69C5.21,6.51 4.92,6.4 4.59,6.4C3.82,6.4 3.19,7.03 3.19,7.8C3.19,8.36 3.52,8.85 4,9.07C4.05,10.7 5.82,12 8,12C10.18,12 11.95,10.69 12,9.06C12.47,8.83 12.8,8.35 12.8,7.79C12.8,7.02 12.17,6.39 11.4,6.39C11.08,6.39 10.78,6.5 10.55,6.68C9.91,6.28 9.09,6.03 8.21,6C8.21,5.4 8.65,4.91 9.23,4.83C9.33,5.27 9.73,5.6 10.2,5.6L10.19,5.6ZM6.15,7.79C6.54,7.79 6.84,8.2 6.82,8.71C6.8,9.22 6.5,9.4 6.11,9.4C5.72,9.4 5.37,9.19 5.4,8.69C5.43,8.19 5.76,7.79 6.15,7.79ZM10.61,8.69C10.63,9.2 10.29,9.4 9.9,9.4C9.51,9.4 9.21,9.21 9.19,8.71C9.17,8.21 9.47,7.79 9.86,7.79C10.25,7.79 10.59,8.18 10.61,8.69ZM9.48,10.02C9.24,10.6 8.67,11 8,11C7.33,11 6.76,10.59 6.52,10.02C6.49,9.95 6.54,9.87 6.61,9.87C7.04,9.83 7.51,9.8 8,9.8C8.49,9.8 8.95,9.82 9.39,9.87C9.46,9.87 9.51,9.95 9.48,10.02Z"/>
</svg>
