<svg xmlns="http://www.w3.org/2000/svg" width="16" height="16" viewBox="0 0 16 16" fill="currentColor">
    <path d="M0.68,8C0.68,3.96 3.96,0.67 8.01,0.67C12.06,0.67 15.34,3.95 15.34,8C15.34,12.05 12.06,15.33 8.01,15.33L1.74,15.33C1.35,15.33 1.15,14.85 1.42,14.59L2.81,13.2C1.48,11.87 0.66,10.04 0.66,8.02L0.67,8.02L0.68,8ZM10.68,5.07C11.35,5.07 11.9,4.52 11.9,3.85C11.9,3.18 11.35,2.63 10.68,2.63C10.09,2.63 9.59,3.05 9.48,3.61C8.49,3.72 7.72,4.55 7.72,5.56C6.65,5.61 5.67,5.91 4.89,6.4C4.6,6.18 4.24,6.05 3.84,6.05C2.9,6.05 2.13,6.82 2.13,7.76C2.13,8.44 2.53,9.04 3.12,9.31C3.18,11.3 5.34,12.89 8,12.89C10.66,12.89 12.82,11.29 12.88,9.3C13.45,9.02 13.86,8.43 13.86,7.75C13.86,6.81 13.09,6.04 12.15,6.04C11.76,6.04 11.39,6.17 11.11,6.39C10.33,5.9 9.33,5.6 8.25,5.56C8.25,4.83 8.79,4.23 9.5,4.13C9.619,4.667 10.104,5.065 10.67,5.07C10.672,5.07 10.678,5.07 10.68,5.07ZM9.82,10.46C9.53,11.17 8.83,11.66 8.01,11.66C7.19,11.66 6.5,11.16 6.2,10.46C6.16,10.37 6.22,10.28 6.31,10.28C6.84,10.23 7.41,10.19 8.01,10.19C8.61,10.19 9.17,10.21 9.71,10.28C9.8,10.28 9.86,10.38 9.82,10.46ZM11.2,8.85C11.215,9.463 10.807,9.71 10.33,9.71C9.85,9.71 9.49,9.48 9.46,8.87C9.44,8.26 9.8,7.75 10.28,7.75C10.757,7.75 11.166,8.225 11.2,8.84L11.2,8.85ZM5.75,7.74C6.23,7.74 6.59,8.24 6.57,8.86C6.55,9.48 6.18,9.7 5.7,9.7C5.22,9.7 4.8,9.44 4.83,8.83C4.87,8.22 5.27,7.73 5.75,7.73L5.75,7.74Z"/>
</svg>
