<svg xmlns="http://www.w3.org/2000/svg" width="16" height="16" viewBox="0 0 16 16" fill="currentColor">
    <path d="M11.078,12.02C10.051,12.842 8.749,13.333 7.333,13.333C4.022,13.333 1.333,10.645 1.333,7.333C1.333,4.022 4.022,1.333 7.333,1.333C10.645,1.333 13.333,4.022 13.333,7.333C13.333,8.749 12.842,10.051 12.02,11.078L14.471,13.529C14.732,13.789 14.732,14.211 14.471,14.471C14.211,14.732 13.789,14.732 13.529,14.471L11.078,12.02ZM10.689,10.575C11.501,9.735 12,8.592 12,7.333C12,4.758 9.909,2.667 7.333,2.667C4.758,2.667 2.667,4.758 2.667,7.333C2.667,9.909 4.758,12 7.333,12C8.592,12 9.735,11.501 10.575,10.689C10.591,10.668 10.609,10.648 10.629,10.629C10.648,10.609 10.668,10.591 10.689,10.575Z"/>
</svg>
