<svg xmlns="http://www.w3.org/2000/svg" width="16" height="16" viewBox="0 0 16 16" fill="currentColor">
    <path d="M15.296,1.554C15.296,1.554 10.629,14.887 10.629,14.887C10.539,15.145 10.3,15.322 10.027,15.333C9.754,15.344 9.502,15.187 9.391,14.937L6.828,9.172L1.063,6.609C0.813,6.498 0.656,6.246 0.667,5.973C0.678,5.7 0.855,5.461 1.113,5.371C1.113,5.371 14.446,0.704 14.446,0.704C14.684,0.621 14.954,0.678 15.138,0.862C15.322,1.046 15.379,1.316 15.296,1.554ZM12.13,2.928L3.141,6.074L7.186,7.872L12.13,2.928ZM8.128,8.814L9.926,12.859L13.072,3.87L8.128,8.814Z"/>
</svg>
