<svg xmlns="http://www.w3.org/2000/svg" width="16" height="16" viewBox="0 0 16 16" fill="currentColor">
    <path d="M8,10.67C6.53,10.67 5.33,9.47 5.33,8C5.33,6.53 6.53,5.33 8,5.33C9.47,5.33 10.67,6.53 10.67,8C10.67,9.47 9.47,10.67 8,10.67ZM8,6.67C7.26,6.67 6.67,7.27 6.67,8C6.67,8.73 7.27,9.33 8,9.33C8.73,9.33 9.33,8.73 9.33,8C9.33,7.27 8.73,6.67 8,6.67ZM8.05,16C6.95,16 6.05,15.1 6.05,14C6.05,13.78 5.93,13.62 5.77,13.56C5.57,13.47 5.38,13.51 5.25,13.63C4.43,14.45 3.17,14.44 2.39,13.67C2.01,13.29 1.8,12.79 1.8,12.25C1.8,11.71 2.01,11.21 2.39,10.83C2.55,10.67 2.58,10.48 2.51,10.32C2.44,10.16 2.28,10.05 2.11,10.05L2,10.05C0.9,10.05 0,9.15 0,8.05C0,6.95 0.9,6.05 2,6.05C2.22,6.05 2.38,5.93 2.44,5.77C2.53,5.57 2.49,5.38 2.37,5.25C1.56,4.44 1.55,3.17 2.33,2.39C3.11,1.61 4.38,1.61 5.16,2.39C5.32,2.55 5.56,2.59 5.73,2.51C5.9,2.44 6,2.28 6,2.11L6,2C6,0.9 6.9,0 8,0C9.1,0 10,0.9 10,2C10,2.23 10.1,2.39 10.26,2.45C10.43,2.52 10.62,2.49 10.74,2.37C11.15,1.96 11.66,1.75 12.19,1.75C12.72,1.75 13.23,1.96 13.6,2.34C13.98,2.72 14.19,3.22 14.19,3.75C14.19,4.28 13.98,4.79 13.61,5.16C13.45,5.32 13.41,5.56 13.49,5.73C13.56,5.9 13.72,6 13.89,6L14,6C15.1,6 16,6.9 16,8C16,9.1 15.1,10 14,10C13.77,10 13.61,10.1 13.55,10.26C13.48,10.42 13.51,10.61 13.64,10.74C14.46,11.56 14.46,12.82 13.68,13.6C12.9,14.38 11.63,14.38 10.85,13.6C10.68,13.44 10.5,13.4 10.34,13.48C10.17,13.55 10.07,13.71 10.07,13.88L10.07,13.99C10.07,15.09 9.17,15.99 8.07,15.99L8.05,16ZM5.56,12.17C5.8,12.17 6.04,12.22 6.27,12.32C6.92,12.56 7.37,13.19 7.39,13.92C7.39,14.36 7.69,14.66 8.06,14.66C8.43,14.66 8.73,14.36 8.73,13.99L8.73,13.88C8.73,13.17 9.15,12.54 9.8,12.26C10.46,11.97 11.22,12.11 11.74,12.62C12.08,12.96 12.48,12.92 12.73,12.67C12.99,12.41 12.99,11.99 12.73,11.73C12.18,11.17 12.04,10.4 12.33,9.74C12.61,9.09 13.24,8.68 13.95,8.67C14.38,8.67 14.68,8.37 14.68,8C14.68,7.63 14.38,7.33 14.01,7.33L13.9,7.33C13.19,7.33 12.56,6.91 12.28,6.26C11.99,5.6 12.13,4.78 12.64,4.26C12.81,4.09 12.88,3.92 12.88,3.74C12.88,3.56 12.81,3.4 12.68,3.27C12.43,3.02 11.99,3.02 11.74,3.27C11.18,3.82 10.41,3.96 9.75,3.67C9.11,3.4 8.69,2.76 8.69,2.06C8.69,1.63 8.39,1.33 8.02,1.33C7.65,1.33 7.35,1.63 7.35,2L7.35,2.11C7.35,2.82 6.93,3.45 6.28,3.73C5.62,4.02 4.8,3.88 4.28,3.37C3.94,3.03 3.54,3.07 3.29,3.32C3.16,3.45 3.09,3.61 3.09,3.79C3.09,3.97 3.16,4.14 3.29,4.26C3.84,4.82 3.98,5.59 3.69,6.25C3.45,6.9 2.82,7.35 2.09,7.37C1.65,7.37 1.35,7.67 1.35,8.04C1.35,8.41 1.65,8.71 2.02,8.71L2.13,8.71C2.84,8.71 3.47,9.13 3.75,9.78C4.04,10.44 3.9,11.2 3.39,11.72C3.22,11.89 3.15,12.06 3.15,12.24C3.15,12.42 3.22,12.59 3.35,12.71C3.61,12.97 4.03,12.97 4.29,12.71C4.66,12.35 5.12,12.16 5.58,12.16L5.56,12.17Z"/>
</svg>
