<svg xmlns="http://www.w3.org/2000/svg" width="16" height="16" viewBox="0 0 16 16" fill="currentColor">
    <path d="M13.665,13.611C13.479,13.797 13.259,13.945 13.016,14.045C12.773,14.146 12.513,14.198 12.25,14.198C11.987,14.198 11.727,14.146 11.484,14.045C11.241,13.945 11.021,13.797 10.835,13.611L10.798,13.575C10.737,13.515 10.659,13.475 10.575,13.46C10.49,13.445 10.402,13.455 10.322,13.49L10.316,13.493C10.238,13.526 10.172,13.581 10.125,13.652C10.079,13.722 10.054,13.804 10.053,13.888L10.053,14C10.053,14.53 9.843,15.039 9.468,15.414C9.092,15.789 8.584,16 8.053,16C7.523,16 7.014,15.789 6.639,15.414C6.264,15.039 6.053,14.53 6.053,14L6.053,13.95C6.05,13.865 6.022,13.783 5.973,13.714C5.922,13.643 5.852,13.589 5.77,13.559C5.757,13.554 5.744,13.549 5.731,13.543C5.652,13.508 5.564,13.498 5.479,13.513C5.394,13.529 5.316,13.569 5.255,13.628L5.218,13.665C5.033,13.85 4.812,13.998 4.569,14.099C4.326,14.199 4.066,14.251 3.803,14.251C3.541,14.251 3.28,14.199 3.037,14.099C2.795,13.998 2.575,13.851 2.389,13.665C2.203,13.479 2.055,13.259 1.955,13.016C1.854,12.773 1.802,12.513 1.802,12.25C1.802,11.987 1.854,11.727 1.955,11.484C2.055,11.241 2.203,11.021 2.389,10.835L2.425,10.799C2.485,10.737 2.525,10.659 2.54,10.575C2.555,10.49 2.545,10.402 2.51,10.323L2.507,10.316C2.474,10.238 2.419,10.172 2.348,10.125C2.278,10.079 2.196,10.054 2.112,10.053L2,10.053C1.47,10.053 0.961,9.843 0.586,9.468C0.211,9.092 0,8.584 0,8.053C0,7.523 0.211,7.014 0.586,6.639C0.961,6.264 1.47,6.053 2,6.053L2.05,6.053C2.135,6.05 2.217,6.022 2.286,5.973C2.357,5.922 2.411,5.851 2.441,5.77C2.446,5.757 2.451,5.744 2.457,5.731C2.492,5.652 2.502,5.564 2.487,5.479C2.471,5.394 2.432,5.316 2.372,5.255L2.336,5.218C2.15,5.033 2.002,4.812 1.901,4.569C1.801,4.326 1.749,4.066 1.749,3.803C1.749,3.541 1.801,3.28 1.901,3.037C2.002,2.795 2.149,2.574 2.335,2.389C2.521,2.203 2.741,2.055 2.984,1.955C3.227,1.854 3.487,1.802 3.75,1.802C4.013,1.802 4.273,1.854 4.516,1.955C4.759,2.055 4.979,2.203 5.165,2.389L5.202,2.425C5.263,2.485 5.341,2.525 5.425,2.54C5.51,2.555 5.598,2.545 5.678,2.51C5.72,2.491 5.765,2.477 5.81,2.467C5.857,2.436 5.897,2.395 5.928,2.348C5.974,2.278 5.999,2.196 6,2.112L6,2C6,1.47 6.211,0.961 6.586,0.586C6.961,0.211 7.47,0 8,0C8.53,0 9.039,0.211 9.414,0.586C9.789,0.961 10,1.47 10,2L10,2.058C10.001,2.143 10.026,2.225 10.072,2.295C10.119,2.365 10.185,2.421 10.263,2.454L10.269,2.457C10.348,2.492 10.436,2.502 10.521,2.487C10.606,2.471 10.684,2.432 10.745,2.372L10.782,2.336C10.967,2.15 11.188,2.002 11.431,1.901C11.674,1.801 11.934,1.749 12.197,1.749C12.459,1.749 12.72,1.801 12.963,1.901C13.205,2.002 13.426,2.15 13.612,2.336C13.797,2.521 13.945,2.742 14.045,2.984C14.146,3.227 14.198,3.487 14.198,3.75C14.198,4.013 14.146,4.273 14.045,4.516C13.945,4.759 13.797,4.979 13.611,5.165L13.575,5.202C13.515,5.263 13.475,5.341 13.46,5.425C13.445,5.51 13.455,5.598 13.49,5.677C13.509,5.72 13.523,5.765 13.532,5.81C13.564,5.857 13.604,5.897 13.652,5.928C13.722,5.974 13.804,5.999 13.888,6L14,6C14.53,6 15.039,6.211 15.414,6.586C15.789,6.961 16,7.47 16,8C16,8.53 15.789,9.039 15.414,9.414C15.039,9.789 14.53,10 14,10L13.942,10C13.857,10.001 13.775,10.026 13.705,10.072C13.635,10.119 13.579,10.185 13.546,10.263L13.543,10.269C13.508,10.348 13.498,10.436 13.513,10.522C13.529,10.606 13.568,10.684 13.628,10.745L13.664,10.782C13.85,10.967 13.998,11.188 14.099,11.431C14.199,11.674 14.251,11.934 14.251,12.197C14.251,12.46 14.199,12.72 14.099,12.963C13.998,13.205 13.851,13.426 13.665,13.611ZM8,1.333C7.823,1.333 7.654,1.404 7.529,1.529C7.404,1.654 7.333,1.823 7.333,2L7.333,2.116C7.332,2.461 7.23,2.797 7.04,3.084C6.849,3.372 6.579,3.597 6.263,3.733C6.206,3.757 6.147,3.773 6.086,3.781C5.799,3.882 5.489,3.907 5.187,3.852C4.84,3.789 4.52,3.623 4.267,3.377L4.262,3.371L4.222,3.331C4.16,3.269 4.086,3.22 4.005,3.186C3.924,3.153 3.838,3.136 3.75,3.136C3.662,3.136 3.576,3.153 3.495,3.186C3.414,3.22 3.34,3.269 3.278,3.331C3.216,3.393 3.167,3.467 3.133,3.548C3.1,3.629 3.082,3.716 3.082,3.803C3.082,3.891 3.1,3.978 3.133,4.059C3.167,4.14 3.216,4.213 3.278,4.275L3.323,4.32C3.57,4.573 3.736,4.893 3.799,5.241C3.86,5.581 3.821,5.932 3.685,6.25C3.561,6.574 3.345,6.855 3.062,7.057C2.774,7.263 2.43,7.378 2.076,7.386L2.06,7.387L2,7.387C1.823,7.387 1.654,7.457 1.529,7.582C1.404,7.707 1.333,7.877 1.333,8.053C1.333,8.23 1.404,8.4 1.529,8.525C1.654,8.65 1.823,8.72 2,8.72L2.116,8.72C2.461,8.721 2.797,8.823 3.084,9.014C3.371,9.203 3.595,9.472 3.731,9.787C3.873,10.11 3.915,10.467 3.852,10.813C3.789,11.16 3.623,11.48 3.377,11.733L3.371,11.738L3.331,11.778C3.269,11.84 3.22,11.914 3.186,11.995C3.153,12.076 3.136,12.162 3.136,12.25C3.136,12.338 3.153,12.424 3.186,12.505C3.22,12.586 3.269,12.66 3.331,12.722C3.393,12.784 3.467,12.833 3.548,12.867C3.629,12.9 3.716,12.918 3.803,12.918C3.891,12.918 3.978,12.9 4.059,12.867C4.14,12.833 4.213,12.784 4.275,12.722L4.32,12.677C4.573,12.43 4.893,12.264 5.241,12.201C5.581,12.14 5.932,12.179 6.25,12.315C6.574,12.439 6.855,12.655 7.057,12.938C7.263,13.226 7.378,13.57 7.386,13.924L7.387,13.94L7.387,14C7.387,14.177 7.457,14.346 7.582,14.471C7.707,14.596 7.877,14.667 8.053,14.667C8.23,14.667 8.4,14.596 8.525,14.471C8.65,14.346 8.72,14.177 8.72,14L8.72,13.884C8.721,13.54 8.823,13.203 9.014,12.916C9.203,12.629 9.472,12.405 9.787,12.269C10.11,12.127 10.467,12.085 10.813,12.148C11.16,12.211 11.48,12.377 11.733,12.623L11.778,12.669C11.84,12.731 11.914,12.78 11.995,12.814C12.076,12.847 12.162,12.864 12.25,12.864C12.338,12.864 12.424,12.847 12.505,12.814C12.586,12.78 12.66,12.731 12.722,12.669C12.784,12.607 12.833,12.533 12.867,12.452C12.9,12.371 12.918,12.284 12.918,12.197C12.918,12.109 12.9,12.022 12.867,11.941C12.833,11.86 12.784,11.787 12.722,11.725L12.677,11.68C12.43,11.427 12.264,11.107 12.201,10.759C12.139,10.413 12.181,10.056 12.322,9.734C12.458,9.419 12.683,9.15 12.969,8.96C13.256,8.77 13.593,8.668 13.937,8.667L14,8.667C14.177,8.667 14.346,8.596 14.471,8.471C14.596,8.346 14.667,8.177 14.667,8C14.667,7.823 14.596,7.654 14.471,7.529C14.346,7.404 14.177,7.333 14,7.333L13.884,7.333C13.539,7.332 13.203,7.23 12.916,7.04C12.628,6.849 12.403,6.579 12.267,6.263C12.243,6.206 12.227,6.147 12.219,6.086C12.118,5.799 12.093,5.489 12.148,5.187C12.211,4.84 12.377,4.52 12.623,4.267L12.629,4.262L12.669,4.222C12.731,4.16 12.78,4.086 12.814,4.005C12.847,3.924 12.864,3.838 12.864,3.75C12.864,3.662 12.847,3.576 12.814,3.495C12.78,3.414 12.731,3.34 12.669,3.278C12.607,3.216 12.533,3.167 12.452,3.133C12.371,3.1 12.284,3.082 12.197,3.082C12.109,3.082 12.022,3.1 11.941,3.133C11.86,3.167 11.787,3.216 11.725,3.278L11.68,3.323C11.427,3.57 11.107,3.736 10.759,3.799C10.413,3.861 10.056,3.819 9.734,3.678C9.419,3.542 9.15,3.317 8.96,3.031C8.77,2.744 8.668,2.407 8.667,2.063L8.667,2C8.667,1.823 8.596,1.654 8.471,1.529C8.346,1.404 8.177,1.333 8,1.333ZM8,5.333C9.472,5.333 10.667,6.528 10.667,8C10.667,9.472 9.472,10.667 8,10.667C6.528,10.667 5.333,9.472 5.333,8C5.333,6.528 6.528,5.333 8,5.333ZM8,6.667C7.264,6.667 6.667,7.264 6.667,8C6.667,8.736 7.264,9.333 8,9.333C8.736,9.333 9.333,8.736 9.333,8C9.333,7.264 8.736,6.667 8,6.667Z"/>
</svg>
