<svg xmlns="http://www.w3.org/2000/svg" width="16" height="16" viewBox="0 0 16 16" fill="currentColor">
    <path d="M5.894,9.876C5.411,10.364 4.741,10.667 4,10.667C2.528,10.667 1.333,9.472 1.333,8C1.333,6.528 2.528,5.333 4,5.333C4.74,5.333 5.411,5.636 5.894,6.124L9.433,4.058C9.368,3.828 9.333,3.585 9.333,3.333C9.333,1.862 10.528,0.667 12,0.667C13.472,0.667 14.667,1.862 14.667,3.333C14.667,4.805 13.472,6 12,6C11.26,6 10.589,5.698 10.106,5.21L6.567,7.275C6.632,7.506 6.667,7.749 6.667,8C6.667,8.251 6.632,8.494 6.567,8.725L10.108,10.788C10.591,10.302 11.261,10 12,10C13.472,10 14.667,11.195 14.667,12.667C14.667,14.138 13.472,15.333 12,15.333C10.528,15.333 9.333,14.138 9.333,12.667C9.333,12.414 9.368,12.17 9.434,11.939L5.894,9.876ZM5.134,7.299C4.899,6.92 4.479,6.667 4,6.667C3.264,6.667 2.667,7.264 2.667,8C2.667,8.736 3.264,9.333 4,9.333C4.479,9.333 4.899,9.08 5.134,8.701C5.14,8.691 5.145,8.681 5.151,8.671C5.157,8.661 5.163,8.651 5.169,8.641C5.274,8.451 5.333,8.232 5.333,8C5.333,7.768 5.274,7.549 5.169,7.359C5.163,7.349 5.157,7.339 5.151,7.329C5.145,7.319 5.14,7.309 5.134,7.299ZM10.866,4.034C11.101,4.414 11.521,4.667 12,4.667C12.736,4.667 13.333,4.069 13.333,3.333C13.333,2.597 12.736,2 12,2C11.264,2 10.667,2.597 10.667,3.333C10.667,3.566 10.726,3.784 10.831,3.974C10.837,3.984 10.843,3.994 10.849,4.004C10.855,4.014 10.86,4.024 10.866,4.034ZM10.811,12.063C10.719,12.245 10.667,12.45 10.667,12.667C10.667,13.403 11.264,14 12,14C12.736,14 13.333,13.403 13.333,12.667C13.333,11.931 12.736,11.333 12,11.333C11.538,11.333 11.131,11.569 10.891,11.926C10.881,11.95 10.869,11.973 10.856,11.996C10.842,12.019 10.827,12.042 10.811,12.063Z"/>
</svg>
