<svg xmlns="http://www.w3.org/2000/svg" width="16" height="16" viewBox="0 0 16 16" fill="currentColor">
    <path d="M6,12.667C6.736,12.667 7.333,13.264 7.333,14C7.333,14.736 6.736,15.333 6,15.333C5.264,15.333 4.667,14.736 4.667,14C4.667,13.264 5.264,12.667 6,12.667ZM13.333,12.667C14.069,12.667 14.667,13.264 14.667,14C14.667,14.736 14.069,15.333 13.333,15.333C12.597,15.333 12,14.736 12,14C12,13.264 12.597,12.667 13.333,12.667ZM4.547,3.333L15.333,3.333C15.532,3.333 15.72,3.422 15.847,3.575C15.974,3.728 16.025,3.93 15.988,4.125L14.922,9.718L14.921,9.723C14.733,10.667 13.891,11.347 12.93,11.333C12.93,11.333 6.457,11.333 6.457,11.333C5.496,11.347 4.653,10.667 4.466,9.724L3.352,4.159C3.348,4.141 3.345,4.122 3.341,4.104L2.787,1.333L0.667,1.333C0.299,1.333 0,1.035 0,0.667C-0,0.299 0.299,0 0.667,0L3.333,0C3.651,0 3.925,0.224 3.987,0.536L4.547,3.333ZM4.814,4.667L5.774,9.463C5.836,9.778 6.119,10.006 6.441,10C6.445,10 6.449,10 6.453,10L12.933,10C12.938,10 12.942,10 12.946,10C13.267,10.006 13.55,9.779 13.613,9.464L14.528,4.667L4.814,4.667Z"/>
</svg>
