<svg xmlns="http://www.w3.org/2000/svg" width="16" height="16" viewBox="0 0 16 16" fill="currentColor">
    <path d="M14.573,9.424C15.051,10.043 15.33,10.812 15.33,11.65C15.33,13.68 13.68,15.32 11.66,15.32C10.82,15.32 10.05,15.04 9.43,14.56C8.97,14.65 8.49,14.71 8,14.71C4.29,14.71 1.28,11.71 1.28,7.99C1.28,7.51 1.34,7.02 1.43,6.56C0.95,5.94 0.67,5.17 0.67,4.33C0.67,2.31 2.31,0.67 4.33,0.67C5.18,0.67 5.95,0.96 6.57,1.44C7.03,1.35 7.51,1.29 8,1.29C11.71,1.29 14.72,4.29 14.72,8.01C14.72,8.484 14.661,8.969 14.573,9.424ZM8.2,12.44L8.18,12.42C9.98,12.42 11.85,11.53 11.85,9.59C11.85,7.93 10.24,7.35 8.88,7.05C7.3,6.68 6.62,6.62 6.62,5.97C6.62,5.46 7.16,5.23 8,5.23C9.5,5.23 9.53,6.33 10.46,6.33C11.08,6.33 11.45,5.84 11.45,5.29C11.45,4.2 9.62,3.48 7.82,3.48C6.17,3.48 4.25,4.2 4.25,6.14C4.25,8.28 6.06,8.5 8.11,9C8.97,9.21 9.49,9.31 9.49,9.92C9.49,10.41 8.94,10.78 8.1,10.78C6.34,10.78 6.24,9.31 5.22,9.31C4.54,9.31 4.25,9.79 4.25,10.31C4.25,11.48 6.05,12.44 8.2,12.44Z"/>
</svg>
