<svg xmlns="http://www.w3.org/2000/svg" width="16" height="16" viewBox="0 0 16 16" fill="currentColor">
    <path d="M12.93,9.08C13,8.74 13.05,8.37 13.05,8C13.05,5.21 10.79,2.96 8.01,2.96C7.64,2.96 7.28,3 6.93,3.08C6.46,2.72 5.88,2.51 5.25,2.51C3.73,2.51 2.5,3.74 2.5,5.26C2.5,5.89 2.71,6.47 3.07,6.93C3,7.27 2.95,7.64 2.95,8.01C2.95,10.8 5.21,13.05 7.99,13.05C8.36,13.05 8.72,13.01 9.07,12.93C9.54,13.29 10.12,13.5 10.74,13.5C12.26,13.5 13.49,12.27 13.49,10.75C13.49,10.12 13.28,9.54 12.92,9.08L12.93,9.08ZM8.15,11.33C6.54,11.33 5.19,10.61 5.19,9.73C5.19,9.34 5.41,8.98 5.91,8.98C6.68,8.98 6.75,10.08 8.07,10.08C8.7,10.08 9.11,9.8 9.11,9.43C9.11,8.97 8.72,8.9 8.08,8.74C6.55,8.36 5.19,8.2 5.19,6.6C5.19,5.15 6.63,4.61 7.87,4.61C9.22,4.61 10.59,5.15 10.59,5.97C10.59,6.39 10.31,6.75 9.85,6.75C9.15,6.75 9.13,5.93 8.01,5.93C7.38,5.93 6.98,6.1 6.98,6.48C6.98,6.97 7.49,7.02 8.68,7.29C9.7,7.52 10.91,7.95 10.91,9.2C10.91,10.65 9.51,11.32 8.16,11.32L8.15,11.33Z"/>
</svg>
