<svg xmlns="http://www.w3.org/2000/svg" width="16" height="16" viewBox="0 0 16 16" fill="currentColor">
    <path d="M2,10L0.667,10C0.299,10 -0,9.701 0,9.333C0,8.965 0.299,8.667 0.667,8.667L4.667,8.667C5.035,8.667 5.333,8.965 5.333,9.333C5.333,9.701 5.035,10 4.667,10L3.333,10L3.333,14C3.333,14.368 3.035,14.667 2.667,14.667C2.299,14.667 2,14.368 2,14L2,10ZM10,6L6,6C5.632,6 5.333,5.701 5.333,5.333C5.333,4.965 5.632,4.667 6,4.667L7.333,4.667L7.333,2C7.333,1.632 7.632,1.333 8,1.333C8.368,1.333 8.667,1.632 8.667,2L8.667,4.667L10,4.667C10.368,4.667 10.667,4.965 10.667,5.333C10.667,5.701 10.368,6 10,6ZM12.667,11.333L11.333,11.333C10.965,11.333 10.667,11.035 10.667,10.667C10.667,10.299 10.965,10 11.333,10L15.333,10C15.701,10 16,10.299 16,10.667C16,11.035 15.701,11.333 15.333,11.333L14,11.333L14,14C14,14.368 13.701,14.667 13.333,14.667C12.965,14.667 12.667,14.368 12.667,14L12.667,11.333ZM3.333,6.667C3.333,7.035 3.035,7.333 2.667,7.333C2.299,7.333 2,7.035 2,6.667L2,2C2,1.632 2.299,1.333 2.667,1.333C3.035,1.333 3.333,1.632 3.333,2L3.333,6.667ZM8.667,14C8.667,14.368 8.368,14.667 8,14.667C7.632,14.667 7.333,14.368 7.333,14L7.333,8C7.333,7.632 7.632,7.333 8,7.333C8.368,7.333 8.667,7.632 8.667,8L8.667,14ZM14,8C14,8.368 13.701,8.667 13.333,8.667C12.965,8.667 12.667,8.368 12.667,8L12.667,2C12.667,1.632 12.965,1.333 13.333,1.333C13.701,1.333 14,1.632 14,2L14,8Z"/>
</svg>
