<svg xmlns="http://www.w3.org/2000/svg" width="16" height="16" viewBox="0 0 16 16" fill="currentColor">
    <path d="M13.9,11.25C11.77,10.22 11.43,8.63 11.41,8.51C11.39,8.37 11.37,8.25 11.53,8.11C11.68,7.97 12.36,7.55 12.54,7.42C12.85,7.2 12.98,6.99 12.89,6.72C12.82,6.54 12.65,6.47 12.47,6.47C12.41,6.47 12.36,6.47 12.3,6.49C11.96,6.56 11.63,6.73 11.44,6.78L11.37,6.78C11.27,6.78 11.23,6.73 11.24,6.61C11.27,6.24 11.32,5.51 11.26,4.84C11.18,3.91 10.88,3.45 10.52,3.04C10.35,2.84 9.54,2 8,2C6.46,2 5.65,2.85 5.48,3.05C5.12,3.46 4.82,3.92 4.74,4.85C4.68,5.53 4.74,6.25 4.76,6.62C4.76,6.74 4.73,6.79 4.63,6.79L4.56,6.79C4.37,6.74 4.04,6.57 3.7,6.5C3.64,6.49 3.59,6.48 3.53,6.48C3.35,6.48 3.18,6.55 3.11,6.73C3.01,6.99 3.15,7.21 3.46,7.43C3.65,7.56 4.32,7.98 4.47,8.12C4.63,8.26 4.61,8.38 4.59,8.52C4.57,8.64 4.23,10.23 2.1,11.26C1.98,11.32 1.76,11.45 2.14,11.65C2.73,11.97 3.12,11.94 3.42,12.13C3.68,12.3 3.52,12.65 3.71,12.78C3.94,12.94 4.62,12.77 5.5,13.06C6.24,13.3 6.69,13.99 8,13.99C9.31,13.99 9.77,13.3 10.49,13.06C11.37,12.77 12.05,12.94 12.28,12.78C12.47,12.65 12.31,12.29 12.57,12.13C12.88,11.93 13.27,11.97 13.85,11.65C14.22,11.44 14.01,11.31 13.89,11.25L13.9,11.25Z"/>
</svg>
