<svg xmlns="http://www.w3.org/2000/svg" width="16" height="16" viewBox="0 0 16 16" fill="currentColor">
    <path d="M14.49,11.58L14.46,11.58C14.6,11.65 14.83,11.79 14.42,12.02C13.78,12.37 13.35,12.33 13.01,12.55C12.72,12.72 12.9,13.12 12.69,13.26C12.43,13.44 11.69,13.25 10.72,13.57C9.93,13.83 9.42,14.59 7.98,14.59C6.54,14.59 6.04,13.83 5.23,13.57C4.26,13.25 3.51,13.44 3.26,13.26C3.05,13.12 3.23,12.74 2.94,12.55C2.61,12.34 2.18,12.37 1.53,12.02C1.12,11.8 1.36,11.66 1.49,11.59C3.83,10.46 4.21,8.71 4.23,8.58C4.25,8.43 4.28,8.29 4.1,8.14C3.94,7.98 3.2,7.52 2.99,7.38C2.65,7.14 2.5,6.9 2.61,6.61C2.69,6.42 2.87,6.34 3.07,6.34C3.14,6.34 3.19,6.35 3.26,6.36C3.64,6.44 4,6.63 4.21,6.68L4.29,6.68C4.4,6.68 4.43,6.62 4.43,6.49C4.41,6.08 4.34,5.29 4.41,4.54C4.49,3.52 4.82,3.01 5.22,2.56C5.41,2.34 6.3,1.41 7.99,1.41C9.68,1.41 10.57,2.33 10.76,2.55C11.15,3 11.48,3.51 11.57,4.53C11.64,5.27 11.58,6.07 11.55,6.48C11.54,6.62 11.58,6.67 11.69,6.67L11.77,6.67C11.98,6.61 12.35,6.43 12.72,6.35C12.79,6.33 12.84,6.33 12.91,6.33C13.11,6.33 13.29,6.4 13.37,6.6C13.47,6.9 13.33,7.13 12.99,7.37C12.79,7.51 12.04,7.98 11.88,8.13C11.71,8.28 11.73,8.42 11.75,8.57C11.78,8.7 12.15,10.45 14.49,11.58Z"/>
</svg>
