<svg xmlns="http://www.w3.org/2000/svg" width="16" height="16" viewBox="0 0 16 16" fill="currentColor">
    <path d="M13.76,9.61C14.08,9.77 14.08,10.23 13.76,10.39L12.59,10.97C12.5,11.02 12.43,11.08 12.39,11.17L11.81,12.34C11.65,12.66 11.19,12.66 11.03,12.34L10.45,11.17C10.4,11.08 10.33,11.01 10.25,10.97L9.08,10.39C8.76,10.23 8.76,9.77 9.08,9.61L10.25,9.03C10.34,8.98 10.41,8.92 10.45,8.83L11.03,7.66C11.19,7.34 11.65,7.34 11.81,7.66L12.39,8.83C12.44,8.92 12.51,8.99 12.59,9.03L13.76,9.61ZM9.09,6.7C9.41,6.86 9.41,7.32 9.09,7.48L7.19,8.43C7.1,8.48 7.03,8.54 6.99,8.63L6.05,10.53C5.89,10.85 5.43,10.85 5.27,10.53L4.33,8.63C4.28,8.54 4.21,8.47 4.13,8.43L2.23,7.48C1.91,7.32 1.91,6.86 2.23,6.7L4.13,5.75C4.22,5.7 4.29,5.64 4.33,5.55L5.27,3.65C5.43,3.33 5.89,3.33 6.05,3.65L6.99,5.55C7.04,5.64 7.11,5.71 7.19,5.75L9.09,6.7Z"/>
</svg>
