<svg xmlns="http://www.w3.org/2000/svg" width="16" height="16" viewBox="0 0 16 16" fill="currentColor">
    <path d="M15.04,9.97C15.43,10.17 15.43,10.73 15.04,10.92L13.61,11.63C13.5,11.69 13.41,11.76 13.37,11.87L12.66,13.3C12.46,13.69 11.9,13.69 11.71,13.3L11,11.87C10.94,11.76 10.85,11.67 10.76,11.63L9.33,10.92C8.94,10.72 8.94,10.16 9.33,9.97L10.76,9.26C10.87,9.2 10.96,9.13 11,9.02L11.71,7.59C11.91,7.2 12.47,7.2 12.66,7.59L13.37,9.02C13.43,9.13 13.52,9.22 13.61,9.26L15.04,9.97ZM9.34,6.42C9.73,6.62 9.73,7.18 9.34,7.37L7.02,8.53C6.91,8.59 6.82,8.66 6.78,8.77L5.63,11.09C5.43,11.48 4.87,11.48 4.68,11.09L3.53,8.77C3.47,8.66 3.38,8.57 3.29,8.53L0.97,7.37C0.58,7.17 0.58,6.61 0.97,6.42L3.29,5.26C3.4,5.2 3.49,5.13 3.53,5.02L4.68,2.7C4.88,2.31 5.44,2.31 5.63,2.7L6.78,5.02C6.84,5.13 6.93,5.22 7.02,5.26L9.34,6.42Z"/>
</svg>
