<svg xmlns="http://www.w3.org/2000/svg" width="16" height="16" viewBox="0 0 16 16" fill="currentColor">
    <path d="M8,0.67C12.05,0.67 15.33,3.96 15.33,8C15.33,12.04 12.04,15.33 8,15.33C3.96,15.33 0.67,12.05 0.67,8C0.67,3.95 3.95,0.67 8,0.67ZM10.98,11.45C11.216,11.445 11.42,11.266 11.42,11C11.42,10.73 11.32,10.62 11.14,10.51C9.04,9.25 6.56,9.2 4.14,9.74C3.92,9.79 3.74,9.93 3.74,10.24C3.74,10.47 3.92,10.7 4.2,10.7C4.28,10.7 4.44,10.65 4.55,10.63C6.66,10.19 8.81,10.24 10.66,11.35C10.78,11.42 10.86,11.46 10.98,11.46L10.98,11.45ZM11.77,9.52L11.78,9.52C12.09,9.52 12.35,9.27 12.35,8.95C12.35,8.69 12.26,8.51 12.02,8.36C10.57,7.5 8.71,7.02 6.79,7.02C5.55,7.02 4.71,7.19 3.89,7.42C3.59,7.5 3.43,7.72 3.43,8.03C3.43,8.34 3.68,8.6 4,8.6C4.13,8.6 4.2,8.57 4.35,8.53C6.79,7.86 9.55,8.3 11.4,9.4C11.51,9.45 11.61,9.52 11.77,9.52ZM12.69,7.27L12.69,7.26C13.04,7.26 13.37,6.98 13.37,6.58C13.37,6.23 13.22,6.04 12.99,5.91C11.34,4.94 9.08,4.49 6.92,4.49C5.65,4.49 4.49,4.63 3.45,4.94C3.18,5.01 2.94,5.26 2.94,5.65C2.94,6.04 3.23,6.35 3.62,6.35C3.76,6.35 3.89,6.3 4,6.28C6.44,5.61 10.21,5.9 12.31,7.16C12.45,7.23 12.53,7.27 12.69,7.27Z"/>
</svg>
