<svg xmlns="http://www.w3.org/2000/svg" width="16" height="16" viewBox="0 0 16 16" fill="currentColor">
    <path d="M8,2C4.69,2 2,4.69 2,8C2,11.31 4.69,14 8,14C11.31,14 14,11.31 14,8C14,4.69 11.31,2 8,2ZM10.44,10.83C10.34,10.83 10.28,10.8 10.18,10.74C8.67,9.83 6.91,9.79 5.18,10.15C5.09,10.17 4.96,10.21 4.89,10.21C4.66,10.21 4.51,10.02 4.51,9.83C4.51,9.58 4.66,9.46 4.84,9.42C6.82,8.98 8.85,9.02 10.57,10.05C10.72,10.14 10.8,10.23 10.8,10.45C10.8,10.67 10.63,10.82 10.43,10.82L10.44,10.83ZM11.09,9.24C10.96,9.24 10.88,9.18 10.79,9.14C9.28,8.24 7.02,7.88 5.02,8.43C4.9,8.46 4.84,8.49 4.73,8.49C4.47,8.49 4.26,8.28 4.26,8.02C4.26,7.76 4.39,7.59 4.64,7.52C5.31,7.33 6,7.19 7.01,7.19C8.58,7.19 10.1,7.58 11.29,8.29C11.49,8.41 11.56,8.56 11.56,8.77C11.56,9.03 11.35,9.24 11.09,9.24ZM11.84,7.4C11.71,7.4 11.64,7.37 11.53,7.31C9.81,6.28 6.73,6.04 4.73,6.59C4.64,6.61 4.53,6.65 4.42,6.65C4.1,6.65 3.86,6.4 3.86,6.08C3.86,5.76 4.06,5.56 4.28,5.5C5.13,5.25 6.08,5.13 7.12,5.13C8.89,5.13 10.74,5.5 12.09,6.29C12.28,6.4 12.4,6.55 12.4,6.84C12.4,7.17 12.13,7.4 11.84,7.4Z"/>
</svg>
