<svg xmlns="http://www.w3.org/2000/svg" width="16" height="16" viewBox="0 0 16 16" fill="currentColor">
    <path d="M8.598,1.038L10.503,4.898L14.763,5.52C15.014,5.557 15.223,5.733 15.301,5.974C15.379,6.216 15.314,6.481 15.132,6.658L12.05,9.66L12.777,13.901C12.82,14.151 12.717,14.404 12.512,14.553C12.307,14.702 12.034,14.722 11.81,14.603L8,12.6L4.19,14.603C3.966,14.722 3.693,14.702 3.488,14.553C3.283,14.404 3.18,14.151 3.223,13.901L3.95,9.66L0.868,6.658C0.686,6.481 0.621,6.216 0.699,5.974C0.777,5.733 0.986,5.557 1.237,5.52L5.497,4.898L7.402,1.038C7.515,0.811 7.746,0.667 8,0.667C8.254,0.667 8.485,0.811 8.598,1.038ZM8,2.839L6.538,5.802C6.441,5.998 6.253,6.135 6.036,6.166L2.766,6.644L5.132,8.949C5.289,9.102 5.361,9.323 5.324,9.539L4.765,12.794L7.69,11.257C7.884,11.154 8.116,11.154 8.31,11.257L11.235,12.794L10.676,9.539C10.639,9.323 10.711,9.102 10.868,8.949L13.234,6.644L9.964,6.166C9.747,6.135 9.559,5.998 9.462,5.802L8,2.839Z"/>
</svg>
