<svg xmlns="http://www.w3.org/2000/svg" width="16" height="16" viewBox="0 0 16 16" fill="currentColor">
    <path d="M8,4C10.208,4 12,5.792 12,8C12,10.208 10.208,12 8,12C5.792,12 4,10.208 4,8C4,5.792 5.792,4 8,4ZM8,5.333C6.528,5.333 5.333,6.528 5.333,8C5.333,9.472 6.528,10.667 8,10.667C9.472,10.667 10.667,9.472 10.667,8C10.667,6.528 9.472,5.333 8,5.333ZM7.333,0.667C7.333,0.299 7.632,0 8,0C8.368,-0 8.667,0.299 8.667,0.667L8.667,2C8.667,2.368 8.368,2.667 8,2.667C7.632,2.667 7.333,2.368 7.333,2L7.333,0.667ZM7.333,14C7.333,13.632 7.632,13.333 8,13.333C8.368,13.333 8.667,13.632 8.667,14L8.667,15.333C8.667,15.701 8.368,16 8,16C7.632,16 7.333,15.701 7.333,15.333L7.333,14ZM2.342,3.285C2.082,3.025 2.082,2.602 2.342,2.342C2.602,2.082 3.025,2.082 3.285,2.342L4.231,3.289C4.492,3.549 4.492,3.971 4.231,4.231C3.971,4.492 3.549,4.492 3.289,4.231L2.342,3.285ZM11.769,12.711C11.508,12.451 11.508,12.029 11.769,11.769C12.029,11.508 12.451,11.508 12.711,11.769L13.658,12.715C13.918,12.975 13.918,13.398 13.658,13.658C13.398,13.918 12.975,13.918 12.715,13.658L11.769,12.711ZM0.667,8.667C0.299,8.667 -0,8.368 0,8C0,7.632 0.299,7.333 0.667,7.333L2,7.333C2.368,7.333 2.667,7.632 2.667,8C2.667,8.368 2.368,8.667 2,8.667L0.667,8.667ZM14,8.667C13.632,8.667 13.333,8.368 13.333,8C13.333,7.632 13.632,7.333 14,7.333L15.333,7.333C15.701,7.333 16,7.632 16,8C16,8.368 15.701,8.667 15.333,8.667L14,8.667ZM3.285,13.658C3.025,13.918 2.602,13.918 2.342,13.658C2.082,13.398 2.082,12.975 2.342,12.715L3.289,11.769C3.549,11.508 3.971,11.508 4.231,11.769C4.492,12.029 4.492,12.451 4.231,12.711L3.285,13.658ZM12.711,4.231C12.451,4.492 12.029,4.492 11.769,4.231C11.508,3.971 11.508,3.549 11.769,3.289L12.715,2.342C12.975,2.082 13.398,2.082 13.658,2.342C13.918,2.602 13.918,3.025 13.658,3.285L12.711,4.231Z"/>
</svg>
