<svg xmlns="http://www.w3.org/2000/svg" width="16" height="16" viewBox="0 0 16 16" fill="currentColor">
    <path d="M14.198,9.411L9.418,14.191C9.043,14.567 8.534,14.778 8.003,14.778C7.473,14.778 6.963,14.567 6.589,14.192L0.862,8.472C0.737,8.347 0.667,8.177 0.667,8L0.667,1.333C0.667,0.965 0.965,0.667 1.333,0.667L8,0.667C8.177,0.667 8.346,0.737 8.471,0.862L14.198,6.589L14.199,6.59C14.97,7.365 14.97,8.635 14.199,9.41L14.198,9.411ZM13.254,8.47C13.511,8.212 13.511,7.788 13.254,7.53C13.254,7.53 7.724,2 7.724,2L2,2L2,7.724L7.531,13.249C7.656,13.374 7.826,13.444 8.003,13.444C8.18,13.444 8.35,13.374 8.475,13.249L13.254,8.47ZM4.667,4C5.035,4 5.333,4.299 5.333,4.667C5.333,5.035 5.035,5.333 4.667,5.333C4.299,5.333 4,5.035 4,4.667C4,4.299 4.299,4 4.667,4Z"/>
</svg>
