<svg xmlns="http://www.w3.org/2000/svg" width="16" height="16" viewBox="0 0 16 16" fill="currentColor">
    <path d="M8,2C4.69,2 2,4.69 2,8C2,11.31 4.69,14 8,14C11.31,14 14,11.31 14,8C14,4.69 11.31,2 8,2ZM10.78,6.08C10.69,7.03 10.3,9.33 10.1,10.39C10.02,10.84 9.85,10.99 9.69,11C9.34,11.03 9.08,10.77 8.74,10.55C8.21,10.2 7.91,9.99 7.4,9.65C6.81,9.26 7.19,9.05 7.53,8.69C7.62,8.6 9.15,7.2 9.18,7.08C9.18,7.06 9.18,7 9.15,6.97C9.12,6.94 9.06,6.95 9.03,6.96C8.98,6.97 8.13,7.53 6.5,8.63C6.26,8.79 6.04,8.87 5.85,8.87C5.63,8.87 5.22,8.75 4.92,8.65C4.54,8.53 4.24,8.46 4.27,8.26C4.28,8.15 4.43,8.04 4.72,7.93C6.47,7.17 7.63,6.67 8.22,6.42C9.89,5.73 10.23,5.61 10.46,5.6C10.51,5.6 10.62,5.61 10.69,5.67C10.74,5.71 10.77,5.77 10.77,5.83C10.78,5.91 10.79,5.99 10.78,6.07L10.78,6.08Z"/>
</svg>
