<svg xmlns="http://www.w3.org/2000/svg" width="16" height="16" viewBox="0 0 16 16" fill="currentColor">
    <path d="M8,0.67C12.05,0.67 15.33,3.96 15.33,8C15.33,12.04 12.04,15.33 8,15.33C3.96,15.33 0.67,12.05 0.67,8C0.67,3.95 3.95,0.67 8,0.67ZM11.4,5.66L11.41,5.66C11.42,5.57 11.41,5.47 11.4,5.37C11.4,5.29 11.36,5.22 11.3,5.17C11.22,5.09 11.08,5.08 11.02,5.08C10.74,5.09 10.32,5.24 8.28,6.08C7.56,6.39 6.14,7 4,7.93C3.65,8.06 3.46,8.2 3.45,8.33C3.41,8.58 3.78,8.66 4.24,8.81C4.61,8.93 5.11,9.08 5.38,9.08C5.61,9.08 5.88,8.99 6.17,8.79C8.16,7.45 9.2,6.76 9.26,6.75C9.3,6.74 9.37,6.72 9.41,6.76C9.45,6.79 9.45,6.87 9.45,6.89C9.41,7.04 7.54,8.75 7.43,8.86C7.01,9.3 6.55,9.55 7.27,10.03C7.9,10.45 8.26,10.7 8.91,11.13C9.32,11.4 9.64,11.72 10.07,11.68C10.26,11.66 10.47,11.48 10.57,10.93C10.81,9.63 11.29,6.82 11.4,5.66Z"/>
</svg>
