<svg xmlns="http://www.w3.org/2000/svg" width="16" height="16" viewBox="0 0 16 16" fill="currentColor">
    <path d="M4.233,6.667L6.724,1.063C6.831,0.822 7.07,0.667 7.333,0.667C8.796,0.667 10,1.87 10,3.333L10,5.333C10,5.333 13.092,5.333 13.099,5.333C13.107,5.333 13.114,5.333 13.122,5.333C14.219,5.333 15.122,6.236 15.122,7.333C15.122,7.434 15.114,7.535 15.099,7.634L14.179,13.633C14.03,14.615 13.172,15.345 12.187,15.333L2.667,15.333C1.569,15.333 0.667,14.431 0.667,13.333L0.667,8.667C0.667,7.569 1.569,6.667 2.667,6.667L4.233,6.667ZM4,14L4,8L2.667,8C2.301,8 2,8.301 2,8.667L2,13.333C2,13.699 2.301,14 2.667,14L4,14ZM8.667,6L8.667,3.333C8.667,2.743 8.274,2.237 7.738,2.064L5.333,7.475L5.333,14L12.187,14C12.189,14 12.192,14 12.194,14C12.525,14.004 12.811,13.76 12.861,13.433L13.781,7.433C13.786,7.4 13.788,7.367 13.788,7.333C13.788,6.968 13.487,6.667 13.122,6.667C13.119,6.667 13.109,6.667 13.107,6.667L9.333,6.667C8.965,6.667 8.667,6.368 8.667,6Z"/>
</svg>
