<svg xmlns="http://www.w3.org/2000/svg" width="16" height="16" viewBox="0 0 16 16" fill="currentColor">
    <path d="M11.333,0.667C11.333,0.667 13.11,0.667 13.11,0.667C14.22,0.651 15.178,1.476 15.327,2.577C15.331,2.607 15.333,2.637 15.333,2.667L15.333,7.333C15.333,7.363 15.331,7.393 15.327,7.423C15.178,8.524 14.22,9.349 13.11,9.333L11.767,9.333L9.276,14.937C9.169,15.178 8.93,15.333 8.667,15.333C7.204,15.333 6,14.13 6,12.667L6,10.667C6,10.667 2.908,10.667 2.901,10.667C2.893,10.667 2.886,10.667 2.878,10.667C1.781,10.667 0.878,9.764 0.878,8.667C0.878,8.566 0.886,8.465 0.901,8.366L1.821,2.367C1.97,1.385 2.828,0.655 3.813,0.667L11.333,0.667ZM12,8L13.113,8C13.117,8 13.121,8 13.125,8C13.552,8.008 13.923,7.701 14,7.282C14,7.282 14,2.718 14,2.715C13.923,2.299 13.552,1.992 13.125,2C13.121,2 13.117,2 13.113,2L12,2L12,8ZM7.333,10L7.333,12.667C7.333,13.257 7.726,13.763 8.262,13.936L10.667,8.525L10.667,2L3.813,2C3.811,2 3.808,2 3.806,2C3.475,1.996 3.189,2.24 3.139,2.567L2.219,8.567C2.214,8.6 2.212,8.633 2.212,8.667C2.212,9.032 2.513,9.333 2.878,9.333C2.881,9.333 2.891,9.333 2.893,9.333L6.667,9.333C7.035,9.333 7.333,9.632 7.333,10Z"/>
</svg>
