<svg xmlns="http://www.w3.org/2000/svg" width="16" height="16" viewBox="0 0 16 16" fill="currentColor">
    <path d="M13.25,6.92C12.22,6.92 11.21,6.6 10.37,6L10.37,10.19C10.37,12.29 8.66,14 6.56,14C4.46,14 2.75,12.29 2.75,10.19C2.75,8.09 4.46,6.38 6.56,6.38C6.74,6.38 6.91,6.39 7.08,6.42L7.08,8.53C6.16,8.24 5.18,8.75 4.89,9.67C4.6,10.59 5.11,11.57 6.03,11.86C6.95,12.15 7.93,11.64 8.22,10.72C8.27,10.55 8.3,10.37 8.3,10.2L8.3,2L10.36,2C10.36,2.17 10.37,2.35 10.4,2.52C10.54,3.29 11,3.97 11.66,4.4C12.13,4.71 12.67,4.87 13.23,4.87L13.23,6.92L13.25,6.92Z"/>
</svg>
