<svg xmlns="http://www.w3.org/2000/svg" width="16" height="16" viewBox="0 0 16 16" fill="currentColor">
    <path d="M13.81,6.8C12.677,6.796 11.555,6.436 10.63,5.78L10.63,10.44C10.63,12.77 8.73,14.67 6.4,14.67C4.07,14.67 2.17,12.77 2.17,10.44C2.17,8.11 4.07,6.21 6.4,6.21C6.6,6.21 6.79,6.22 6.98,6.25L6.98,8.59C5.96,8.27 4.87,8.83 4.55,9.86C4.23,10.89 4.79,11.97 5.82,12.29C6.84,12.61 7.93,12.05 8.25,11.02C8.31,10.83 8.34,10.63 8.34,10.44L8.34,1.33L10.63,1.33C10.63,1.52 10.64,1.72 10.67,1.91C10.83,2.77 11.34,3.52 12.07,4C12.59,4.34 13.19,4.52 13.81,4.52L13.81,6.8Z"/>
</svg>
