<svg xmlns="http://www.w3.org/2000/svg" width="16" height="16" viewBox="0 0 16 16" fill="currentColor">
    <path d="M2.667,4.667L2,4.667C1.632,4.667 1.333,4.368 1.333,4C1.333,3.632 1.632,3.333 2,3.333L4.667,3.333L4.667,2.667C4.667,1.569 5.569,0.667 6.667,0.667L9.333,0.667C10.431,0.667 11.333,1.569 11.333,2.667L11.333,3.333L14,3.333C14.368,3.333 14.667,3.632 14.667,4C14.667,4.368 14.368,4.667 14,4.667L13.333,4.667L13.333,13.333C13.333,14.431 12.431,15.333 11.333,15.333L4.667,15.333C3.569,15.333 2.667,14.431 2.667,13.333L2.667,4.667ZM12,4.667L4,4.667L4,13.333C4,13.699 4.301,14 4.667,14L11.333,14C11.699,14 12,13.699 12,13.333L12,4.667ZM10,3.333L10,2.667C10,2.301 9.699,2 9.333,2L6.667,2C6.301,2 6,2.301 6,2.667L6,3.333L10,3.333Z"/>
</svg>
