<svg xmlns="http://www.w3.org/2000/svg" width="16" height="16" viewBox="0 0 16 16" fill="currentColor">
    <path d="M14.667,5.609L9.471,10.805C9.211,11.065 8.789,11.065 8.529,10.805L5.667,7.943L1.138,12.471C0.878,12.732 0.455,12.732 0.195,12.471C-0.065,12.211 -0.065,11.789 0.195,11.529L5.195,6.529C5.456,6.268 5.878,6.268 6.138,6.529C6.138,6.529 9,9.391 9,9.391L13.724,4.667L11.333,4.667C10.965,4.667 10.667,4.368 10.667,4C10.667,3.632 10.965,3.333 11.333,3.333L15.333,3.333C15.511,3.333 15.679,3.403 15.805,3.529C15.93,3.654 16,3.823 16,4L16,8C16,8.368 15.701,8.667 15.333,8.667C14.965,8.667 14.667,8.368 14.667,8L14.667,5.609Z"/>
</svg>
