<svg xmlns="http://www.w3.org/2000/svg" width="16" height="16" viewBox="0 0 16 16" fill="currentColor">
    <path d="M13.724,11.333C12.019,9.628 9,6.609 9,6.609L6.138,9.471C5.878,9.732 5.456,9.732 5.195,9.471L0.195,4.471C-0.065,4.211 -0.065,3.789 0.195,3.529C0.455,3.268 0.878,3.268 1.138,3.529C1.138,3.529 5.667,8.057 5.667,8.057L8.529,5.195C8.789,4.935 9.211,4.935 9.471,5.195L14.667,10.391L14.667,8C14.667,7.632 14.965,7.333 15.333,7.333C15.701,7.333 16,7.632 16,8L16,12C16,12.177 15.93,12.346 15.805,12.471C15.679,12.597 15.511,12.667 15.333,12.667L11.333,12.667C10.965,12.667 10.667,12.368 10.667,12C10.667,11.632 10.965,11.333 11.333,11.333L13.724,11.333Z"/>
</svg>
