<svg xmlns="http://www.w3.org/2000/svg" width="16" height="16" viewBox="0 0 16 16" fill="currentColor">
    <path d="M1.558,11.333L0.667,11.333C0.298,11.333 0,11.035 0,10.667L0,2C0,1.632 0.298,1.333 0.667,1.333L10.667,1.333C11.035,1.333 11.333,1.632 11.333,2L11.333,4.667L13.333,4.667C13.51,4.667 13.68,4.737 13.805,4.862L15.805,6.862C15.93,6.987 16,7.157 16,7.333L16,10.667C16,11.035 15.702,11.333 15.333,11.333L14.442,11.333C14.586,11.636 14.667,11.976 14.667,12.333C14.667,13.621 13.621,14.667 12.333,14.667C11.046,14.667 10,13.621 10,12.333C10,11.976 10.081,11.636 10.225,11.333L5.775,11.333C5.919,11.636 6,11.976 6,12.333C6,13.621 4.954,14.667 3.667,14.667C2.379,14.667 1.333,13.621 1.333,12.333C1.333,11.976 1.414,11.636 1.558,11.333ZM10,10L10,2.667L1.333,2.667C1.333,2.667 1.333,10 1.333,10L10,10ZM12.333,10C13.315,10 14.667,10 14.667,10C14.667,10 14.667,7.609 14.667,7.609L13.057,6L11.333,6L11.333,10C11.333,10 11.773,10 12.333,10ZM12.333,11.333C11.781,11.333 11.333,11.781 11.333,12.333C11.333,12.885 11.781,13.333 12.333,13.333C12.885,13.333 13.333,12.885 13.333,12.333C13.333,11.781 12.885,11.333 12.333,11.333ZM3.667,11.333C3.115,11.333 2.667,11.781 2.667,12.333C2.667,12.885 3.115,13.333 3.667,13.333C4.219,13.333 4.667,12.885 4.667,12.333C4.667,11.781 4.219,11.333 3.667,11.333Z"/>
</svg>
