<svg xmlns="http://www.w3.org/2000/svg" width="16" height="16" viewBox="0 0 16 16" fill="currentColor">
    <path d="M7.333,9.609L5.805,11.138C5.545,11.398 5.122,11.398 4.862,11.138C4.602,10.878 4.602,10.455 4.862,10.195L7.529,7.529C7.654,7.403 7.823,7.333 8,7.333C8.177,7.333 8.346,7.403 8.471,7.529L11.138,10.195C11.398,10.455 11.398,10.878 11.138,11.138C10.878,11.398 10.455,11.398 10.195,11.138L8.667,9.609L8.667,14C8.667,14.368 8.368,14.667 8,14.667C7.632,14.667 7.333,14.368 7.333,14L7.333,9.609ZM13.912,12.845C13.589,13.021 13.184,12.902 13.008,12.579C12.832,12.256 12.951,11.851 13.274,11.675C14.13,11.208 14.664,10.308 14.664,9.333C14.664,7.871 13.462,6.668 12,6.667L11.16,6.667C10.856,6.667 10.591,6.461 10.515,6.167C9.984,4.114 8.117,2.668 5.996,2.668C3.436,2.668 1.33,4.775 1.33,7.335C1.33,8.473 1.746,9.572 2.5,10.425C2.743,10.701 2.717,11.123 2.441,11.366C2.166,11.61 1.744,11.584 1.5,11.308C0.532,10.212 -0.004,8.798 -0.004,7.335C-0.004,4.043 2.705,1.335 5.996,1.335C8.548,1.335 10.813,2.962 11.653,5.333L12,5.333C14.194,5.335 15.998,7.14 15.998,9.333C15.998,10.795 15.196,12.145 13.912,12.845Z"/>
</svg>
