<svg xmlns="http://www.w3.org/2000/svg" width="16" height="16" viewBox="0 0 16 16" fill="currentColor">
    <path d="M7.333,3.609L5.138,5.805C4.878,6.065 4.455,6.065 4.195,5.805C3.935,5.545 3.935,5.122 4.195,4.862L7.529,1.529C7.654,1.403 7.823,1.333 8,1.333C8.177,1.333 8.346,1.403 8.471,1.529L11.805,4.862C12.065,5.122 12.065,5.545 11.805,5.805C11.545,6.065 11.122,6.065 10.862,5.805C10.862,5.805 9.512,4.455 8.667,3.609L8.667,10C8.667,10.368 8.368,10.667 8,10.667C7.632,10.667 7.333,10.368 7.333,10L7.333,3.609ZM13.333,10C13.333,9.632 13.632,9.333 14,9.333C14.368,9.333 14.667,9.632 14.667,10L14.667,12.667C14.667,13.764 13.764,14.667 12.667,14.667L3.333,14.667C2.236,14.667 1.333,13.764 1.333,12.667L1.333,10C1.333,9.632 1.632,9.333 2,9.333C2.368,9.333 2.667,9.632 2.667,10L2.667,12.667C2.667,13.032 2.968,13.333 3.333,13.333L12.667,13.333C13.032,13.333 13.333,13.032 13.333,12.667L13.333,10Z"/>
</svg>
