<svg xmlns="http://www.w3.org/2000/svg" width="16" height="16" viewBox="0 0 16 16" fill="currentColor">
    <path d="M12,14C12,14.368 11.701,14.667 11.333,14.667C10.965,14.667 10.667,14.368 10.667,14L10.667,12.667C10.667,11.569 9.764,10.667 8.667,10.667L3.333,10.667C2.236,10.667 1.333,11.569 1.333,12.667L1.333,14C1.333,14.368 1.035,14.667 0.667,14.667C0.299,14.667 0,14.368 0,14L0,12.667C-0,10.838 1.505,9.333 3.333,9.333L8.667,9.333C10.495,9.333 12,10.838 12,12.667L12,14ZM6,1.333C7.84,1.333 9.333,2.827 9.333,4.667C9.333,6.506 7.84,8 6,8C4.16,8 2.667,6.506 2.667,4.667C2.667,2.827 4.16,1.333 6,1.333ZM6,2.667C4.896,2.667 4,3.563 4,4.667C4,5.77 4.896,6.667 6,6.667C7.104,6.667 8,5.77 8,4.667C8,3.563 7.104,2.667 6,2.667ZM16,14C16,14.368 15.701,14.667 15.333,14.667C14.965,14.667 14.667,14.368 14.667,14L14.667,12.667C14.666,11.759 14.046,10.959 13.167,10.732C12.81,10.64 12.596,10.276 12.688,9.92C12.78,9.564 13.144,9.349 13.5,9.441C14.966,9.82 15.999,11.152 16,12.666L16,14ZM10.501,2.733C10.145,2.641 9.93,2.278 10.021,1.921C10.112,1.565 10.476,1.35 10.832,1.441C12.302,1.817 13.339,3.152 13.339,4.67C13.339,6.188 12.302,7.523 10.832,7.899C10.476,7.99 10.112,7.775 10.021,7.419C9.93,7.062 10.145,6.699 10.501,6.607C11.383,6.382 12.005,5.581 12.005,4.67C12.005,3.759 11.383,2.958 10.501,2.733Z"/>
</svg>
