<svg xmlns="http://www.w3.org/2000/svg" width="16" height="16" viewBox="0 0 16 16" fill="currentColor">
    <path d="M14,14C14,14.368 13.701,14.667 13.333,14.667C12.965,14.667 12.667,14.368 12.667,14L12.667,12.667C12.667,11.569 11.764,10.667 10.667,10.667L5.333,10.667C4.236,10.667 3.333,11.569 3.333,12.667L3.333,14C3.333,14.368 3.035,14.667 2.667,14.667C2.299,14.667 2,14.368 2,14L2,12.667C2,10.838 3.505,9.333 5.333,9.333L10.667,9.333C12.495,9.333 14,10.838 14,12.667L14,14ZM8,1.333C9.84,1.333 11.333,2.827 11.333,4.667C11.333,6.506 9.84,8 8,8C6.16,8 4.667,6.506 4.667,4.667C4.667,2.827 6.16,1.333 8,1.333ZM8,2.667C6.896,2.667 6,3.563 6,4.667C6,5.77 6.896,6.667 8,6.667C9.104,6.667 10,5.77 10,4.667C10,3.563 9.104,2.667 8,2.667Z"/>
</svg>
