<svg xmlns="http://www.w3.org/2000/svg" width="16" height="16" viewBox="0 0 16 16" fill="currentColor">
    <path d="M13.33,1.33L13.34,1.34C14.07,1.34 14.67,1.93 14.67,2.67L14.67,13.33C14.67,14.06 14.08,14.66 13.34,14.66L2.67,14.66C1.94,14.66 1.34,14.07 1.34,13.33L1.34,2.66C1.34,1.93 1.93,1.33 2.67,1.33L13.33,1.33ZM12.55,5.76L12.54,5.76C12.6,4.5 12.13,3.86 11.14,3.83C9.81,3.79 8.9,4.54 8.43,6.09C9.02,5.84 9.89,5.77 9.79,6.76C9.76,7.1 9.54,7.58 9.14,8.22C8.02,9.98 7.75,9.39 7.13,5.49C6.96,4.39 6.5,3.88 5.75,3.95C5.09,4.01 4.03,5.09 2.92,6.07L3.37,6.65C3.81,6.35 4.06,6.2 4.13,6.2C4.76,6.2 5.08,7.82 5.84,10.6C6.23,11.64 6.71,12.16 7.27,12.16C8.17,12.16 9.28,11.31 10.59,9.61C11.85,7.98 12.51,6.7 12.55,5.76Z"/>
</svg>
