<svg xmlns="http://www.w3.org/2000/svg" width="16" height="16" viewBox="0 0 16 16" fill="currentColor">
    <path d="M12.8,2L3.2,2C2.54,2 2,2.54 2,3.2L2,12.8C2,13.46 2.54,14 3.2,14L12.8,14C13.46,14 14,13.46 14,12.8L14,3.2C14,2.54 13.46,2 12.8,2ZM12.1,5.99C12.06,6.83 11.47,7.99 10.33,9.46C9.15,10.99 8.15,11.76 7.34,11.76C6.83,11.76 6.41,11.29 6.06,10.36C5.38,7.86 5.08,6.4 4.52,6.4C4.46,6.4 4.23,6.54 3.84,6.81L3.43,6.28C4.43,5.4 5.38,4.43 5.98,4.37C6.65,4.31 7.07,4.77 7.23,5.75C7.78,9.26 8.03,9.79 9.04,8.2C9.4,7.63 9.6,7.19 9.62,6.89C9.71,6 8.93,6.06 8.39,6.29C8.82,4.89 9.63,4.22 10.83,4.25C11.72,4.27 12.14,4.85 12.09,5.98L12.1,5.99Z"/>
</svg>
