<svg xmlns="http://www.w3.org/2000/svg" width="16" height="16" viewBox="0 0 16 16" fill="currentColor">
    <path d="M12.2,3.74C11.08,2.62 9.58,2 7.99,2C4.71,2 2.04,4.67 2.04,7.95C2.04,9 2.31,10.02 2.83,10.92L1.99,14L5.14,13.17C6.01,13.64 6.99,13.89 7.98,13.89C11.26,13.89 13.98,11.22 13.98,7.94C13.98,6.35 13.3,4.86 12.18,3.73L12.2,3.74ZM7.99,12.89C7.1,12.89 6.23,12.65 5.47,12.2L5.29,12.09L3.42,12.58L3.92,10.76L3.8,10.57C3.3,9.78 3.04,8.87 3.04,7.94C3.04,5.22 5.26,3 7.98,3C9.3,3 10.54,3.51 11.47,4.45C12.4,5.39 12.98,6.63 12.97,7.95C12.97,10.68 10.7,12.89 7.97,12.89L7.99,12.89ZM10.7,9.19C10.55,9.12 9.82,8.76 9.68,8.71C9.54,8.66 9.44,8.64 9.35,8.78C9.25,8.93 8.97,9.26 8.88,9.36C8.79,9.46 8.71,9.47 8.56,9.4C7.69,8.96 7.11,8.62 6.54,7.63C6.39,7.37 6.69,7.39 6.98,6.82C7.03,6.72 7,6.64 6.97,6.56C6.94,6.48 6.64,5.75 6.51,5.46C6.39,5.17 6.27,5.21 6.18,5.21L5.9,5.21C5.8,5.21 5.64,5.25 5.5,5.39C5.36,5.54 4.98,5.9 4.98,6.63C4.98,7.36 5.51,8.07 5.59,8.17C5.67,8.27 6.64,9.77 8.13,10.41C9.07,10.82 9.44,10.85 9.91,10.78C10.2,10.74 10.79,10.42 10.91,10.07C11.03,9.72 11.03,9.42 11,9.36C10.97,9.29 10.87,9.26 10.72,9.18L10.7,9.19Z"/>
</svg>
