<svg xmlns="http://www.w3.org/2000/svg" width="16" height="16" viewBox="0 0 16 16" fill="currentColor">
    <path d="M13.14,2.78L13.12,2.78C14.49,4.17 15.32,5.99 15.32,7.93C15.32,11.94 12,15.2 7.99,15.2C6.78,15.2 5.58,14.89 4.52,14.32L0.67,15.33L1.7,11.57C1.06,10.47 0.73,9.22 0.73,7.94C0.73,3.93 4,0.67 8,0.66C9.945,0.66 11.771,1.416 13.14,2.78ZM8,13.98C11.331,13.969 14.09,11.273 14.09,7.94C14.11,6.32 13.4,4.81 12.26,3.66C11.12,2.51 9.6,1.89 7.99,1.89C4.67,1.89 1.96,4.6 1.94,7.94C1.94,9.07 2.26,10.18 2.87,11.15L3.02,11.38L2.41,13.6L4.7,13L4.92,13.13C5.85,13.68 6.91,13.97 8,13.97L8,13.98ZM11.31,9.45L11.33,9.44L11.35,9.44C11.53,9.54 11.65,9.57 11.69,9.66C11.73,9.74 11.73,10.1 11.58,10.53C11.44,10.96 10.71,11.35 10.36,11.4C9.78,11.49 9.33,11.45 8.18,10.95C6.36,10.17 5.18,8.33 5.08,8.21C4.98,8.09 4.33,7.23 4.33,6.33C4.33,5.43 4.8,4.99 4.97,4.81C5.14,4.64 5.34,4.59 5.46,4.59L5.8,4.59C5.91,4.59 6.05,4.55 6.2,4.9C6.36,5.25 6.72,6.14 6.76,6.24C6.79,6.34 6.83,6.44 6.77,6.56C6.41,7.26 6.05,7.23 6.23,7.55C6.93,8.76 7.64,9.17 8.7,9.71C8.88,9.79 8.98,9.78 9.09,9.66C9.2,9.54 9.54,9.13 9.66,8.95C9.77,8.77 9.89,8.8 10.06,8.86C10.23,8.92 11.13,9.36 11.31,9.45Z"/>
</svg>
