<svg xmlns="http://www.w3.org/2000/svg" width="16" height="16" viewBox="0 0 16 16" fill="currentColor">
    <path d="M7.057,8L3.529,4.471C3.268,4.211 3.268,3.789 3.529,3.529C3.789,3.268 4.211,3.268 4.471,3.529L8,7.057L11.529,3.529C11.789,3.268 12.211,3.268 12.471,3.529C12.732,3.789 12.732,4.211 12.471,4.471L8.943,8L12.471,11.529C12.732,11.789 12.732,12.211 12.471,12.471C12.211,12.732 11.789,12.732 11.529,12.471L8,8.943L4.471,12.471C4.211,12.732 3.789,12.732 3.529,12.471C3.268,12.211 3.268,11.789 3.529,11.529L7.057,8Z"/>
</svg>
