<svg xmlns="http://www.w3.org/2000/svg" width="16" height="16" viewBox="0 0 16 16" fill="currentColor">
    <path d="M14.23,4.86C14.08,4.3 13.64,3.85 13.08,3.7C12.07,3.43 8,3.43 8,3.43C8,3.43 3.93,3.43 2.92,3.7C2.36,3.85 1.92,4.29 1.77,4.86C1.5,5.88 1.5,8.01 1.5,8.01C1.5,8.01 1.5,10.14 1.77,11.16C1.92,11.72 2.36,12.15 2.92,12.3C3.93,12.57 8,12.57 8,12.57C8,12.57 12.07,12.57 13.08,12.3C13.64,12.15 14.08,11.72 14.23,11.16C14.5,10.14 14.5,8.01 14.5,8.01C14.5,8.01 14.5,5.88 14.23,4.86ZM6.67,9.94L6.67,6.07L10.07,8L6.67,9.93L6.67,9.94Z"/>
</svg>
