<svg xmlns="http://www.w3.org/2000/svg" width="16" height="16" viewBox="0 0 16 16" fill="currentColor">
    <path d="M14.39,4.78C14.67,5.83 14.67,8.01 14.67,8.01C14.67,8.01 14.67,10.19 14.39,11.24C14.24,11.82 13.78,12.26 13.21,12.41C12.17,12.69 8,12.69 8,12.69C8,12.69 3.83,12.69 2.79,12.41C2.22,12.26 1.76,11.81 1.61,11.24C1.33,10.19 1.33,8.01 1.33,8.01C1.33,8.01 1.33,5.83 1.61,4.78C1.76,4.2 2.22,3.74 2.79,3.59C3.83,3.31 8,3.31 8,3.31C8,3.31 12.17,3.31 13.21,3.59C13.78,3.74 14.24,4.21 14.39,4.78ZM6.64,9.98L10.13,8L6.64,6.02L6.64,9.98Z"/>
</svg>
