<svg xmlns="http://www.w3.org/2000/svg" width="16" height="16" viewBox="0 0 16 16" fill="currentColor">
    <path d="M11.021,11.963C10,12.779 8.707,13.267 7.3,13.267C4.007,13.267 1.333,10.593 1.333,7.3C1.333,4.007 4.007,1.333 7.3,1.333C10.593,1.333 13.267,4.007 13.267,7.3C13.267,8.707 12.779,10 11.963,11.021L14.471,13.529C14.732,13.789 14.732,14.211 14.471,14.471C14.211,14.732 13.789,14.732 13.529,14.471L11.021,11.963ZM7.3,2.667C4.743,2.667 2.667,4.743 2.667,7.3C2.667,9.857 4.743,11.933 7.3,11.933C9.857,11.933 11.933,9.857 11.933,7.3C11.933,4.743 9.857,2.667 7.3,2.667ZM5.3,7.967C4.932,7.967 4.633,7.668 4.633,7.3C4.633,6.932 4.932,6.633 5.3,6.633L9.3,6.633C9.668,6.633 9.967,6.932 9.967,7.3C9.967,7.668 9.668,7.967 9.3,7.967L5.3,7.967Z"/>
</svg>
