<?xml version="1.0" encoding="utf-8"?>
<!-- Generator: Adobe Illustrator 26.0.3, SVG Export Plug-In . SVG Version: 6.00 Build 0)  -->
<svg version="1.1" id="Livello_1" xmlns="http://www.w3.org/2000/svg" xmlns:xlink="http://www.w3.org/1999/xlink" x="0px" y="0px"
	 viewBox="0 0 24 24" style="enable-background:new 0 0 24 24;" xml:space="preserve">
<g>
	<path d="M23,17.5L14.6,3.3c-0.4-0.7-1.1-1.2-1.9-1.4c-0.8-0.2-1.6-0.1-2.3,0.3c-0.4,0.2-0.8,0.6-1,1c0,0,0,0,0,0L1,17.5
		c-0.8,1.4-0.3,3.3,1.1,4.1C2.5,21.9,3,22,3.5,22h17c0.8,0,1.6-0.3,2.1-0.9c0.6-0.6,0.9-1.3,0.9-2.1C23.4,18.5,23.3,17.9,23,17.5z
		 M21.2,19.7C21,19.9,20.7,20,20.5,20H3.5c-0.2,0-0.3,0-0.5-0.1c-0.5-0.3-0.6-0.9-0.4-1.4l8.5-14.1c0.1-0.1,0.2-0.3,0.3-0.3
		c0.5-0.3,1.1-0.1,1.4,0.3l8.5,14.1c0.1,0.1,0.1,0.3,0.1,0.5C21.5,19.3,21.3,19.5,21.2,19.7z"/>
	<path d="M12,14c0.6,0,1-0.4,1-1V9c0-0.6-0.4-1-1-1s-1,0.4-1,1v4C11,13.6,11.4,14,12,14z"/>
	<path d="M12,16L12,16c-0.6,0-1,0.4-1,1s0.5,1,1,1s1-0.4,1-1S12.6,16,12,16z"/>
</g>
</svg>
