<svg width="24" height="24" viewBox="0 0 24 24" fill="none" xmlns="http://www.w3.org/2000/svg">
<path d="M23 18.416H1C1.21861 16.4255 1.91355 14.517 3.026 12.852C3.88108 11.5301 5.02907 10.4228 6.381 9.61599L6.757 9.39999L4.905 6.27999C4.87307 6.2276 4.85177 6.16943 4.84233 6.1088C4.83288 6.04817 4.83548 5.98628 4.84997 5.92666C4.86446 5.86704 4.89055 5.81086 4.92676 5.76133C4.96297 5.71179 5.00859 5.66988 5.061 5.63799C5.16524 5.57569 5.28995 5.55733 5.40771 5.58696C5.52548 5.61659 5.62666 5.69178 5.689 5.79599V5.80299L7.6 9.01099C9.01056 8.44758 10.5182 8.16725 12.037 8.18599C13.5288 8.16825 15.0091 8.44874 16.391 9.01099L18.291 5.80299C18.3213 5.75094 18.3616 5.70538 18.4095 5.66891C18.4574 5.63244 18.512 5.60578 18.5703 5.59045C18.6285 5.57512 18.6892 5.57143 18.7489 5.57959C18.8085 5.58775 18.866 5.60759 18.918 5.63799L18.933 5.64699C19.0372 5.71304 19.111 5.81753 19.1385 5.93775C19.1661 6.05797 19.145 6.1842 19.08 6.28899L17.225 9.42399L17.683 9.67999C19.0302 10.5194 20.1683 11.6548 21.011 13C22.0629 14.6377 22.742 16.4867 23 18.416ZM16.125 14.31C16.125 14.4914 16.1788 14.6686 16.2795 14.8194C16.3803 14.9702 16.5235 15.0878 16.6911 15.1572C16.8586 15.2266 17.043 15.2447 17.2209 15.2094C17.3988 15.174 17.5622 15.0866 17.6904 14.9584C17.8187 14.8302 17.906 14.6668 17.9414 14.4889C17.9768 14.311 17.9586 14.1266 17.8892 13.9591C17.8198 13.7915 17.7023 13.6483 17.5515 13.5475C17.4007 13.4468 17.2234 13.393 17.042 13.393C16.9215 13.3929 16.8022 13.4165 16.6909 13.4625C16.5796 13.5086 16.4785 13.5761 16.3933 13.6613C16.3081 13.7465 16.2406 13.8476 16.1945 13.9589C16.1485 14.0702 16.1249 14.1895 16.125 14.31ZM6.042 14.31C6.042 14.4914 6.09581 14.6687 6.19661 14.8195C6.29742 14.9704 6.44069 15.0879 6.60831 15.1573C6.77593 15.2267 6.96036 15.2448 7.13827 15.2093C7.31617 15.1738 7.47957 15.0864 7.60777 14.958C7.73598 14.8297 7.82323 14.6662 7.8585 14.4883C7.89377 14.3103 7.87547 14.1259 7.80591 13.9584C7.73635 13.7908 7.61866 13.6477 7.46773 13.547C7.3168 13.4464 7.13941 13.3928 6.958 13.393C6.83763 13.393 6.71843 13.4167 6.60723 13.4628C6.49603 13.5089 6.39501 13.5765 6.30994 13.6616C6.22486 13.7468 6.15741 13.8479 6.11144 13.9591C6.06546 14.0704 6.04187 14.1896 6.042 14.31Z" fill="black"/>
</svg>
