<svg width="24" height="24" viewBox="0 0 24 24" fill="none" xmlns="http://www.w3.org/2000/svg">
<path d="M7.49005 22.582C7.05702 22.2931 6.67258 21.9374 6.35105 21.528C6.00015 21.105 5.67458 20.6615 5.37605 20.2C4.67437 19.1743 4.12499 18.0523 3.74505 16.869C3.30407 15.5873 3.07408 14.2424 3.06405 12.887C3.03337 11.5788 3.35013 10.2859 3.98205 9.14001C4.43396 8.314 5.09815 7.62357 5.90605 7.14001C6.68804 6.65497 7.58603 6.38903 8.50605 6.37001C8.85539 6.37352 9.20299 6.41986 9.54105 6.50801C9.80705 6.58101 10.128 6.70001 10.522 6.84701C11.022 7.03901 11.3 7.15801 11.392 7.18601C11.6255 7.27994 11.8736 7.33239 12.125 7.34101C12.3266 7.32851 12.5254 7.28847 12.716 7.22201C12.849 7.17601 13.1 7.09401 13.458 6.93801C13.811 6.81001 14.092 6.70001 14.314 6.61801C14.6292 6.51764 14.9506 6.4378 15.276 6.37901C15.6238 6.32301 15.9768 6.30791 16.328 6.33401C16.936 6.37442 17.5347 6.50379 18.105 6.71801C19.0223 7.07274 19.8083 7.70119 20.356 8.51801C20.1199 8.66399 19.8976 8.83136 19.692 9.01801C19.2452 9.41461 18.8647 9.88017 18.565 10.397C18.1723 11.1025 17.969 11.8976 17.975 12.705C17.9684 13.6351 18.2362 14.5464 18.745 15.325C19.1118 15.8858 19.59 16.3651 20.15 16.733C20.389 16.9011 20.6476 17.0394 20.92 17.145C20.81 17.488 20.689 17.823 20.549 18.153C20.2332 18.8922 19.8495 19.6006 19.403 20.269C19.008 20.846 18.696 21.277 18.46 21.561C18.1496 21.9445 17.7855 22.2813 17.379 22.561C16.9846 22.8221 16.522 22.9612 16.049 22.961C15.7288 22.9743 15.4086 22.9351 15.101 22.845C14.836 22.758 14.574 22.66 14.317 22.545C14.0482 22.422 13.7712 22.3178 13.488 22.233C13.14 22.1424 12.7817 22.0974 12.422 22.099C12.0636 22.0983 11.7064 22.1426 11.359 22.231C11.0757 22.3126 10.7981 22.4128 10.528 22.531C10.143 22.692 9.89105 22.797 9.74505 22.843C9.44972 22.9304 9.14545 22.9841 8.83805 23.003C8.35389 22.9994 7.88102 22.8564 7.47605 22.591L7.49005 22.582ZM13.769 5.67001C13.2153 5.96787 12.5898 6.10633 11.962 6.07001C11.8802 5.4358 11.9653 4.79121 12.209 4.20001C12.4202 3.63651 12.7304 3.11531 13.125 2.66101C13.545 2.18551 14.0521 1.79481 14.619 1.51001C15.1534 1.22088 15.7438 1.05034 16.35 1.01001C16.4222 1.65253 16.3438 2.30303 16.121 2.91001C15.9103 3.49617 15.6005 4.04177 15.205 4.52301C14.8036 5.0018 14.3093 5.39435 13.752 5.67701L13.769 5.67001Z" fill="black"/>
</svg>
