<?xml version="1.0" encoding="utf-8"?>
<!-- Generator: Adobe Illustrator 26.0.3, SVG Export Plug-In . SVG Version: 6.00 Build 0)  -->
<svg version="1.1" id="Livello_1" xmlns="http://www.w3.org/2000/svg" xmlns:xlink="http://www.w3.org/1999/xlink" x="0px" y="0px"
	 viewBox="0 0 24 24" style="enable-background:new 0 0 24 24;" xml:space="preserve">
<path d="M17,16H9.4l8.3-8.3c0.4-0.4,0.4-1,0-1.4s-1-0.4-1.4,0L8,14.6V7c0-0.6-0.4-1-1-1S6,6.4,6,7v10c0,0.1,0,0.3,0.1,0.4
	c0.1,0.2,0.3,0.4,0.5,0.5C6.7,18,6.9,18,7,18h10c0.6,0,1-0.4,1-1S17.6,16,17,16z"/>
</svg>
