<?xml version="1.0" encoding="utf-8"?>
<!-- Generator: Adobe Illustrator 26.0.3, SVG Export Plug-In . SVG Version: 6.00 Build 0)  -->
<svg version="1.1" id="Livello_1" xmlns="http://www.w3.org/2000/svg" xmlns:xlink="http://www.w3.org/1999/xlink" x="0px" y="0px"
	 viewBox="0 0 24 24" style="enable-background:new 0 0 24 24;" xml:space="preserve">
<path d="M19.7,11.3c-0.4-0.4-1-0.4-1.4,0L13,16.6V5c0-0.6-0.4-1-1-1s-1,0.4-1,1v11.6l-5.3-5.3c-0.4-0.4-1-0.4-1.4,0s-0.4,1,0,1.4
	l7,7c0.1,0.1,0.2,0.2,0.3,0.2C11.7,20,11.9,20,12,20s0.3,0,0.4-0.1c0.1-0.1,0.2-0.1,0.3-0.2l7-7C20.1,12.3,20.1,11.7,19.7,11.3z"/>
</svg>
