<?xml version="1.0" encoding="utf-8"?>
<!-- Generator: Adobe Illustrator 26.0.3, SVG Export Plug-In . SVG Version: 6.00 Build 0)  -->
<svg version="1.1" id="Livello_1" xmlns="http://www.w3.org/2000/svg" xmlns:xlink="http://www.w3.org/1999/xlink" x="0px" y="0px"
	 viewBox="0 0 24 24" style="enable-background:new 0 0 24 24;" xml:space="preserve">
<path d="M20,8c0-4.4-3.6-8-8-8S4,3.6,4,8c0,2.6,1.2,4.9,3.1,6.3L6,22.9c-0.1,0.4,0.1,0.8,0.4,1c0.3,0.2,0.7,0.2,1.1,0l4.5-2.7
	l4.5,2.7C16.6,24,16.8,24,17,24c0.2,0,0.4-0.1,0.5-0.2c0.3-0.2,0.5-0.6,0.4-1l-1.1-8.5C18.8,12.9,20,10.6,20,8z M6,8
	c0-3.3,2.7-6,6-6s6,2.7,6,6s-2.7,6-6,6S6,11.3,6,8z M15.7,21.1l-3.2-1.9c-0.3-0.2-0.7-0.2-1,0l-3.2,1.9L9,15.4
	c0.9,0.4,1.9,0.6,3,0.6c1.1,0,2.1-0.2,3-0.6L15.7,21.1z"/>
</svg>
