<?xml version="1.0" encoding="utf-8"?>
<!-- Generator: Adobe Illustrator 26.0.3, SVG Export Plug-In . SVG Version: 6.00 Build 0)  -->
<svg version="1.1" id="Livello_1" xmlns="http://www.w3.org/2000/svg" xmlns:xlink="http://www.w3.org/1999/xlink" x="0px" y="0px"
	 viewBox="0 0 24 24" style="enable-background:new 0 0 24 24;" xml:space="preserve">
<g>
	<path d="M16.3,12.3L12,16.6l-4.3-4.3c-0.4-0.4-1-0.4-1.4,0s-0.4,1,0,1.4l5,5c0.2,0.2,0.5,0.3,0.7,0.3s0.5-0.1,0.7-0.3l5-5
		c0.4-0.4,0.4-1,0-1.4S16.7,11.9,16.3,12.3z"/>
	<path d="M11.3,11.7c0.2,0.2,0.5,0.3,0.7,0.3s0.5-0.1,0.7-0.3l5-5c0.4-0.4,0.4-1,0-1.4s-1-0.4-1.4,0L12,9.6L7.7,5.3
		c-0.4-0.4-1-0.4-1.4,0s-0.4,1,0,1.4L11.3,11.7z"/>
</g>
</svg>
