<?xml version="1.0" encoding="utf-8"?>
<!-- Generator: Adobe Illustrator 26.0.3, SVG Export Plug-In . SVG Version: 6.00 Build 0)  -->
<svg version="1.1" id="Livello_1" xmlns="http://www.w3.org/2000/svg" xmlns:xlink="http://www.w3.org/1999/xlink" x="0px" y="0px"
	 viewBox="0 0 24 24" style="enable-background:new 0 0 24 24;" xml:space="preserve">
<g>
	<path d="M7.4,12l4.3-4.3c0.4-0.4,0.4-1,0-1.4s-1-0.4-1.4,0l-5,5c-0.4,0.4-0.4,1,0,1.4l5,5c0.2,0.2,0.5,0.3,0.7,0.3s0.5-0.1,0.7-0.3
		c0.4-0.4,0.4-1,0-1.4L7.4,12z"/>
	<path d="M14.4,12l4.3-4.3c0.4-0.4,0.4-1,0-1.4s-1-0.4-1.4,0l-5,5c-0.4,0.4-0.4,1,0,1.4l5,5c0.2,0.2,0.5,0.3,0.7,0.3
		s0.5-0.1,0.7-0.3c0.4-0.4,0.4-1,0-1.4L14.4,12z"/>
</g>
</svg>
