<?xml version="1.0" encoding="utf-8"?>
<!-- Generator: Adobe Illustrator 26.0.3, SVG Export Plug-In . SVG Version: 6.00 Build 0)  -->
<svg version="1.1" id="Livello_1" xmlns="http://www.w3.org/2000/svg" xmlns:xlink="http://www.w3.org/1999/xlink" x="0px" y="0px"
	 viewBox="0 0 24 24" style="enable-background:new 0 0 24 24;" xml:space="preserve">
<g>
	<path d="M12,1C5.9,1,1,5.9,1,12s4.9,11,11,11s11-4.9,11-11S18.1,1,12,1z M12,21c-5,0-9-4-9-9c0-5,4-9,9-9c5,0,9,4,9,9
		C21,17,17,21,12,21z"/>
	<path d="M15.9,6.8L9.6,8.9C9.3,9,9,9.3,8.9,9.6l-2.1,6.4c-0.1,0.4,0,0.8,0.2,1c0.2,0.2,0.4,0.3,0.7,0.3c0.1,0,0.2,0,0.3-0.1
		l6.4-2.1c0.3-0.1,0.5-0.3,0.6-0.6l2.1-6.4c0.1-0.4,0-0.8-0.2-1C16.7,6.8,16.3,6.7,15.9,6.8z M13.3,13.3l-4,1.3l1.3-4l4-1.3
		L13.3,13.3z"/>
</g>
</svg>
