<?xml version="1.0" encoding="utf-8"?>
<!-- Generator: Adobe Illustrator 26.0.3, SVG Export Plug-In . SVG Version: 6.00 Build 0)  -->
<svg version="1.1" id="Livello_1" xmlns="http://www.w3.org/2000/svg" xmlns:xlink="http://www.w3.org/1999/xlink" x="0px" y="0px"
	 viewBox="0 0 24 24" style="enable-background:new 0 0 24 24;" xml:space="preserve">
<path d="M20,3h-7c-2.8,0-5,2.2-5,5v9.6l-3.3-3.3c-0.4-0.4-1-0.4-1.4,0s-0.4,1,0,1.4l5,5c0.1,0.1,0.2,0.2,0.3,0.2C8.7,21,8.9,21,9,21
	s0.3,0,0.4-0.1c0.1-0.1,0.2-0.1,0.3-0.2l5-5c0.4-0.4,0.4-1,0-1.4s-1-0.4-1.4,0L10,17.6V8c0-1.7,1.3-3,3-3h7c0.6,0,1-0.4,1-1
	S20.6,3,20,3z"/>
</svg>
