<?xml version="1.0" encoding="utf-8"?>
<!-- Generator: Adobe Illustrator 26.0.3, SVG Export Plug-In . SVG Version: 6.00 Build 0)  -->
<svg version="1.1" id="Livello_1" xmlns="http://www.w3.org/2000/svg" xmlns:xlink="http://www.w3.org/1999/xlink" x="0px" y="0px"
	 viewBox="0 0 24 24" style="enable-background:new 0 0 24 24;" xml:space="preserve">
<path d="M20.9,9.4c0.1-0.2,0.1-0.5,0-0.8c-0.1-0.1-0.1-0.2-0.2-0.3l-5-5c-0.4-0.4-1-0.4-1.4,0s-0.4,1,0,1.4L17.6,8H8
	c-2.8,0-5,2.2-5,5v7c0,0.6,0.4,1,1,1s1-0.4,1-1v-7c0-1.7,1.3-3,3-3h9.6l-3.3,3.3c-0.4,0.4-0.4,1,0,1.4c0.2,0.2,0.5,0.3,0.7,0.3
	s0.5-0.1,0.7-0.3l5-5C20.8,9.6,20.9,9.5,20.9,9.4z"/>
</svg>
