<?xml version="1.0" encoding="utf-8"?>
<!-- Generator: Adobe Illustrator 26.0.3, SVG Export Plug-In . SVG Version: 6.00 Build 0)  -->
<svg version="1.1" id="Livello_1" xmlns="http://www.w3.org/2000/svg" xmlns:xlink="http://www.w3.org/1999/xlink" x="0px" y="0px"
	 viewBox="0 0 24 24" style="enable-background:new 0 0 24 24;" xml:space="preserve">
<path d="M20.7,14.3c-0.4-0.4-1-0.4-1.4,0L16,17.6V8c0-2.8-2.2-5-5-5H4C3.4,3,3,3.4,3,4s0.4,1,1,1h7c1.7,0,3,1.3,3,3v9.6l-3.3-3.3
	c-0.4-0.4-1-0.4-1.4,0s-0.4,1,0,1.4l5,5c0.1,0.1,0.2,0.2,0.3,0.2C14.7,21,14.9,21,15,21s0.3,0,0.4-0.1c0.1-0.1,0.2-0.1,0.3-0.2l5-5
	C21.1,15.3,21.1,14.7,20.7,14.3z"/>
</svg>
