<?xml version="1.0" encoding="utf-8"?>
<!-- Generator: Adobe Illustrator 26.0.3, SVG Export Plug-In . SVG Version: 6.00 Build 0)  -->
<svg version="1.1" id="Livello_1" xmlns="http://www.w3.org/2000/svg" xmlns:xlink="http://www.w3.org/1999/xlink" x="0px" y="0px"
	 viewBox="0 0 24 24" style="enable-background:new 0 0 24 24;" xml:space="preserve">
<path d="M20.7,8.3l-5-5c-0.1-0.1-0.2-0.2-0.3-0.2c-0.2-0.1-0.5-0.1-0.8,0c-0.1,0.1-0.2,0.1-0.3,0.2l-5,5c-0.4,0.4-0.4,1,0,1.4
	s1,0.4,1.4,0L14,6.4V16c0,1.7-1.3,3-3,3H4c-0.6,0-1,0.4-1,1s0.4,1,1,1h7c2.8,0,5-2.2,5-5V6.4l3.3,3.3C19.5,9.9,19.7,10,20,10
	s0.5-0.1,0.7-0.3C21.1,9.3,21.1,8.7,20.7,8.3z"/>
</svg>
