<?xml version="1.0" encoding="utf-8"?>
<!-- Generator: Adobe Illustrator 26.0.3, SVG Export Plug-In . SVG Version: 6.00 Build 0)  -->
<svg version="1.1" id="Livello_1" xmlns="http://www.w3.org/2000/svg" xmlns:xlink="http://www.w3.org/1999/xlink" x="0px" y="0px"
	 viewBox="0 0 24 24" style="enable-background:new 0 0 24 24;" xml:space="preserve">
<path d="M20,3c-0.6,0-1,0.4-1,1v7c0,1.7-1.3,3-3,3H6.4l3.3-3.3c0.4-0.4,0.4-1,0-1.4s-1-0.4-1.4,0l-5,5c-0.1,0.1-0.2,0.2-0.2,0.3
	c-0.1,0.2-0.1,0.5,0,0.8c0.1,0.1,0.1,0.2,0.2,0.3l5,5C8.5,20.9,8.7,21,9,21s0.5-0.1,0.7-0.3c0.4-0.4,0.4-1,0-1.4L6.4,16H16
	c2.8,0,5-2.2,5-5V4C21,3.4,20.6,3,20,3z"/>
</svg>
