<svg width="24" height="24" viewBox="0 0 24 24" fill="none" xmlns="http://www.w3.org/2000/svg">
<path d="M18.9299 5.64C17.6599 5.06 16.2899 4.62 14.8599 4.38C14.8299 4.38 14.8099 4.38 14.7899 4.41C14.6099 4.72 14.4199 5.13 14.2799 5.45C12.7399 5.22 11.2099 5.22 9.70988 5.45C9.56988 5.12 9.36988 4.72 9.19988 4.41C9.18988 4.39 9.15988 4.38 9.12988 4.38C7.69988 4.63 6.32988 5.06 5.05988 5.64C5.04988 5.64 5.03988 5.65 5.02988 5.66C2.43988 9.53 1.72988 13.31 2.07988 17.04C2.07988 17.06 2.08988 17.08 2.10988 17.09C3.81988 18.35 5.47988 19.11 7.09988 19.61C7.12988 19.61 7.14988 19.61 7.16988 19.59C7.54988 19.06 7.89988 18.51 8.18988 17.93C8.20988 17.9 8.18988 17.86 8.15988 17.84C7.61988 17.63 7.09988 17.38 6.59988 17.1C6.55988 17.08 6.55988 17.02 6.59988 16.99C6.69988 16.91 6.80988 16.83 6.90988 16.75C6.92988 16.73 6.94988 16.73 6.96988 16.75C10.2399 18.24 13.7899 18.24 17.0199 16.75C17.0399 16.74 17.0699 16.75 17.0899 16.75C17.1899 16.83 17.2899 16.92 17.3999 16.99C17.4399 17.02 17.4299 17.07 17.3999 17.1C16.8999 17.39 16.3799 17.64 15.8399 17.84C15.7999 17.85 15.7899 17.89 15.8099 17.93C16.1099 18.51 16.4499 19.07 16.8299 19.59C16.8499 19.61 16.8699 19.62 16.8999 19.61C18.5299 19.1 20.1899 18.34 21.8999 17.09C21.9099 17.08 21.9199 17.06 21.9299 17.04C22.3499 12.73 21.2299 8.98 18.9699 5.66C18.9699 5.65 18.9599 5.64 18.9399 5.64H18.9299ZM8.67988 14.78C7.68988 14.78 6.87988 13.88 6.87988 12.76C6.87988 11.64 7.67988 10.74 8.67988 10.74C9.67988 10.74 10.4899 11.65 10.4799 12.76C10.4799 13.87 9.67988 14.78 8.67988 14.78ZM15.3299 14.78C14.3399 14.78 13.5299 13.88 13.5299 12.76C13.5299 11.64 14.3299 10.74 15.3299 10.74C16.3299 10.74 17.1399 11.65 17.1299 12.76C17.1299 13.87 16.3399 14.78 15.3299 14.78Z" fill="black"/>
</svg>
