<svg width="24" height="24" viewBox="0 0 24 24" fill="none" xmlns="http://www.w3.org/2000/svg">
<g clip-path="url(#clip0_3_463)">
<path fill-rule="evenodd" clip-rule="evenodd" d="M7.29295 16.2929C7.68347 15.9024 8.31664 15.9024 8.70716 16.2929L12.0001 19.5858L15.2929 16.2929C15.6835 15.9024 16.3166 15.9024 16.7072 16.2929C17.0977 16.6834 17.0977 17.3166 16.7072 17.7071L12.7072 21.7071C12.3166 22.0976 11.6835 22.0976 11.2929 21.7071L7.29295 17.7071C6.90242 17.3166 6.90242 16.6834 7.29295 16.2929Z" fill="black"/>
<path fill-rule="evenodd" clip-rule="evenodd" d="M12.0001 11C12.5523 11 13.0001 11.4477 13.0001 12V21C13.0001 21.5523 12.5523 22 12.0001 22C11.4478 22 11.0001 21.5523 11.0001 21V12C11.0001 11.4477 11.4478 11 12.0001 11Z" fill="black"/>
<path fill-rule="evenodd" clip-rule="evenodd" d="M8.66764 1.99416C10.0281 1.94523 11.382 2.20558 12.6273 2.7556C13.8726 3.30562 14.9769 4.13098 15.8571 5.16954C16.5676 6.0079 17.1171 6.96755 17.4805 7.99999L17.9993 7.99999C19.2744 7.99916 20.5174 8.40459 21.5466 9.15747C22.5759 9.9105 23.3385 10.972 23.7237 12.1878C24.109 13.4036 24.0967 14.7106 23.6888 15.919C23.2809 17.1274 22.4985 18.1744 21.4553 18.908C21.0035 19.2257 20.3797 19.117 20.0621 18.6652C19.7444 18.2134 19.8531 17.5897 20.3048 17.272C21.0004 16.7829 21.5219 16.0849 21.7939 15.2793C22.0658 14.4737 22.074 13.6024 21.8172 12.7919C21.5603 11.9813 21.0519 11.2737 20.3657 10.7716C19.6795 10.2696 18.8511 9.99933 18.0008 9.99999H16.7401C16.2835 9.99999 15.8849 9.69077 15.7714 9.24854C15.5083 8.22293 15.0159 7.27038 14.3313 6.46261C13.6467 5.65484 12.7878 5.01289 11.8192 4.5851C10.8507 4.1573 9.79767 3.95481 8.73952 3.99286C7.68137 4.03092 6.64563 4.30852 5.71029 4.80479C4.77495 5.30105 3.96438 6.00303 3.3396 6.85789C2.71482 7.71275 2.2921 8.6982 2.10329 9.74007C1.91447 10.7819 1.96447 11.8531 2.24952 12.8728C2.53457 13.8926 3.04724 14.8343 3.74893 15.6273C4.11494 16.0409 4.07636 16.6729 3.66276 17.0389C3.24917 17.4049 2.61718 17.3663 2.25118 16.9527C1.34899 15.9332 0.689844 14.7223 0.323353 13.4112C-0.0431378 12.1001 -0.10742 10.723 0.135344 9.38342C0.378109 8.04388 0.921595 6.77686 1.72489 5.67776C2.52818 4.57865 3.57034 3.67611 4.77292 3.03806C5.9755 2.40001 7.30716 2.04308 8.66764 1.99416Z" fill="black"/>
</g>
<defs>
<clipPath id="clip0_3_463">
<rect width="24" height="24" fill="white"/>
</clipPath>
</defs>
</svg>
