<svg width="24" height="24" viewBox="0 0 24 24" fill="none" xmlns="http://www.w3.org/2000/svg">
<path d="M12 22C10.0222 22 8.08879 21.4135 6.4443 20.3147C4.79981 19.2159 3.51809 17.6541 2.76121 15.8268C2.00433 13.9996 1.8063 11.9889 2.19215 10.0491C2.578 8.10929 3.53041 6.32746 4.92894 4.92894C6.32746 3.53041 8.10929 2.578 10.0491 2.19215C11.9889 1.8063 13.9996 2.00433 15.8268 2.76121C17.6541 3.51809 19.2159 4.79981 20.3147 6.4443C21.4135 8.08879 22 10.0222 22 12C21.9963 14.651 20.9415 17.1924 19.067 19.067C17.1924 20.9415 14.651 21.9963 12 22ZM20.433 13.368C18.7066 12.8653 16.8922 12.7398 15.113 13C15.8395 14.9788 16.3949 17.0163 16.773 19.09C17.7419 18.4361 18.5666 17.5909 19.1966 16.6063C19.8266 15.6218 20.2483 14.5187 20.436 13.365L20.433 13.368ZM15.333 19.875C14.9324 17.6639 14.3226 15.4958 13.512 13.4L13.457 13.417C10.6286 14.2814 8.23387 16.1876 6.757 18.75C7.95569 19.686 9.38303 20.2841 10.8909 20.4823C12.3988 20.6805 13.9322 20.4715 15.332 19.877L15.333 19.875ZM5.65 17.725C7.26134 15.1131 9.71174 13.1256 12.6 12.088C12.713 12.05 12.825 12.018 12.938 11.988C12.721 11.5 12.488 11.015 12.245 10.538C9.38935 11.3535 6.43281 11.7616 3.463 11.75V12.01C3.46321 14.1211 4.2472 16.157 5.663 17.723L5.65 17.725ZM3.637 10.263C6.30354 10.2491 8.95772 9.89965 11.537 9.223C10.5709 7.52064 9.51365 5.87158 8.37 4.283C7.17383 4.84619 6.12432 5.67871 5.3037 6.71533C4.48308 7.75195 3.91364 8.96451 3.64 10.258L3.637 10.263ZM10 3.71C11.1692 5.30566 12.2332 6.97587 13.185 8.71C14.9428 8.13275 16.4973 7.06179 17.663 5.625C16.6354 4.71052 15.4016 4.05849 14.0671 3.72466C12.7326 3.39082 11.3372 3.38511 10 3.708V3.71ZM18.613 6.61C17.3416 8.12666 15.6979 9.28691 13.843 9.977C14.043 10.385 14.234 10.798 14.409 11.215C14.476 11.366 14.534 11.515 14.593 11.657C16.579 11.4516 18.5845 11.5443 20.543 11.932C20.5303 9.99132 19.8506 8.11404 18.618 6.615L18.613 6.61Z" fill="black"/>
</svg>
