<?xml version="1.0" encoding="utf-8"?>
<!-- Generator: Adobe Illustrator 26.0.3, SVG Export Plug-In . SVG Version: 6.00 Build 0)  -->
<svg version="1.1" id="Livello_1" xmlns="http://www.w3.org/2000/svg" xmlns:xlink="http://www.w3.org/1999/xlink" x="0px" y="0px"
	 viewBox="0 0 24 24" style="enable-background:new 0 0 24 24;" xml:space="preserve">
<path d="M12,1.9C6.4,1.9,1.9,6.4,1.9,12c0,4.9,3.6,9.2,8.5,9.9v-7H7.9V12h2.6V9.8c-0.2-2,1.2-3.7,3.2-3.9c0.2,0,0.4,0,0.6,0
	c0.8,0,1.5,0.1,2.3,0.2v2.5h-1.3c-0.8-0.1-1.5,0.5-1.6,1.2c0,0.1,0,0.2,0,0.3V12h2.8l-0.4,2.9h-2.3v7c4.9-0.8,8.5-5,8.5-9.9
	C22.1,6.4,17.6,1.9,12,1.9z"/>
</svg>
