<svg width="24" height="24" viewBox="0 0 24 24" fill="none" xmlns="http://www.w3.org/2000/svg">
<path d="M22.06 11.987C22.0597 10.0643 21.5085 8.18205 20.4717 6.56293C19.4348 4.94381 17.9558 3.65568 16.2096 2.85104C14.4635 2.04639 12.5233 1.75892 10.6188 2.02267C8.71436 2.28642 6.92534 3.09033 5.46357 4.33924C4.0018 5.58815 2.92848 7.22976 2.37069 9.06971C1.81291 10.9097 1.794 12.8709 2.31622 14.7213C2.83844 16.5716 3.87991 18.2336 5.31734 19.5105C6.75477 20.7873 8.52796 21.6256 10.427 21.926V14.9H7.87199V11.987H10.427V9.77099C10.3721 9.25332 10.4318 8.72992 10.6017 8.23786C10.7716 7.7458 11.0476 7.29711 11.4101 6.92357C11.7727 6.55003 12.213 6.26077 12.6997 6.07628C13.1865 5.89179 13.7079 5.81659 14.227 5.85599C14.9815 5.86749 15.7342 5.93433 16.479 6.05599V8.52899H15.211C14.9948 8.50022 14.7749 8.52045 14.5676 8.58819C14.3603 8.65593 14.1709 8.76943 14.0134 8.9203C13.8559 9.07117 13.7344 9.25553 13.6578 9.45974C13.5812 9.66395 13.5515 9.88276 13.571 10.1V11.987H16.362L15.915 14.9H13.571V21.93C15.9381 21.5549 18.0937 20.3474 19.6499 18.5246C21.2061 16.7019 22.0607 14.3837 22.06 11.987Z" fill="black"/>
</svg>
