<svg width="24" height="24" viewBox="0 0 24 24" fill="none" xmlns="http://www.w3.org/2000/svg">
<path d="M16 17C14.3 17 12.9 16.5 11.6 15.9C10.4 15.5 9.3 15 8 15C5.6 15 4.7 15.7 4.7 15.7C4.4 16 4 16.1 3.6 15.9C3.2 15.7 3 15.4 3 15V3C3 2.7 3.1 2.5 3.3 2.3C3.5 2.1 4.8 1 8 1C9.7 1 11.1 1.5 12.4 2.1C13.6 2.5 14.7 3 16 3C18.4 3 19.3 2.3 19.3 2.3C19.6 2 20 1.9 20.4 2.1C20.8 2.3 21 2.6 21 3V15C21 15.3 20.9 15.5 20.7 15.7C20.5 15.9 19.2 17 16 17ZM8 13C9.7 13 11.1 13.5 12.4 14.1C13.6 14.6 14.7 15 16 15C17.6 15 18.6 14.7 19 14.5V4.6C18.3 4.8 17.3 5 16 5C14.3 5 12.9 4.5 11.6 3.9C10.4 3.5 9.3 3 8 3C6.4 3 5.4 3.3 5 3.5V13.4C5.7 13.2 6.7 13 8 13Z" fill="black"/>
<path d="M4 23C3.4 23 3 22.6 3 22V15C3 14.4 3.4 14 4 14C4.6 14 5 14.4 5 15V22C5 22.6 4.6 23 4 23Z" fill="black"/>
</svg>
