<svg width="24" height="24" viewBox="0 0 24 24" fill="none" xmlns="http://www.w3.org/2000/svg">
<path fill-rule="evenodd" clip-rule="evenodd" d="M22 6H19.6C19.9 5.5 20 5 20 4.5C20 2.6 18.4 1 16.5 1C14.2 1 12.8 2.6 12 4.1C11.2 2.6 9.8 1 7.5 1C5.6 1 4 2.6 4 4.5C4 5 4.1 5.5 4.4 6H2C1.4 6 1 6.4 1 7V12C1 12.6 1.4 13 2 13H3V22C3 22.6 3.4 23 4 23H20C20.6 23 21 22.6 21 22V13H22C22.6 13 23 12.6 23 12V7C23 6.4 22.6 6 22 6ZM16.5 3C17.3 3 18 3.7 18 4.5C18 5.3 17.3 6 16.5 6H13.3C13.8 4.8 14.8 3 16.5 3ZM6 4.5C6 3.7 6.7 3 7.5 3C9.2 3 10.2 4.8 10.7 6H7.5C6.7 6 6 5.3 6 4.5ZM3 8H11V11H3V8ZM5 13H11V21H5V13ZM19 21H13V13H19V21ZM21 11H13V8H21V11Z" fill="black"/>
</svg>
