<svg width="24" height="24" viewBox="0 0 24 24" fill="none" xmlns="http://www.w3.org/2000/svg">
<path d="M12.0001 2.24699C9.62492 2.24599 7.32692 3.09044 5.51755 4.62916C3.70817 6.16788 2.50556 8.3004 2.12504 10.6449C1.74451 12.9894 2.21092 15.3928 3.44075 17.4248C4.67058 19.4568 6.58352 20.9847 8.8371 21.735C9.3371 21.829 9.5211 21.52 9.5211 21.254C9.5211 21.017 9.5121 20.387 9.5081 19.554C6.7271 20.154 6.1401 18.212 6.1401 18.212C5.95549 17.6074 5.56071 17.0889 5.0271 16.75C4.1221 16.13 5.0981 16.142 5.0981 16.142C5.41487 16.1858 5.71746 16.3013 5.98279 16.4798C6.24812 16.6583 6.46917 16.8951 6.6291 17.172C6.76499 17.4186 6.94841 17.6359 7.16877 17.8112C7.38913 17.9866 7.64206 18.1165 7.91293 18.1935C8.1838 18.2705 8.46724 18.293 8.74688 18.2598C9.02651 18.2266 9.2968 18.1383 9.5421 18C9.58651 17.493 9.81108 17.0187 10.1751 16.663C7.9541 16.413 5.6201 15.553 5.6201 11.721C5.60595 10.7289 5.97446 9.7695 6.6491 9.04199C6.33805 8.1827 6.36956 7.23668 6.7371 6.39999C6.7371 6.39999 7.5741 6.13199 9.4871 7.42499C11.1233 6.97434 12.8509 6.97434 14.4871 7.42499C16.3871 6.13199 17.2241 6.39999 17.2241 6.39999C17.5875 7.23872 17.6232 8.18323 17.3241 9.04699C17.9973 9.77674 18.3642 10.7373 18.3491 11.73C18.3491 15.572 16.0121 16.417 13.7871 16.663C14.024 16.9061 14.2067 17.1967 14.3231 17.5156C14.4394 17.8345 14.4868 18.1744 14.4621 18.513C14.4621 19.852 14.4491 20.927 14.4491 21.252C14.4491 21.514 14.6241 21.827 15.1371 21.727C17.3977 20.9867 19.3198 19.464 20.5577 17.4329C21.7956 15.4017 22.268 12.9954 21.8898 10.647C21.5116 8.29855 20.3077 6.1622 18.4948 4.62232C16.6818 3.08244 14.3788 2.24015 12.0001 2.24699Z" fill="black"/>
</svg>
