<?xml version="1.0" encoding="utf-8"?>
<!-- Generator: Adobe Illustrator 26.0.3, SVG Export Plug-In . SVG Version: 6.00 Build 0)  -->
<svg version="1.1" id="Livello_1" xmlns="http://www.w3.org/2000/svg" xmlns:xlink="http://www.w3.org/1999/xlink" x="0px" y="0px"
	 viewBox="0 0 24 24" style="enable-background:new 0 0 24 24;" xml:space="preserve">
<path d="M21.5,9.1C20.2,5,16.3,2.2,12,2.2c-5.5,0-10,4.5-10,10c0,4.3,2.8,8.1,6.8,9.5c0.5,0.1,0.7-0.2,0.7-0.5c0-0.2,0-0.9,0-1.7
	c-2.8,0.6-3.4-1.3-3.4-1.3C6,17.6,5.6,17.1,5,16.8c-0.9-0.6,0.1-0.6,0.1-0.6c0.6,0.1,1.2,0.5,1.5,1c0.6,1,1.9,1.4,2.9,0.8
	c0,0,0,0,0,0c0-0.5,0.3-1,0.6-1.3c-2.2-0.2-4.6-1.1-4.6-4.9c0-1,0.4-2,1-2.7C6.3,8.2,6.4,7.2,6.7,6.4c0,0,0.8-0.3,2.8,1
	c1.6-0.5,3.4-0.5,5,0c1.9-1.3,2.7-1,2.7-1c0.4,0.8,0.4,1.8,0.1,2.6c0.7,0.7,1,1.7,1,2.7c0,3.8-2.3,4.7-4.6,4.9
	c0.5,0.5,0.7,1.2,0.7,1.8c0,1.3,0,2.4,0,2.7c0,0.3,0.2,0.6,0.7,0.5C20.4,20,23.2,14.4,21.5,9.1z"/>
</svg>
