<svg width="24" height="24" viewBox="0 0 24 24" fill="none" xmlns="http://www.w3.org/2000/svg">
<path d="M12.1899 10.642V13.9H17.5779C17.3309 15.1211 16.6478 16.2106 15.6564 16.9651C14.6649 17.7196 13.4328 18.0874 12.1899 18C10.5986 18 9.07252 17.3679 7.9473 16.2427C6.82208 15.1174 6.18994 13.5913 6.18994 12C6.18994 10.4087 6.82208 8.88259 7.9473 7.75737C9.07252 6.63215 10.5986 6.00001 12.1899 6.00001C13.596 5.97076 14.957 6.49675 15.9779 7.46401L18.5539 4.97901C16.834 3.35922 14.5524 2.47044 12.1899 2.50001C9.67038 2.50001 7.25402 3.5009 5.47243 5.2825C3.69083 7.06409 2.68994 9.48046 2.68994 12C2.68994 14.5196 3.69083 16.9359 5.47243 18.7175C7.25402 20.4991 9.67038 21.5 12.1899 21.5C17.6729 21.5 21.3099 17.645 21.3099 12.217C21.3084 11.6885 21.2582 11.1613 21.1599 10.642H12.1899Z" fill="black"/>
</svg>
