<svg width="24" height="24" viewBox="0 0 24 24" fill="none" xmlns="http://www.w3.org/2000/svg">
<path fill-rule="evenodd" clip-rule="evenodd" d="M14.462 2.49325C15.2508 2.16641 16.0963 1.99818 16.9501 1.99818C17.804 1.99818 18.6495 2.16641 19.4383 2.49325C20.2269 2.82004 20.9435 3.29898 21.5471 3.90273C22.1508 4.50628 22.6301 5.22319 22.9569 6.01186C23.2837 6.80067 23.4519 7.64615 23.4519 8.5C23.4519 9.35385 23.2837 10.1993 22.9569 10.9881C22.6301 11.7769 22.1511 12.4935 21.5472 13.0971V13.0971L12.7072 21.9371C12.3167 22.3276 11.6835 22.3276 11.293 21.9371L2.45301 13.0971C1.23378 11.8779 0.548828 10.2243 0.548828 8.5C0.548828 6.77575 1.23378 5.12212 2.45301 3.9029C3.67224 2.68367 5.32587 1.99871 7.05012 1.99871C8.77437 1.99871 10.428 2.68367 11.6472 3.9029L12.0001 4.25579L12.3528 3.90306V3.90306C12.9564 3.29924 13.6732 2.82007 14.462 2.49325ZM16.9501 3.99818C16.359 3.99818 15.7737 4.11464 15.2276 4.34092C14.6815 4.5672 14.1853 4.89886 13.7674 5.31694L12.7072 6.37711C12.3167 6.76763 11.6835 6.76763 11.293 6.37711L10.233 5.31711C9.38886 4.47295 8.24394 3.99871 7.05012 3.99871C5.8563 3.99871 4.71138 4.47295 3.86723 5.31711C3.02307 6.16126 2.54883 7.30619 2.54883 8.5C2.54883 9.69382 3.02307 10.8387 3.86723 11.6829L12.0001 19.8158L20.133 11.6829C20.5511 11.265 20.8829 10.7687 21.1092 10.2226C21.3355 9.67646 21.4519 9.09113 21.4519 8.5C21.4519 7.90888 21.3355 7.32354 21.1092 6.77744C20.8829 6.23134 20.5513 5.73517 20.1332 5.31728C19.7153 4.89919 19.2188 4.5672 18.6727 4.34092C18.1266 4.11464 17.5412 3.99818 16.9501 3.99818Z" fill="black"/>
</svg>
