<svg width="24" height="24" viewBox="0 0 24 24" fill="none" xmlns="http://www.w3.org/2000/svg">
<g clip-path="url(#clip0_3_1167)">
<path fill-rule="evenodd" clip-rule="evenodd" d="M11.3861 1.21065C11.7472 0.929784 12.2528 0.929784 12.6139 1.21065L21.6139 8.21065C21.8575 8.4001 22 8.69141 22 9V20C22 20.7957 21.6839 21.5587 21.1213 22.1213C20.5587 22.6839 19.7956 23 19 23H15C14.4477 23 14 22.5523 14 22V13H10V22C10 22.5523 9.55228 23 9 23H5C4.20435 23 3.44129 22.6839 2.87868 22.1213C2.31607 21.5587 2 20.7957 2 20V9C2 8.69141 2.14247 8.4001 2.38606 8.21065L11.3861 1.21065ZM4 9.48909V20C4 20.2652 4.10536 20.5196 4.29289 20.7071C4.48043 20.8946 4.73478 21 5 21H8V12C8 11.4477 8.44771 11 9 11H15C15.5523 11 16 11.4477 16 12V21H19C19.2652 21 19.5196 20.8946 19.7071 20.7071C19.8946 20.5196 20 20.2652 20 20V9.48909L12 3.26686L4 9.48909Z" fill="black"/>
</g>
<defs>
<clipPath id="clip0_3_1167">
<rect width="24" height="24" fill="white"/>
</clipPath>
</defs>
</svg>
