<?xml version="1.0" encoding="utf-8"?>
<!-- Generator: Adobe Illustrator 26.0.3, SVG Export Plug-In . SVG Version: 6.00 Build 0)  -->
<svg version="1.1" id="Livello_1" xmlns="http://www.w3.org/2000/svg" xmlns:xlink="http://www.w3.org/1999/xlink" x="0px" y="0px"
	 viewBox="0 0 24 24" style="enable-background:new 0 0 24 24;" xml:space="preserve">
<path d="M21.6,8.2l-9-7c-0.4-0.3-0.9-0.3-1.2,0l-9,7C2.1,8.4,2,8.7,2,9v11c0,1.7,1.3,3,3,3h14c1.7,0,3-1.3,3-3V9
	C22,8.7,21.9,8.4,21.6,8.2z M20,20c0,0.6-0.4,1-1,1H5c-0.6,0-1-0.4-1-1V9.5l8-6.2l8,6.2V20z"/>
</svg>
