<?xml version="1.0" encoding="utf-8"?>
<!-- Generator: Adobe Illustrator 26.0.3, SVG Export Plug-In . SVG Version: 6.00 Build 0)  -->
<svg version="1.1" id="Livello_1" xmlns="http://www.w3.org/2000/svg" xmlns:xlink="http://www.w3.org/1999/xlink" x="0px" y="0px"
	 viewBox="0 0 24 24" style="enable-background:new 0 0 24 24;" xml:space="preserve">
<g>
	<path d="M12,1C5.9,1,1,5.9,1,12s4.9,11,11,11s11-4.9,11-11S18.1,1,12,1z M12,21c-5,0-9-4-9-9c0-5,4-9,9-9c5,0,9,4,9,9
		C21,17,17,21,12,21z"/>
	<path d="M12,11c-0.6,0-1,0.4-1,1v4c0,0.6,0.4,1,1,1s1-0.4,1-1v-4C13,11.4,12.6,11,12,11z"/>
	<path d="M12,7L12,7c-0.6,0-1,0.4-1,1s0.5,1,1,1s1-0.4,1-1S12.6,7,12,7z"/>
</g>
</svg>
