<svg width="24" height="24" viewBox="0 0 24 24" fill="none" xmlns="http://www.w3.org/2000/svg">
<path fill-rule="evenodd" clip-rule="evenodd" d="M21.7071 1.29289C22.0977 1.68342 22.0977 2.31658 21.7071 2.70711L20.4142 4L22.7071 6.29289C23.0977 6.68342 23.0977 7.31658 22.7071 7.70711L19.2071 11.2071C18.8166 11.5976 18.1834 11.5976 17.7929 11.2071L15.5 8.91421L12.7536 11.6607C13.061 12.0765 13.3185 12.5285 13.5197 13.0075C13.8518 13.7978 14.0242 14.646 14.0271 15.5033C14.0299 16.3605 13.8632 17.2099 13.5365 18.0024C13.2097 18.795 12.7295 19.5151 12.1233 20.1213C11.5171 20.7274 10.797 21.2077 10.0045 21.5344C9.21192 21.8612 8.36256 22.0279 7.50531 22.025C6.64806 22.0221 5.79984 21.8497 5.0095 21.5177C4.21916 21.1857 3.5023 20.7006 2.9002 20.0904L2.8927 20.0828C1.70867 18.8568 1.05355 17.2149 1.06836 15.5106C1.08317 13.8063 1.76677 12.176 2.97192 10.9709C4.17707 9.76574 5.80736 9.08214 7.51163 9.06733C8.88446 9.0554 10.2168 9.47819 11.3239 10.2619L20.2929 1.29289C20.6834 0.902369 21.3166 0.902369 21.7071 1.29289ZM10.7219 12.3559C10.7126 12.3476 10.7034 12.339 10.6943 12.3303C9.84561 11.5106 8.7089 11.057 7.52901 11.0673C6.34913 11.0775 5.22047 11.5508 4.38613 12.3851C3.5518 13.2194 3.07854 14.3481 3.06829 15.528C3.05805 16.7061 3.51025 17.8412 4.32763 18.6895C4.74368 19.1101 5.23863 19.4446 5.78414 19.6738C6.3313 19.9037 6.91853 20.023 7.51201 20.025C8.10549 20.027 8.69351 19.9116 9.2422 19.6854C9.79089 19.4592 10.2894 19.1267 10.7091 18.707C11.1287 18.2874 11.4612 17.7889 11.6874 17.2402C11.9136 16.6915 12.0291 16.1035 12.0271 15.51C12.0251 14.9165 11.9057 14.3293 11.6758 13.7821C11.4522 13.2498 11.1283 12.7656 10.7219 12.3559ZM16.9142 7.5L18.5 9.08579L20.5858 7L19 5.41421L16.9142 7.5Z" fill="black"/>
</svg>
