<svg width="24" height="24" viewBox="0 0 24 24" fill="none" xmlns="http://www.w3.org/2000/svg">
<path d="M20.9 20.9H17.166V15.053C17.166 13.659 17.138 11.865 15.222 11.865C13.277 11.865 12.98 13.382 12.98 14.95V20.9H9.24897V8.87701H12.833V10.516H12.881C13.2402 9.9028 13.7588 9.3984 14.3818 9.05644C15.0048 8.71449 15.7088 8.54777 16.419 8.57401C20.199 8.57401 20.898 11.062 20.898 14.3V20.9H20.9ZM5.03597 7.23201C4.60729 7.2326 4.18807 7.10604 3.83133 6.86833C3.4746 6.63062 3.19638 6.29245 3.03188 5.8966C2.86737 5.50074 2.82397 5.06498 2.90717 4.64446C2.99036 4.22393 3.19641 3.83753 3.49925 3.53413C3.80209 3.23073 4.18812 3.02396 4.60849 2.93999C5.02886 2.85602 5.4647 2.89862 5.86086 3.06239C6.25702 3.22616 6.5957 3.50376 6.83407 3.86005C7.07243 4.21634 7.19977 4.63533 7.19997 5.06401C7.20036 5.34849 7.14469 5.63026 7.03612 5.89321C6.92756 6.15616 6.76824 6.39514 6.56727 6.59648C6.3663 6.79783 6.12761 6.95759 5.86486 7.06663C5.60211 7.17568 5.32045 7.23188 5.03597 7.23201ZM6.90597 20.9H3.16497V8.87701H6.90597V20.9Z" fill="black"/>
</svg>
