<svg width="24" height="24" viewBox="0 0 24 24" fill="none" xmlns="http://www.w3.org/2000/svg">
<path d="M19.039 19.043H16.078V14.4C16.078 13.294 16.055 11.87 14.534 11.87C12.99 11.87 12.754 13.07 12.754 14.319V19.041H9.792V9.49999H12.637V10.8H12.676C12.9609 10.3131 13.3725 9.91261 13.867 9.64108C14.3614 9.36955 14.9203 9.23716 15.484 9.25799C18.484 9.25799 19.04 11.233 19.04 13.804V19.042L19.039 19.043ZM6.447 8.19399C6.1069 8.19379 5.7745 8.09277 5.4918 7.9037C5.2091 7.71463 4.98879 7.44599 4.85874 7.13174C4.72868 6.8175 4.6947 6.47174 4.7611 6.13819C4.8275 5.80464 4.99129 5.49825 5.23178 5.25777C5.47226 5.01728 5.77865 4.85349 6.1122 4.78709C6.44575 4.72069 6.79151 4.75467 7.10575 4.88473C7.42 5.01479 7.68864 5.23509 7.87771 5.51779C8.06678 5.80049 8.1678 6.13289 8.168 6.47299C8.16826 6.69907 8.12393 6.92298 8.03753 7.1319C7.95114 7.34082 7.82438 7.53065 7.66452 7.69051C7.50466 7.85037 7.31483 7.97713 7.10591 8.06352C6.89699 8.14992 6.67308 8.19425 6.447 8.19399ZM7.932 19.043H4.963V9.49999H7.932V19.043ZM20.521 1.99999H3.476C3.28445 1.99761 3.0943 2.03301 2.91643 2.10415C2.73856 2.1753 2.57646 2.2808 2.43938 2.41462C2.30231 2.54845 2.19295 2.70797 2.11756 2.88408C2.04217 3.06019 2.00222 3.24943 2 3.44099V20.559C2.00222 20.7505 2.04217 20.9398 2.11756 21.1159C2.19295 21.292 2.30231 21.4515 2.43938 21.5854C2.57646 21.7192 2.73856 21.8247 2.91643 21.8958C3.0943 21.967 3.28445 22.0024 3.476 22H20.518C20.9055 22.0051 21.2792 21.8562 21.5571 21.586C21.8349 21.3159 21.9942 20.9465 22 20.559V3.44099C21.9939 3.05358 21.8346 2.68436 21.5568 2.41426C21.279 2.14415 20.9054 1.99518 20.518 1.99999H20.521Z" fill="black"/>
</svg>
