<?xml version="1.0" encoding="utf-8"?>
<!-- Generator: Adobe Illustrator 26.0.3, SVG Export Plug-In . SVG Version: 6.00 Build 0)  -->
<svg version="1.1" id="Livello_1" xmlns="http://www.w3.org/2000/svg" xmlns:xlink="http://www.w3.org/1999/xlink" x="0px" y="0px"
	 viewBox="0 0 24 24" style="enable-background:new 0 0 24 24;" xml:space="preserve">
<path d="M20.5,2h-17C2.7,2,2,2.6,2,3.4c0,0,0,0,0,0v17.1C2,21.4,2.7,22,3.5,22c0,0,0,0,0,0h17c0.8,0,1.5-0.6,1.5-1.4V3.4
	C22,2.6,21.3,2,20.5,2z M7.9,19H5V9.5h3V19z M6.5,8.2C6.4,8.2,6.4,8.2,6.5,8.2c-1,0-1.7-0.8-1.7-1.7c0-0.9,0.8-1.7,1.7-1.7
	c0.9,0,1.7,0.8,1.7,1.7C8.2,7.4,7.4,8.2,6.5,8.2z M19,19L19,19l-3,0v-4.6c0-1.1,0-2.5-1.5-2.5c-1.5,0-1.8,1.2-1.8,2.4V19h-3V9.5h2.8
	v1.3h0c0.6-1,1.7-1.6,2.8-1.5c3,0,3.6,2,3.6,4.5V19z"/>
</svg>
