<?xml version="1.0" encoding="utf-8"?>
<!-- Generator: Adobe Illustrator 26.0.3, SVG Export Plug-In . SVG Version: 6.00 Build 0)  -->
<svg version="1.1" id="Livello_1" xmlns="http://www.w3.org/2000/svg" xmlns:xlink="http://www.w3.org/1999/xlink" x="0px" y="0px"
	 viewBox="0 0 24 24" style="enable-background:new 0 0 24 24;" xml:space="preserve">
<g>
	<path d="M19,2h-4c-0.6,0-1,0.4-1,1s0.4,1,1,1h4c0.6,0,1,0.4,1,1v14c0,0.6-0.4,1-1,1h-4c-0.6,0-1,0.4-1,1s0.4,1,1,1h4
		c1.7,0,3-1.3,3-3V5C22,3.3,20.7,2,19,2z"/>
	<path d="M15.9,12.4c0.1-0.2,0.1-0.5,0-0.8c-0.1-0.1-0.1-0.2-0.2-0.3l-5-5c-0.4-0.4-1-0.4-1.4,0s-0.4,1,0,1.4l3.3,3.3H3
		c-0.6,0-1,0.4-1,1s0.4,1,1,1h9.6l-3.3,3.3c-0.4,0.4-0.4,1,0,1.4C9.5,17.9,9.7,18,10,18s0.5-0.1,0.7-0.3l5-5
		C15.8,12.6,15.9,12.5,15.9,12.4z"/>
</g>
</svg>
