<svg width="24" height="24" viewBox="0 0 24 24" fill="none" xmlns="http://www.w3.org/2000/svg">
<path fill-rule="evenodd" clip-rule="evenodd" d="M4.00009 5C3.45237 5 3.00009 5.45228 3.00009 6V18C3.00009 18.5477 3.45237 19 4.00009 19H20.0001C20.5478 19 21.0001 18.5477 21.0001 18V6C21.0001 5.45228 20.5478 5 20.0001 5H4.00009ZM1.00009 6C1.00009 4.34772 2.3478 3 4.00009 3H20.0001C21.6524 3 23.0001 4.34772 23.0001 6V18C23.0001 19.6523 21.6524 21 20.0001 21H4.00009C2.3478 21 1.00009 19.6523 1.00009 18V6Z" fill="black"/>
<path fill-rule="evenodd" clip-rule="evenodd" d="M1.18085 5.42654C1.49757 4.97409 2.1211 4.86405 2.57355 5.18077L12.0001 11.7793L21.4266 5.18077C21.8791 4.86405 22.5026 4.97409 22.8193 5.42654C23.136 5.87899 23.026 6.50252 22.5735 6.81923L12.5735 13.8192C12.2292 14.0603 11.7709 14.0603 11.4266 13.8192L1.42662 6.81923C0.974174 6.50252 0.864139 5.87899 1.18085 5.42654Z" fill="black"/>
</svg>
