<svg width="24" height="24" viewBox="0 0 24 24" fill="none" xmlns="http://www.w3.org/2000/svg">
<path d="M2.00011 11.7C1.99223 10.3985 2.24778 9.10878 2.75137 7.9086C3.25496 6.70841 3.99619 5.62253 4.93044 4.71631C5.86469 3.81009 6.97264 3.10227 8.1876 2.63545C9.40256 2.16864 10.6994 1.95248 12.0001 1.99999C14.5727 1.99999 17.0399 3.02195 18.859 4.84106C20.6782 6.66016 21.7001 9.12739 21.7001 11.7C21.7001 14.2726 20.6782 16.7398 18.859 18.5589C17.0399 20.378 14.5727 21.4 12.0001 21.4C11.0236 21.4023 10.0513 21.2735 9.10911 21.017C8.93169 20.9689 8.74311 20.9834 8.57511 21.058L6.58411 21.933C6.46407 21.9864 6.33272 22.0095 6.20167 22.0001C6.07061 21.9907 5.94388 21.9492 5.83268 21.8792C5.72148 21.8092 5.62922 21.7129 5.56407 21.5988C5.49891 21.4847 5.46287 21.3563 5.45911 21.225L5.40011 19.441C5.39561 19.3335 5.36968 19.2279 5.32383 19.1305C5.27797 19.0332 5.21313 18.946 5.13311 18.874C4.13074 17.9698 3.33278 16.8622 2.79252 15.6251C2.25225 14.3879 1.9821 13.0498 2.00011 11.7ZM8.93411 9.87599L6.00011 14.542C5.93914 14.6351 5.91328 14.7469 5.92716 14.8574C5.94104 14.9678 5.99376 15.0697 6.07589 15.1449C6.15801 15.22 6.26419 15.2635 6.37543 15.2676C6.48668 15.2716 6.59574 15.236 6.68311 15.167L9.84111 12.775C9.94472 12.6943 10.0723 12.6505 10.2036 12.6505C10.3349 12.6505 10.4625 12.6943 10.5661 12.775L12.8991 14.525C13.0648 14.6488 13.2543 14.7371 13.4557 14.7842C13.6572 14.8312 13.8662 14.8362 14.0696 14.7986C14.273 14.761 14.4664 14.6818 14.6378 14.5659C14.8091 14.45 14.9546 14.2998 15.0651 14.125L18.0001 9.45899C18.0595 9.36575 18.0841 9.25457 18.0696 9.14498C18.0552 9.03539 18.0025 8.93441 17.921 8.85979C17.8394 8.78516 17.7342 8.74167 17.6237 8.73695C17.5133 8.73223 17.4047 8.76659 17.3171 8.83399L14.1591 11.225C14.0572 11.306 13.9308 11.3502 13.8006 11.3502C13.6704 11.3502 13.544 11.306 13.4421 11.225L11.1081 9.47599C10.7908 9.23644 10.3914 9.13264 9.99768 9.18739C9.60392 9.24214 9.248 9.45097 9.00811 9.76799C8.98163 9.80271 8.95693 9.83876 8.93411 9.87599Z" fill="black"/>
</svg>
