<?xml version="1.0" encoding="utf-8"?>
<!-- Generator: Adobe Illustrator 26.0.3, SVG Export Plug-In . SVG Version: 6.00 Build 0)  -->
<svg version="1.1" id="Livello_1" xmlns="http://www.w3.org/2000/svg" xmlns:xlink="http://www.w3.org/1999/xlink" x="0px" y="0px"
	 viewBox="0 0 24 24" style="enable-background:new 0 0 24 24;" xml:space="preserve">
<path d="M12,2c-0.1,0-0.3,0-0.4,0C6.3,2,2,6.4,2,11.7c0,2.7,1.1,5.3,3.1,7.2c0.2,0.1,0.3,0.3,0.3,0.6l0.1,1.8c0,0.1,0,0.2,0.1,0.3
	c0.2,0.4,0.7,0.6,1.1,0.4l2-0.9C8.7,21,8.9,21,9.1,21c0.9,0.3,1.9,0.4,2.9,0.4c0,0,0,0,0,0c5.4,0,9.7-4.3,9.7-9.7
	C21.7,6.3,17.4,2,12,2z M18,9.5l-2.9,4.7c0,0,0,0.1-0.1,0.1c-0.5,0.7-1.4,0.8-2.1,0.3l-2.3-1.8c-0.2-0.2-0.5-0.2-0.7,0l-3.2,2.4
	c-0.2,0.1-0.4,0.1-0.5,0C5.9,15,5.9,14.8,6,14.5l2.9-4.7c0,0,0-0.1,0.1-0.1c0.5-0.7,1.4-0.8,2.1-0.3l2.3,1.7c0.2,0.2,0.5,0.2,0.7,0
	l3.2-2.4c0.2-0.1,0.4-0.1,0.5,0C18.1,8.9,18.1,9.2,18,9.5z"/>
</svg>
