<svg width="24" height="24" viewBox="0 0 24 24" fill="none" xmlns="http://www.w3.org/2000/svg">
<path fill-rule="evenodd" clip-rule="evenodd" d="M15.78 2.38778C14.9838 2.38778 14.2202 2.70408 13.6572 3.26711L4.46715 12.4571C3.52884 13.3954 3.00171 14.668 3.00171 15.995C3.00171 17.322 3.52884 18.5946 4.46715 19.5329C5.40546 20.4712 6.67808 20.9983 8.00505 20.9983C9.33201 20.9983 10.6046 20.4712 11.5429 19.5329L20.7329 10.3429C21.1235 9.95237 21.7566 9.95237 22.1472 10.3429C22.5377 10.7334 22.5377 11.3666 22.1472 11.7571L12.9572 20.9471C11.6438 22.2605 9.86245 22.9983 8.00505 22.9983C6.14765 22.9983 4.36632 22.2605 3.05294 20.9471C1.73956 19.6337 1.00171 17.8524 1.00171 15.995C1.00171 14.1376 1.73956 12.3563 3.05294 11.0429L12.2429 1.85289C13.181 0.914794 14.4534 0.387775 15.78 0.387775C17.1067 0.387775 18.3791 0.914794 19.3172 1.85289C20.2553 2.79099 20.7823 4.06333 20.7823 5.39C20.7823 6.71667 20.2553 7.98901 19.3172 8.92711L10.1172 18.1171C9.55434 18.6799 8.79099 18.9961 7.99505 18.9961C7.1991 18.9961 6.43576 18.6799 5.87294 18.1171C5.31012 17.5543 4.99393 16.7909 4.99393 15.995C4.99393 15.1991 5.31012 14.4357 5.87294 13.8729L14.3634 5.39248C14.7541 5.00218 15.3873 5.00256 15.7776 5.39331C16.1679 5.78406 16.1675 6.41723 15.7767 6.80752L7.28715 15.2871C7.09967 15.4748 6.99393 15.7297 6.99393 15.995C6.99393 16.2605 7.09941 16.5151 7.28715 16.7029C7.4749 16.8906 7.72954 16.9961 7.99505 16.9961C8.26056 16.9961 8.51519 16.8906 8.70294 16.7029L17.9029 7.51289C18.4657 6.9499 18.7823 6.18606 18.7823 5.39C18.7823 4.59376 18.466 3.83013 17.9029 3.26711C17.3399 2.70408 16.5763 2.38778 15.78 2.38778Z" fill="black"/>
</svg>
