<?xml version="1.0" encoding="utf-8"?>
<!-- Generator: Adobe Illustrator 26.0.3, SVG Export Plug-In . SVG Version: 6.00 Build 0)  -->
<svg version="1.1" id="Livello_1" xmlns="http://www.w3.org/2000/svg" xmlns:xlink="http://www.w3.org/1999/xlink" x="0px" y="0px"
	 viewBox="0 0 24 24" style="enable-background:new 0 0 24 24;" xml:space="preserve">
<g>
	<path d="M10,3H6C5.4,3,5,3.4,5,4v16c0,0.6,0.4,1,1,1h4c0.6,0,1-0.4,1-1V4C11,3.4,10.6,3,10,3z M9,19H7V5h2V19z"/>
	<path d="M18,3h-4c-0.6,0-1,0.4-1,1v16c0,0.6,0.4,1,1,1h4c0.6,0,1-0.4,1-1V4C19,3.4,18.6,3,18,3z M17,19h-2V5h2V19z"/>
</g>
</svg>
