<svg width="24" height="24" viewBox="0 0 24 24" fill="none" xmlns="http://www.w3.org/2000/svg">
<path d="M19.9999 22.9C19.8999 22.9 19.7999 22.9 19.6999 22.9C16.4999 22.5 13.2999 21.4 10.5999 19.7C8.09994 18.1 5.89994 15.9 4.29994 13.4C2.49994 10.7 1.39994 7.5 1.09994 4.3C0.999938 2.6 2.19994 1.2 3.79994 1C3.89994 1 3.99994 1 4.09994 1H7.09994C8.59994 1 9.89994 2.1 10.0999 3.6C10.1999 4.5 10.3999 5.4 10.6999 6.2C11.0999 7.3 10.7999 8.5 9.99994 9.4L9.29994 10.1C10.4999 11.9 11.9999 13.5 13.8999 14.7L14.5999 14C15.3999 13.2 16.6999 12.9 17.7999 13.3C18.5999 13.6 19.4999 13.8 20.3999 13.9C21.8999 14.1 22.9999 15.4 22.9999 16.9V19.9C22.9999 20.7 22.6999 21.5 22.0999 22C21.4999 22.5 20.7999 22.9 19.9999 22.9ZM7.09994 3H4.09994C3.49994 3.1 3.09994 3.5 3.09994 4.1C3.39994 7 4.39994 9.8 5.99994 12.3C7.49994 14.6 9.39994 16.6 11.6999 18C14.1999 19.6 16.9999 20.6 19.8999 20.9C20.2999 20.9 20.4999 20.8 20.6999 20.6C20.8999 20.4 20.9999 20.2 20.9999 19.9V16.9C20.9999 16.4 20.5999 16 20.0999 15.9C19.0999 15.8 18.0999 15.5 17.0999 15.1C16.6999 15 16.2999 15.1 15.9999 15.3L14.6999 16.6C14.3999 16.9 13.8999 17 13.4999 16.8C10.7999 15.3 8.59994 13.1 7.09994 10.4C6.99994 10 7.09994 9.5 7.39994 9.2L8.69994 7.9C8.89994 7.7 8.99994 7.2 8.89994 6.9C8.49994 5.9 8.29994 4.9 8.09994 3.9C8.09994 3.4 7.59994 3 7.09994 3Z" fill="black"/>
</svg>
