<svg width="24" height="24" viewBox="0 0 24 24" fill="none" xmlns="http://www.w3.org/2000/svg">
<path d="M12.014 2C9.686 1.99964 7.43098 2.81241 5.63852 4.2979C3.84605 5.78339 2.62873 7.84829 2.19685 10.1359C1.76497 12.4235 2.14566 14.7901 3.27315 16.8268C4.40063 18.8636 6.20411 20.4426 8.372 21.291C8.2405 20.3393 8.2523 19.3732 8.407 18.425C8.589 17.644 9.578 13.461 9.578 13.461C9.3744 12.993 9.27216 12.4873 9.278 11.977C9.278 10.591 10.084 9.551 11.085 9.551C11.2642 9.54841 11.4419 9.58421 11.6061 9.65598C11.7703 9.72776 11.9173 9.83385 12.0371 9.96713C12.157 10.1004 12.2469 10.2578 12.3008 10.4287C12.3548 10.5996 12.3716 10.7801 12.35 10.958C12.1702 12.0883 11.8935 13.2011 11.523 14.284C11.4671 14.5038 11.4637 14.7337 11.5129 14.9551C11.5621 15.1765 11.6625 15.3833 11.8062 15.5588C11.9499 15.7342 12.1328 15.8736 12.3401 15.9655C12.5475 16.0574 12.7735 16.0994 13 16.088C14.774 16.088 16.14 14.218 16.14 11.516C16.1569 10.9689 16.0597 10.4243 15.8546 9.9169C15.6495 9.40945 15.341 8.95025 14.9488 8.56854C14.5565 8.18683 14.0891 7.89095 13.5763 7.69976C13.0634 7.50856 12.5164 7.42623 11.97 7.458C11.3861 7.43299 10.8031 7.52664 10.2564 7.73329C9.70974 7.93994 9.21062 8.25531 8.78925 8.66032C8.36788 9.06533 8.03301 9.55158 7.80488 10.0897C7.57676 10.6278 7.46011 11.2065 7.462 11.791C7.46123 12.6111 7.71952 13.4104 8.2 14.075C8.23578 14.1127 8.26114 14.1591 8.27358 14.2096C8.28603 14.2601 8.28514 14.313 8.271 14.363C8.196 14.675 8.027 15.363 7.993 15.498C7.949 15.686 7.849 15.724 7.659 15.636C6.413 15.061 5.631 13.236 5.631 11.764C5.631 8.618 7.921 5.721 12.231 5.721C13.0176 5.68129 13.8042 5.80044 14.5438 6.07134C15.2834 6.34223 15.9609 6.75932 16.5358 7.29773C17.1107 7.83613 17.5712 8.48482 17.89 9.20509C18.2087 9.92535 18.3791 10.7024 18.391 11.49C18.391 14.936 16.219 17.708 13.197 17.708C12.7483 17.7228 12.303 17.6255 11.9015 17.4248C11.4999 17.2242 11.1546 16.9266 10.897 16.559L10.272 18.933C9.97516 19.8586 9.55541 20.7401 9.024 21.554C10.3977 21.9798 11.8471 22.1041 13.2732 21.9182C14.6993 21.7323 16.0685 21.2408 17.2871 20.4771C18.5057 19.7133 19.5451 18.6955 20.3342 17.4932C21.1232 16.2908 21.6434 14.9322 21.8591 13.5103C22.0748 12.0884 21.9809 10.6367 21.584 9.25445C21.187 7.87216 20.4962 6.59188 19.5589 5.50111C18.6216 4.41035 17.4599 3.53482 16.153 2.93437C14.8462 2.33392 13.4252 2.02271 11.987 2.022L12.014 2Z" fill="black"/>
</svg>
