<?xml version="1.0" encoding="utf-8"?>
<!-- Generator: Adobe Illustrator 26.0.3, SVG Export Plug-In . SVG Version: 6.00 Build 0)  -->
<svg version="1.1" id="Livello_1" xmlns="http://www.w3.org/2000/svg" xmlns:xlink="http://www.w3.org/1999/xlink" x="0px" y="0px"
	 viewBox="0 0 24 24" style="enable-background:new 0 0 24 24;" xml:space="preserve">
<g>
	<path d="M12,1C5.9,1,1,5.9,1,12s4.9,11,11,11s11-4.9,11-11S18.1,1,12,1z M12,21c-5,0-9-4-9-9c0-5,4-9,9-9c5,0,9,4,9,9
		C21,17,17,21,12,21z"/>
	<path d="M16.6,11.2l-6-4c-0.3-0.2-0.7-0.2-1,0C9.2,7.3,9,7.6,9,8v8c0,0.4,0.2,0.7,0.5,0.9C9.7,17,9.8,17,10,17
		c0.2,0,0.4-0.1,0.6-0.2l6-4c0.3-0.2,0.4-0.5,0.4-0.8S16.8,11.4,16.6,11.2z M11,14.1V9.9l3.2,2.1L11,14.1z"/>
</g>
</svg>
