<svg width="24" height="24" viewBox="0 0 24 24" fill="none" xmlns="http://www.w3.org/2000/svg">
<path d="M12 2C10.0222 2 8.08879 2.58649 6.4443 3.6853C4.79981 4.78412 3.51809 6.3459 2.76121 8.17317C2.00433 10.0004 1.8063 12.0111 2.19215 13.9509C2.578 15.8907 3.53041 17.6725 4.92894 19.0711C6.32746 20.4696 8.10929 21.422 10.0491 21.8079C11.9889 22.1937 13.9996 21.9957 15.8268 21.2388C17.6541 20.4819 19.2159 19.2002 20.3147 17.5557C21.4135 15.9112 22 13.9778 22 12C22 10.6868 21.7413 9.38642 21.2388 8.17317C20.7363 6.95991 19.9997 5.85752 19.0711 4.92893C18.1425 4.00035 17.0401 3.26375 15.8268 2.7612C14.6136 2.25866 13.3132 2 12 2ZM16.175 5.953C16.3775 5.95404 16.5752 6.01437 16.7437 6.12655C16.9123 6.23873 17.0442 6.39783 17.1233 6.5842C17.2025 6.77057 17.2252 6.97603 17.1888 7.17519C17.1524 7.37435 17.0585 7.55849 16.9186 7.70484C16.7787 7.8512 16.599 7.95335 16.4017 7.99868C16.2043 8.04402 15.9981 8.03054 15.8083 7.95992C15.6186 7.88929 15.4537 7.76462 15.334 7.60131C15.2144 7.438 15.1452 7.2432 15.135 7.041L12.971 6.585L12.3 9.708C13.6923 9.73694 15.0466 10.1675 16.2 10.948C16.3319 10.8161 16.4889 10.7119 16.6616 10.6414C16.8344 10.571 17.0195 10.5359 17.206 10.538C17.5935 10.5385 17.965 10.6928 18.2389 10.9669C18.5128 11.2409 18.6667 11.6125 18.667 12C18.6648 12.2801 18.585 12.5542 18.4363 12.7916C18.2877 13.0291 18.0761 13.2207 17.825 13.345C17.8487 13.4881 17.8604 13.6329 17.86 13.778C17.86 16.023 15.252 17.837 12.023 17.837C8.794 17.837 6.187 16.023 6.187 13.778C6.18675 13.629 6.19845 13.4802 6.222 13.333C5.91617 13.1964 5.66656 12.9589 5.51497 12.6602C5.36338 12.3615 5.31902 12.0198 5.38932 11.6923C5.45962 11.3649 5.64032 11.0715 5.90113 10.8613C6.16195 10.6512 6.48706 10.537 6.822 10.538C7.19709 10.5417 7.55672 10.6879 7.828 10.947C8.99305 10.1499 10.3694 9.7185 11.781 9.708L12.519 6.223C12.5365 6.15554 12.5781 6.09684 12.636 6.058C12.6963 6.02278 12.7673 6.01037 12.836 6.023L15.258 6.538C15.3392 6.36323 15.4687 6.21532 15.6311 6.11167C15.7936 6.00803 15.9823 5.95297 16.175 5.953ZM9.708 12C9.50207 11.9998 9.30071 12.0607 9.12938 12.175C8.95806 12.2892 8.82448 12.4517 8.74553 12.6419C8.66659 12.8321 8.64583 13.0415 8.68588 13.2435C8.72594 13.4455 8.82501 13.6311 8.97055 13.7767C9.1161 13.9224 9.30159 14.0217 9.50355 14.0619C9.70551 14.1022 9.91487 14.0816 10.1051 14.0029C10.2954 13.9241 10.4581 13.7907 10.5725 13.6195C10.6869 13.4482 10.748 13.2469 10.748 13.041C10.7475 12.7652 10.6378 12.5009 10.4429 12.3058C10.248 12.1108 9.98376 12.0008 9.708 12ZM14.292 12C14.0861 12 13.8848 12.0611 13.7137 12.1754C13.5425 12.2898 13.409 12.4524 13.3302 12.6426C13.2515 12.8328 13.2308 13.0422 13.271 13.2441C13.3112 13.446 13.4103 13.6315 13.5559 13.7771C13.7015 13.9227 13.887 14.0218 14.0889 14.062C14.2909 14.1022 14.5002 14.0815 14.6904 14.0028C14.8806 13.924 15.0432 13.7905 15.1576 13.6193C15.272 13.4482 15.333 13.2469 15.333 13.041C15.3327 12.765 15.223 12.5004 15.0278 12.3052C14.8326 12.11 14.568 12.0003 14.292 12ZM9.737 15.325C9.683 15.3244 9.63007 15.34 9.58499 15.3698C9.53992 15.3995 9.50475 15.442 9.48401 15.4919C9.46327 15.5418 9.4579 15.5967 9.46859 15.6496C9.47928 15.7026 9.50554 15.7511 9.544 15.789C10.2549 16.3186 11.1264 16.5873 12.012 16.55C12.8979 16.592 13.7707 16.3228 14.479 15.789C14.5282 15.7373 14.5574 15.6697 14.5612 15.5984C14.5651 15.5271 14.5434 15.4567 14.5 15.4C14.4487 15.3491 14.3793 15.3205 14.307 15.3205C14.2347 15.3205 14.1653 15.3491 14.114 15.4C13.5049 15.8339 12.7668 16.0486 12.02 16.009C11.2743 16.0497 10.5371 15.8349 9.93 15.4C9.87866 15.3492 9.80926 15.3208 9.737 15.321V15.325Z" fill="black"/>
</svg>
