<?xml version="1.0" encoding="utf-8"?>
<!-- Generator: Adobe Illustrator 26.0.3, SVG Export Plug-In . SVG Version: 6.00 Build 0)  -->
<svg version="1.1" id="Livello_1" xmlns="http://www.w3.org/2000/svg" xmlns:xlink="http://www.w3.org/1999/xlink" x="0px" y="0px"
	 viewBox="0 0 24 24" style="enable-background:new 0 0 24 24;" xml:space="preserve">
<g>
	<path d="M10.7,13C10.7,13,10.7,13,10.7,13c0-0.6-0.5-1-1-1c-0.6,0-1,0.5-1,1c0,0.6,0.5,1,1,1C10.3,14.1,10.7,13.6,10.7,13z"/>
	<path d="M14.1,15.4C13.5,15.8,12.8,16,12,16c-0.7,0-1.5-0.2-2.1-0.6c-0.1-0.1-0.1-0.1-0.2-0.1v0c-0.1,0-0.3,0.1-0.3,0.3
		c0,0.1,0,0.1,0.1,0.2c0.7,0.5,1.6,0.8,2.5,0.8c0.9,0,1.8-0.2,2.5-0.8c0.1-0.1,0.1-0.3,0-0.4C14.4,15.3,14.2,15.3,14.1,15.4z"/>
	<path d="M14.3,12c-0.6,0-1,0.5-1,1c0,0.6,0.5,1,1,1c0.6,0,1-0.5,1-1C15.3,12.5,14.9,12,14.3,12z"/>
	<path d="M12,2C6.5,2,2,6.5,2,12s4.5,10,10,10s10-4.5,10-10S17.5,2,12,2z M17.8,13.3c0,0.1,0,0.3,0,0.4c0,2.2-2.6,4.1-5.8,4.1
		S6.2,16,6.2,13.8c0-0.1,0-0.3,0-0.4c-0.7-0.3-1.1-1.2-0.7-1.9c0.2-0.5,0.8-0.9,1.3-0.9c0.4,0,0.7,0.1,1,0.4c1.2-0.8,2.5-1.2,4-1.2
		l0.7-3.5c0-0.1,0.1-0.1,0.1-0.2c0.1,0,0.1,0,0.2,0l2.4,0.5C15.4,6.2,15.8,6,16.2,6c0.6,0,1,0.5,1,1c0,0.6-0.5,1-1,1
		c-0.5,0-1-0.4-1-1L13,6.6l-0.7,3.1c1.4,0,2.7,0.5,3.9,1.2c0.3-0.3,0.6-0.4,1-0.4c0.8,0,1.5,0.7,1.5,1.5
		C18.7,12.6,18.3,13.1,17.8,13.3z"/>
</g>
</svg>
