<svg width="24" height="24" viewBox="0 0 24 24" fill="none" xmlns="http://www.w3.org/2000/svg">
<path d="M12.0549 17.442C8.86989 17.442 7.44689 15.875 7.44689 14.7C7.4431 14.5619 7.46796 14.4246 7.5199 14.2966C7.57183 14.1686 7.64972 14.0527 7.74865 13.9563C7.84758 13.86 7.96541 13.7851 8.0947 13.7365C8.224 13.6879 8.36196 13.6666 8.49989 13.674C9.86389 13.674 9.50789 15.635 12.0529 15.635C13.3529 15.635 14.0709 14.926 14.0709 14.201C14.0709 13.765 13.8579 13.282 12.9989 13.07L10.1679 12.361C7.88789 11.788 7.47389 10.551 7.47389 9.391C7.47389 6.979 9.73889 6.074 11.8669 6.074C13.8229 6.074 16.1369 7.161 16.1369 8.606C16.1294 8.74735 16.0932 8.88569 16.0305 9.01261C15.9678 9.13952 15.88 9.25235 15.7723 9.34422C15.6646 9.43609 15.5394 9.50508 15.4042 9.54699C15.269 9.5889 15.1267 9.60286 14.9859 9.588C13.8229 9.588 14.0379 7.975 11.6859 7.975C10.5229 7.975 9.87089 8.501 9.87089 9.255C9.87089 10.009 10.7839 10.255 11.5789 10.433L13.6669 10.897C15.9549 11.411 16.5359 12.754 16.5359 14.02C16.5359 15.98 15.0299 17.443 12.0059 17.443M20.7809 13.578L20.7579 13.685L20.7229 13.495C20.7349 13.53 20.7579 13.553 20.7699 13.595C20.8651 13.0586 20.9129 12.5148 20.9129 11.97C20.9128 10.7911 20.6803 9.62388 20.2287 8.53497C19.777 7.44606 19.1152 6.45687 18.2809 5.624C17.4648 4.80796 16.5005 4.15497 15.4399 3.7C14.3673 3.20137 13.1966 2.94953 12.0139 2.963C11.4434 2.9633 10.8742 3.01754 10.3139 3.125L10.4079 3.172L10.2189 3.146L10.3129 3.126C9.30112 2.59148 8.14373 2.39816 7.01317 2.57485C5.8826 2.75154 4.83939 3.28878 4.03896 4.10652C3.23853 4.92427 2.72373 5.97874 2.57127 7.11282C2.41881 8.24691 2.63684 9.3999 3.19289 10.4L3.20889 10.3L3.24189 10.489L3.19289 10.4C3.1026 10.9111 3.05809 11.429 3.05789 11.948C3.05638 13.1496 3.29434 14.3394 3.75789 15.448C4.20132 16.5174 4.8545 17.4872 5.67889 18.3C6.49428 19.1208 7.46068 19.7761 8.52489 20.23C9.62642 20.7028 10.8132 20.9448 12.0119 20.941C12.5368 20.9414 13.0606 20.8939 13.5769 20.799L13.4829 20.75L13.6729 20.787L13.5659 20.81C14.373 21.2662 15.2856 21.5027 16.2127 21.4959C17.1398 21.4892 18.0488 21.2393 18.8492 20.7713C19.6495 20.3034 20.3131 19.6336 20.7736 18.829C21.2342 18.0244 21.4757 17.1131 21.4739 16.186C21.4714 15.2809 21.2395 14.3912 20.7999 13.6" fill="black"/>
</svg>
