<svg width="24" height="24" viewBox="0 0 24 24" fill="none" xmlns="http://www.w3.org/2000/svg">
<path d="M12.184 1.99999C13.3034 1.98603 14.402 2.30197 15.3429 2.90839C16.2839 3.5148 17.0254 4.38485 17.475 5.40999C17.8572 6.81851 17.9477 8.29024 17.741 9.73498V9.78799C17.73 9.94899 17.721 10.096 17.714 10.243C17.8239 10.3016 17.9476 10.3296 18.072 10.324C18.3934 10.2939 18.706 10.2026 18.993 10.055C19.1214 9.99087 19.2635 9.95895 19.407 9.96199C19.5624 9.95972 19.7168 9.98687 19.862 10.042C20.0358 10.0822 20.1925 10.1761 20.3099 10.3103C20.4273 10.4446 20.4994 10.6124 20.516 10.79C20.53 11.19 20.168 11.539 19.434 11.832C19.355 11.858 19.248 11.899 19.127 11.938C18.727 12.059 18.111 12.26 17.938 12.661C17.899 12.7903 17.8884 12.9264 17.9069 13.0602C17.9253 13.1939 17.9725 13.3221 18.045 13.436L18.058 13.449C18.112 13.57 19.42 16.549 22.333 17.03C22.44 17.0472 22.5371 17.1028 22.6061 17.1863C22.6751 17.2699 22.7113 17.3757 22.708 17.484C22.7071 17.5525 22.6935 17.6203 22.668 17.684C22.453 18.192 21.532 18.566 19.861 18.818C19.7935 18.9817 19.7442 19.1524 19.714 19.327C19.6858 19.4939 19.646 19.6586 19.595 19.82C19.5698 19.9307 19.5052 20.0285 19.4132 20.0951C19.3212 20.1617 19.2081 20.1926 19.095 20.182H19.068C18.9065 20.1735 18.7459 20.1514 18.588 20.116C18.2155 20.0373 17.8357 19.9984 17.455 20C17.1819 19.9961 16.909 20.0182 16.64 20.066C16.0763 20.2139 15.5518 20.4832 15.103 20.855C14.2777 21.5524 13.2437 21.9552 12.164 22C12.111 22 12.058 21.987 12.004 21.987H11.871C10.7934 21.9471 9.76147 21.5415 8.94503 20.837C8.5011 20.4661 7.98122 20.1971 7.42203 20.049C7.14791 20.0076 6.87123 19.9856 6.59403 19.983C6.21214 19.9883 5.8318 20.0328 5.45903 20.116C5.30078 20.153 5.13941 20.1751 4.97703 20.182C4.86015 20.1903 4.74406 20.1573 4.64902 20.0888C4.55398 20.0203 4.48603 19.9205 4.45703 19.807C4.40303 19.636 4.37703 19.46 4.33703 19.301C4.30658 19.1264 4.25695 18.9557 4.18903 18.792C2.47703 18.592 1.55703 18.22 1.34303 17.699C1.31448 17.6359 1.29786 17.5681 1.29403 17.499C1.28984 17.3905 1.32575 17.2842 1.39492 17.2004C1.46409 17.1167 1.56166 17.0614 1.66903 17.045C4.58103 16.563 5.88903 13.584 5.94403 13.458L5.95803 13.432C6.03349 13.3194 6.08226 13.191 6.10062 13.0567C6.11899 12.9224 6.10648 12.7857 6.06403 12.657C5.89003 12.27 5.27503 12.07 4.87603 11.935C4.77031 11.9081 4.66697 11.8727 4.56703 11.829C3.57903 11.44 3.44503 11 3.50003 10.692C3.57446 10.4776 3.71604 10.2929 3.90375 10.1654C4.09147 10.0378 4.3153 9.97423 4.54203 9.98399C4.65933 9.98359 4.77555 10.0064 4.88403 10.051C5.18984 10.2085 5.52553 10.2995 5.86903 10.318C6.01316 10.323 6.15614 10.2906 6.28403 10.224L6.24303 9.71699C6.03918 8.27441 6.13208 6.80539 6.51603 5.39999C6.95588 4.37991 7.68867 3.51339 8.62153 2.91024C9.55438 2.30709 10.6453 1.99446 11.756 2.01199L12.13 1.99999H12.184Z" fill="black"/>
</svg>
