<?xml version="1.0" encoding="utf-8"?>
<!-- Generator: Adobe Illustrator 26.0.3, SVG Export Plug-In . SVG Version: 6.00 Build 0)  -->
<svg version="1.1" id="Livello_1" xmlns="http://www.w3.org/2000/svg" xmlns:xlink="http://www.w3.org/1999/xlink" x="0px" y="0px"
	 viewBox="0 0 24 24" style="enable-background:new 0 0 24 24;" xml:space="preserve">
<path d="M22.3,17c-2.9-0.5-4.2-3.5-4.3-3.6l0,0c-0.1-0.2-0.2-0.5-0.1-0.8c0.2-0.4,0.8-0.6,1.2-0.7c0.1,0,0.2-0.1,0.3-0.1
	c0.7-0.3,1.1-0.6,1.1-1c0-0.4-0.3-0.7-0.7-0.7C19.7,10,19.6,10,19.4,10c-0.1,0-0.3,0-0.4,0.1c-0.3,0.1-0.6,0.2-0.9,0.3
	c-0.1,0-0.2,0-0.4-0.1c0-0.1,0-0.3,0-0.5V9.7c0.2-1.4,0.1-2.9-0.3-4.3c-0.9-2.1-3-3.4-5.3-3.4h-0.1l-0.4,0C9.5,2,7.4,3.3,6.5,5.4
	C6.1,6.8,6,8.3,6.2,9.7l0,0.5c-0.1,0.1-0.3,0.1-0.4,0.1c-0.3,0-0.7-0.1-1-0.3C4.8,10,4.7,10,4.5,10c-0.5,0-0.9,0.3-1,0.7
	c-0.1,0.3,0.1,0.7,1.1,1.1c0.1,0,0.2,0.1,0.3,0.1c0.4,0.1,1,0.3,1.2,0.7c0.1,0.3,0,0.5-0.1,0.8l0,0c-0.1,0.1-1.4,3.1-4.3,3.6
	c-0.2,0-0.4,0.2-0.4,0.5c0,0.1,0,0.1,0,0.2c0.2,0.5,1.1,0.9,2.8,1.1c0.1,0.2,0.1,0.3,0.1,0.5c0,0.2,0.1,0.3,0.1,0.5
	C4.5,20,4.7,20.2,5,20.2c0.2,0,0.3,0,0.5-0.1C5.8,20,6.2,20,6.6,20c0.3,0,0.6,0,0.8,0.1c0.6,0.1,1.1,0.4,1.5,0.8
	c0.8,0.7,1.8,1.1,2.9,1.2H12c0.1,0,0.1,0,0.2,0c1.1,0,2.1-0.4,2.9-1.1c0.4-0.4,1-0.6,1.5-0.8c0.3,0,0.5-0.1,0.8-0.1
	c0.4,0,0.8,0,1.1,0.1c0.2,0,0.3,0.1,0.5,0.1h0c0.2,0,0.4-0.1,0.5-0.4c0.1-0.2,0.1-0.3,0.1-0.5c0-0.2,0.1-0.3,0.1-0.5
	c1.7-0.3,2.6-0.6,2.8-1.1c0-0.1,0-0.1,0-0.2C22.7,17.3,22.6,17.1,22.3,17z"/>
</svg>
