<svg width="24" height="24" viewBox="0 0 24 24" fill="none" xmlns="http://www.w3.org/2000/svg">
<g clip-path="url(#clip0_9_108)">
<path d="M18.0645 11.3136C18.3848 10.6672 19.3029 10.6672 19.6232 11.3136L20.7873 13.6628C20.8717 13.8331 21.0092 13.9712 21.1787 14.056L23.5174 15.2253C24.1609 15.547 24.1609 16.4693 23.5174 16.791L21.1787 17.9604C21.0092 18.0452 20.8717 18.1832 20.7873 18.3536L19.6232 20.7027C19.3029 21.3491 18.3848 21.3491 18.0645 20.7027L16.9004 18.3536C16.816 18.1832 16.6785 18.0452 16.5089 17.9604L14.1703 16.791C13.5268 16.4693 13.5268 15.547 14.1703 15.2253L16.5089 14.056C16.6785 13.9712 16.816 13.8331 16.9004 13.6628L18.0645 11.3136Z" fill="black"/>
<path d="M6.55327 3.29731C6.8736 2.65089 7.7917 2.6509 8.11203 3.29731L9.99945 7.10613C10.0839 7.27648 10.2213 7.41452 10.3909 7.49932L14.1827 9.39523C14.8262 9.717 14.8262 10.6392 14.1827 10.961L10.3909 12.8569C10.2213 12.9417 10.0839 13.0797 9.99945 13.2501L8.11203 17.0589C7.7917 17.7053 6.8736 17.7053 6.55327 17.0589L4.66584 13.2501C4.58143 13.0797 4.444 12.9417 4.27442 12.8569L0.482644 10.961C-0.160882 10.6392 -0.160881 9.717 0.482645 9.39523L4.27442 7.49932C4.444 7.41452 4.58143 7.27648 4.66584 7.10613L6.55327 3.29731Z" fill="black"/>
</g>
<defs>
<clipPath id="clip0_9_108">
<rect width="24" height="24" fill="white"/>
</clipPath>
</defs>
</svg>
