<svg width="24" height="24" viewBox="0 0 24 24" fill="none" xmlns="http://www.w3.org/2000/svg">
<path d="M12 2C10.0222 2 8.08879 2.58649 6.4443 3.6853C4.79981 4.78412 3.51809 6.3459 2.76121 8.17317C2.00433 10.0004 1.8063 12.0111 2.19215 13.9509C2.578 15.8907 3.53041 17.6725 4.92894 19.0711C6.32746 20.4696 8.10929 21.422 10.0491 21.8079C11.9889 22.1937 13.9996 21.9957 15.8268 21.2388C17.6541 20.4819 19.2159 19.2002 20.3147 17.5557C21.4135 15.9112 22 13.9778 22 12C21.9924 9.35019 20.9363 6.81109 19.0626 4.93738C17.1889 3.06368 14.6498 2.00765 12 2ZM16.6 16.45C16.559 16.5209 16.504 16.5827 16.4382 16.6315C16.3725 16.6804 16.2975 16.7152 16.2177 16.734C16.138 16.7527 16.0553 16.7549 15.9747 16.7405C15.8941 16.726 15.8173 16.6952 15.749 16.65C13.399 15.2 10.449 14.899 6.949 15.699C6.78987 15.7388 6.62146 15.7137 6.48081 15.6293C6.34015 15.5449 6.23879 15.4081 6.199 15.249C6.15922 15.0899 6.18428 14.9215 6.26867 14.7808C6.35307 14.6401 6.48987 14.5388 6.649 14.499C10.449 13.648 13.749 13.999 16.349 15.599C16.4241 15.6355 16.4908 15.6872 16.5448 15.7509C16.5988 15.8147 16.6389 15.8889 16.6625 15.969C16.6861 16.0491 16.6928 16.1333 16.682 16.2161C16.6713 16.2989 16.6433 16.3786 16.6 16.45ZM17.8 13.7C17.7482 13.7864 17.6796 13.8615 17.5983 13.921C17.517 13.9805 17.4246 14.0231 17.3266 14.0464C17.2286 14.0697 17.1269 14.0732 17.0276 14.0566C16.9282 14.0401 16.8332 14.0038 16.748 13.95C15.249 13.1079 13.5975 12.5726 11.8896 12.3752C10.1817 12.1777 8.45155 12.3221 6.8 12.8C6.6098 12.8522 6.40675 12.8284 6.23377 12.7337C6.06078 12.6389 5.93141 12.4806 5.87299 12.2922C5.81456 12.1038 5.83166 11.9001 5.92068 11.7241C6.00969 11.5481 6.16364 11.4136 6.35 11.349C8.22087 10.8152 10.1794 10.6597 12.111 10.8917C14.0427 11.1236 15.9087 11.7384 17.6 12.7C17.6804 12.7511 17.7496 12.818 17.8035 12.8966C17.8574 12.9752 17.8948 13.0639 17.9135 13.1573C17.9322 13.2507 17.9317 13.347 17.9122 13.4403C17.8927 13.5335 17.8546 13.6219 17.8 13.7ZM17.9 10.9C14.7 9 9.35 8.8 6.3 9.751C6.06994 9.81658 5.82336 9.78976 5.61277 9.67625C5.40218 9.56274 5.24423 9.3715 5.17254 9.14326C5.10085 8.91503 5.12109 8.66782 5.22894 8.45428C5.3368 8.24075 5.52376 8.07775 5.75 8C9.3 6.95 15.15 7.15 18.85 9.351C19.0657 9.4799 19.2227 9.68766 19.2878 9.93031C19.353 10.173 19.3211 10.4314 19.199 10.651C19.0443 10.8358 18.8305 10.9615 18.5939 11.0069C18.3572 11.0522 18.1121 11.0145 17.9 10.9Z" fill="black"/>
</svg>
