<?xml version="1.0" encoding="utf-8"?>
<!-- Generator: Adobe Illustrator 26.0.3, SVG Export Plug-In . SVG Version: 6.00 Build 0)  -->
<svg version="1.1" id="Livello_1" xmlns="http://www.w3.org/2000/svg" xmlns:xlink="http://www.w3.org/1999/xlink" x="0px" y="0px"
	 viewBox="0 0 24 24" style="enable-background:new 0 0 24 24;" xml:space="preserve">
<path d="M23,9c-0.1-0.4-0.4-0.6-0.8-0.7l-6.4-0.9l-2.9-5.8c-0.3-0.7-1.5-0.7-1.8,0L8.2,7.3L1.9,8.3C1.5,8.3,1.2,8.6,1,9
	c-0.1,0.4,0,0.8,0.3,1l4.6,4.5l-1.1,6.4c-0.1,0.4,0.1,0.8,0.4,1c0.3,0.2,0.7,0.3,1.1,0.1l5.7-3l5.7,3C17.9,22,18,22,18.2,22
	c0.2,0,0.4-0.1,0.6-0.2c0.3-0.2,0.5-0.6,0.4-1l-1.1-6.4l4.6-4.5C23,9.7,23.1,9.3,23,9z M16.3,13.4C16.1,13.7,16,14,16,14.3l0.8,4.9
	l-4.4-2.3c-0.3-0.2-0.6-0.2-0.9,0l-4.4,2.3L8,14.3C8,14,7.9,13.7,7.7,13.4L4.1,10l4.9-0.7c0.3,0,0.6-0.3,0.8-0.5L12,4.3l2.2,4.4
	c0.1,0.3,0.4,0.5,0.8,0.5l4.9,0.7L16.3,13.4z"/>
</svg>
