<svg width="24" height="24" viewBox="0 0 24 24" fill="none" xmlns="http://www.w3.org/2000/svg">
<path d="M2.36995 11.14C7.73995 8.8 11.3199 7.26 13.1099 6.51C18.2299 4.38 19.2899 4.01 19.9799 4C20.1299 4 20.4699 4.04 20.6899 4.21C20.8699 4.36 20.9299 4.57 20.9499 4.71C20.9699 4.85 20.9999 5.18 20.9799 5.43C20.6999 8.34 19.4999 15.41 18.8899 18.67C18.6299 20.05 18.1199 20.51 17.6299 20.56C16.5599 20.66 15.7499 19.85 14.7099 19.17C13.0899 18.11 12.1699 17.45 10.5999 16.41C8.77995 15.21 9.95995 14.55 10.9999 13.48C11.2699 13.2 15.9799 8.91 16.0699 8.52C16.0799 8.47 16.0899 8.29 15.9799 8.19C15.8699 8.09 15.7199 8.13 15.5999 8.15C15.4399 8.19 12.8499 9.9 7.82995 13.28C7.09995 13.78 6.42995 14.03 5.82995 14.02C5.16995 14.01 3.90995 13.65 2.96995 13.34C1.81995 12.97 0.899948 12.77 0.979948 12.13C1.01995 11.8 1.47995 11.46 2.34995 11.11L2.36995 11.14Z" fill="black"/>
</svg>
