<?xml version="1.0" encoding="utf-8"?>
<!-- Generator: Adobe Illustrator 26.0.3, SVG Export Plug-In . SVG Version: 6.00 Build 0)  -->
<svg version="1.1" id="Livello_1" xmlns="http://www.w3.org/2000/svg" xmlns:xlink="http://www.w3.org/1999/xlink" x="0px" y="0px"
	 viewBox="0 0 24 24" style="enable-background:new 0 0 24 24;" xml:space="preserve">
<path d="M23,3.9C22.8,2.2,21.4,1,19.7,1c0,0,0,0-0.1,0H5.7C4.2,1,3,2.1,2.7,3.5l-1.4,9c-0.2,1.6,0.9,3.2,2.5,3.4c0.2,0,0.3,0,0.5,0
	H9v3c0,2.2,1.8,4,4,4c0.4,0,0.8-0.2,0.9-0.6l3.7-8.4h2c1.7,0,3.1-1.2,3.3-2.9c0,0,0-0.1,0-0.1V4C23,4,23,3.9,23,3.9z M16,12.8
	l-3.6,8.1c-0.8-0.3-1.4-1-1.4-1.9v-4c0-0.6-0.4-1-1-1H4.3c0,0-0.1,0-0.2,0c-0.5-0.1-0.9-0.6-0.8-1.1l1.4-9C4.8,3.4,5.2,3,5.7,3H16
	V12.8z M21,10.9c-0.1,0.6-0.7,1.1-1.3,1.1H18V3h1.7c0.6-0.1,1.2,0.4,1.3,1.1V10.9z"/>
</svg>
