<?xml version="1.0" encoding="utf-8"?>
<!-- Generator: Adobe Illustrator 26.0.3, SVG Export Plug-In . SVG Version: 6.00 Build 0)  -->
<svg version="1.1" id="Livello_1" xmlns="http://www.w3.org/2000/svg" xmlns:xlink="http://www.w3.org/1999/xlink" x="0px" y="0px"
	 viewBox="0 0 24 24" style="enable-background:new 0 0 24 24;" xml:space="preserve">
<path d="M22.1,9.2c-0.5-0.6-1.2-1.1-2-1.2c-0.2,0-0.3,0-0.5,0H15V5c0-2.2-1.8-4-4-4c-0.4,0-0.8,0.2-0.9,0.6L6.4,10H4
	c-1.7,0-3,1.3-3,3v7c0,1.7,1.3,3,3,3h14.3c0,0,0,0,0,0c1.5,0,2.7-1.1,3-2.5l1.4-9C22.8,10.7,22.6,9.9,22.1,9.2z M6,21H4
	c-0.6,0-1-0.4-1-1v-7c0-0.6,0.4-1,1-1h2V21z M19.3,20.2c-0.1,0.5-0.5,0.8-1,0.8c0,0,0,0,0,0H8v-9.8l3.6-8.1C12.4,3.4,13,4.1,13,5v4
	c0,0.6,0.4,1,1,1h5.7c0.1,0,0.1,0,0.2,0c0.3,0,0.5,0.2,0.7,0.4c0.2,0.2,0.2,0.5,0.2,0.7L19.3,20.2z"/>
</svg>
