<svg width="24" height="24" viewBox="0 0 24 24" fill="none" xmlns="http://www.w3.org/2000/svg">
<path d="M12.4421 2.017C13.5341 2 14.6171 2.008 15.7001 2C15.7334 3.30012 16.2538 4.54031 17.1581 5.475C18.1358 6.35334 19.3797 6.87864 20.6911 6.967V10.325C19.4818 10.2953 18.291 10.0204 17.1911 9.517C16.7224 9.2927 16.2711 9.03364 15.8411 8.742C15.8331 11.175 15.8501 13.608 15.8251 16.033C15.7613 17.2107 15.3718 18.3476 14.7001 19.317C14.1462 20.1176 13.4119 20.7768 12.5564 21.2415C11.7009 21.7061 10.7482 21.9632 9.77508 21.992C8.58197 22.0458 7.39944 21.7471 6.37508 21.133C5.53194 20.6323 4.8177 19.9412 4.28948 19.115C3.76126 18.2888 3.43373 17.3504 3.33308 16.375C3.31708 15.958 3.30808 15.542 3.32508 15.133C3.41014 14.2785 3.66974 13.4506 4.0878 12.7005C4.50587 11.9504 5.07348 11.2941 5.7555 10.7723C6.43751 10.2505 7.21939 9.87428 8.05272 9.66696C8.88605 9.45963 9.75307 9.42561 10.6001 9.567C10.6161 10.8 10.5661 12.033 10.5661 13.267C10.2105 13.1423 9.83383 13.0891 9.45764 13.1105C9.08146 13.1318 8.7132 13.2273 8.37403 13.3914C8.03486 13.5555 7.73145 13.785 7.48125 14.0667C7.23105 14.3484 7.03898 14.6768 6.91608 15.033C6.78555 15.4676 6.74606 15.9244 6.80008 16.375C6.90816 17.0619 7.26496 17.6852 7.80261 18.1262C8.34026 18.5673 9.02126 18.7953 9.71608 18.767C10.1823 18.7533 10.6377 18.6234 11.0409 18.389C11.4441 18.1547 11.7824 17.8233 12.0251 17.425C12.2107 17.1637 12.3279 16.8602 12.3661 16.542C12.4501 15.05 12.4161 13.567 12.4251 12.075C12.4341 8.717 12.4171 5.367 12.4421 2.017Z" fill="black"/>
</svg>
