<?xml version="1.0" encoding="utf-8"?>
<!-- Generator: Adobe Illustrator 26.0.3, SVG Export Plug-In . SVG Version: 6.00 Build 0)  -->
<svg version="1.1" id="Livello_1" xmlns="http://www.w3.org/2000/svg" xmlns:xlink="http://www.w3.org/1999/xlink" x="0px" y="0px"
	 viewBox="0 0 24 24" style="enable-background:new 0 0 24 24;" xml:space="preserve">
<path d="M23.7,10.3l-3-3C20.5,7.1,20.3,7,20,7h-3V3c0-0.6-0.4-1-1-1H1C0.4,2,0,2.4,0,3v13c0,0.6,0.4,1,1,1h1.4C2.1,17.5,2,18,2,18.5
	C2,20.4,3.6,22,5.5,22S9,20.4,9,18.5c0-0.5-0.1-1-0.4-1.5h6.7c-0.2,0.5-0.4,1-0.4,1.5c0,1.9,1.6,3.5,3.5,3.5s3.5-1.6,3.5-3.5
	c0-0.5-0.1-1-0.4-1.5H23c0.6,0,1-0.4,1-1v-5C24,10.7,23.9,10.5,23.7,10.3z M2,4h13v4v7H2V4z M7,18.5C7,19.3,6.3,20,5.5,20
	S4,19.3,4,18.5S4.7,17,5.5,17S7,17.7,7,18.5z M20,18.5c0,0.8-0.7,1.5-1.5,1.5S17,19.3,17,18.5s0.7-1.5,1.5-1.5S20,17.7,20,18.5z
	 M22,15h-5V9h2.6l2.4,2.4V15z"/>
</svg>
