<?xml version="1.0" encoding="utf-8"?>
<!-- Generator: Adobe Illustrator 26.0.3, SVG Export Plug-In . SVG Version: 6.00 Build 0)  -->
<svg version="1.1" id="Livello_1" xmlns="http://www.w3.org/2000/svg" xmlns:xlink="http://www.w3.org/1999/xlink" x="0px" y="0px"
	 viewBox="0 0 24 24" style="enable-background:new 0 0 24 24;" xml:space="preserve">
<path d="M22.5,5.5L22.5,5.5c-0.8,0.3-1.7,0.6-2.5,0.7c0.9-0.5,1.6-1.4,1.9-2.4c-0.8,0.5-1.8,0.8-2.7,1c-1.6-1.7-4.3-1.8-6.1-0.2
	c-0.9,0.8-1.4,2-1.4,3.1c0,0.3,0,0.7,0.1,1C8.3,8.6,5.1,7,2.9,4.3C2.5,4.9,2.3,5.7,2.4,6.4c0,1.4,0.7,2.8,1.9,3.6
	c-0.7,0-1.4-0.2-1.9-0.5v0.1c0,2,1.4,3.8,3.5,4.2c-0.6,0.2-1.3,0.2-1.9,0.1c0.6,1.8,2.2,3,4,3c-1.5,1.2-3.4,1.8-5.3,1.8
	c-0.3,0-0.7,0-1-0.1c2,1.3,4.3,1.9,6.6,1.9c6.7,0,12.2-5.4,12.2-12.1c0-0.1,0-0.1,0-0.2c0-0.2,0-0.4,0-0.6
	C21.2,7.1,21.9,6.4,22.5,5.5z"/>
</svg>
