<?xml version="1.0" encoding="utf-8"?>
<!-- Generator: Adobe Illustrator 26.0.3, SVG Export Plug-In . SVG Version: 6.00 Build 0)  -->
<svg version="1.1" id="Livello_1" xmlns="http://www.w3.org/2000/svg" xmlns:xlink="http://www.w3.org/1999/xlink" x="0px" y="0px"
	 viewBox="0 0 24 24" style="enable-background:new 0 0 24 24;" xml:space="preserve">
<g>
	<path d="M23.3,11.1C22.2,9.2,20.2,8,18,8h-0.5c-1.5-4.4-6.2-6.9-10.7-5.7C4.4,2.9,2.5,4.4,1.2,6.4s-1.6,4.5-1,6.8
		c0.4,1.4,1,2.6,2,3.7c0.4,0.4,1,0.5,1.4,0.1c0.4-0.4,0.5-1,0.1-1.4c-0.7-0.8-1.3-1.8-1.5-2.9C1.7,10.9,2,9.1,3,7.4
		c0.9-1.6,2.5-2.8,4.3-3.2c3.7-1,7.6,1.3,8.5,5c0.1,0.4,0.5,0.7,1,0.7H18c1.5,0,2.8,0.8,3.5,2.1c0.5,0.9,0.6,2,0.3,3
		c-0.3,1-1,1.9-1.9,2.4c-0.5,0.3-0.7,0.9-0.4,1.4c0.2,0.3,0.5,0.5,0.9,0.5c0.2,0,0.3,0,0.5-0.1c1.4-0.8,2.4-2,2.9-3.6
		C24.2,14.2,24,12.5,23.3,11.1z"/>
	<path d="M12.7,11.3c-0.1-0.1-0.2-0.2-0.3-0.2c-0.2-0.1-0.5-0.1-0.8,0c-0.1,0.1-0.2,0.1-0.3,0.2l-4,4c-0.4,0.4-0.4,1,0,1.4
		s1,0.4,1.4,0l2.3-2.3V21c0,0.6,0.4,1,1,1s1-0.4,1-1v-6.6l2.3,2.3c0.2,0.2,0.5,0.3,0.7,0.3s0.5-0.1,0.7-0.3c0.4-0.4,0.4-1,0-1.4
		L12.7,11.3z"/>
</g>
</svg>
