<svg width="24" height="24" viewBox="0 0 24 24" fill="none" xmlns="http://www.w3.org/2000/svg">
<path d="M20.983 7.812C20.9037 9.56467 19.68 11.967 17.312 15.019C14.8613 18.2063 12.7907 19.8 11.1 19.8C10.043 19.8 9.166 18.829 8.435 16.889L6.992 11.55C6.452 9.612 5.874 8.64234 5.258 8.641C4.74813 8.85239 4.27258 9.13852 3.847 9.49L3 8.4C3.88933 7.616 4.76467 6.83334 5.626 6.052C6.35467 5.28509 7.27458 4.72625 8.291 4.433C9.691 4.29967 10.553 5.259 10.877 7.311C11.225 9.52634 11.4677 10.903 11.605 11.441C12.009 13.279 12.453 14.1977 12.937 14.197C13.313 14.197 13.8797 13.6007 14.637 12.408C15.229 11.5974 15.6408 10.6697 15.845 9.687C15.953 8.659 15.545 8.141 14.635 8.141C14.175 8.14403 13.7208 8.24387 13.302 8.434C14.192 5.534 15.878 4.117 18.374 4.207C20.228 4.252 21.095 5.455 20.993 7.807L20.983 7.812Z" fill="black"/>
</svg>
