<svg width="24" height="24" viewBox="0 0 24 24" fill="none" xmlns="http://www.w3.org/2000/svg">
<path fill-rule="evenodd" clip-rule="evenodd" d="M19.0491 4.90701C17.3494 3.20721 15.0899 2.18312 12.6913 2.02547C10.2927 1.86782 7.91854 2.58735 6.01103 4.05007C4.10352 5.51278 2.79268 7.61896 2.32265 9.97633C1.85261 12.3337 2.25543 14.7816 3.45607 16.864L2.04907 22L7.30007 20.621C8.75253 21.4124 10.38 21.8277 12.0341 21.829C13.995 21.8301 15.9121 21.2495 17.5429 20.1607C19.1738 19.072 20.445 17.5239 21.1959 15.7125C21.9468 13.9011 22.1435 11.9077 21.7612 9.98441C21.3788 8.06116 20.4347 6.29453 19.0481 4.90801L19.0491 4.90701ZM12.0411 20.157C10.5649 20.1573 9.11579 19.76 7.84607 19.007L7.54607 18.827L4.42807 19.644L5.26107 16.605L5.06607 16.293C4.38666 15.2118 3.96786 13.9875 3.84273 12.7167C3.7176 11.4459 3.88956 10.1634 4.34504 8.97049C4.80053 7.77755 5.52706 6.70681 6.4673 5.84279C7.40754 4.97877 8.53574 4.34513 9.76284 3.99188C10.9899 3.63863 12.2824 3.57544 13.5381 3.8073C14.7938 4.03916 15.9784 4.55973 16.9985 5.3279C18.0185 6.09608 18.846 7.09084 19.4157 8.23366C19.9854 9.37647 20.2816 10.6361 20.2811 11.913C20.2779 14.0977 19.4088 16.192 17.8643 17.7371C16.3198 19.2822 14.2258 20.153 12.0411 20.157ZM16.5571 13.985C16.3111 13.86 15.0921 13.263 14.8651 13.185C14.6381 13.107 14.4741 13.06 14.3061 13.31C14.1381 13.56 13.6661 14.11 13.5211 14.283C13.3761 14.456 13.2331 14.47 12.9861 14.345C12.256 14.0533 11.582 13.6371 10.9941 13.115C10.4534 12.6137 9.98917 12.0359 9.61607 11.4C9.47107 11.154 9.60007 11.018 9.72607 10.9C9.85207 10.782 9.97207 10.611 10.0971 10.466C10.1993 10.3409 10.2825 10.2014 10.3441 10.052C10.3769 9.98367 10.3923 9.90823 10.3888 9.83248C10.3853 9.75674 10.3631 9.68304 10.3241 9.61801C10.2611 9.49301 9.76507 8.27401 9.56207 7.77801C9.35907 7.28201 9.15607 7.35201 9.00007 7.34401C8.84407 7.33601 8.69007 7.33601 8.52707 7.33601C8.40178 7.33967 8.27858 7.36898 8.16506 7.42213C8.05154 7.47527 7.95012 7.55113 7.86707 7.64501C7.58701 7.9105 7.36529 8.23139 7.21602 8.58725C7.06675 8.94312 6.99321 9.32616 7.00007 9.71201C7.08065 10.6462 7.432 11.5365 8.01107 12.274C9.07339 13.8657 10.531 15.1541 12.2411 16.013C12.8311 16.267 13.2921 16.419 13.6511 16.537C14.1561 16.6901 14.6896 16.7244 15.2101 16.637C15.5549 16.567 15.8814 16.4264 16.1692 16.224C16.4569 16.0216 16.6997 15.7618 16.8821 15.461C17.0445 15.0917 17.0949 14.6827 17.0271 14.285C16.9691 14.174 16.8051 14.114 16.5551 13.985H16.5571Z" fill="black"/>
</svg>
