<svg width="24" height="24" viewBox="0 0 24 24" fill="none" xmlns="http://www.w3.org/2000/svg">
<path d="M22.062 6.92699C21.9402 6.49091 21.708 6.09363 21.3878 5.77357C21.0675 5.45351 20.6701 5.2215 20.234 5.09999C18.597 4.66099 12.01 4.66099 12.01 4.66099C12.01 4.66099 5.43896 4.65199 3.78496 5.09999C3.34881 5.2215 2.9514 5.45351 2.63116 5.77357C2.31093 6.09363 2.0787 6.49091 1.95696 6.92699C1.64643 8.60303 1.49343 10.3044 1.49996 12.009C1.49414 13.7068 1.6468 15.4015 1.95596 17.071C2.07749 17.5076 2.30973 17.9053 2.63017 18.2258C2.95061 18.5462 3.34839 18.7785 3.78496 18.9C5.41996 19.34 12.01 19.34 12.01 19.34C12.01 19.34 18.58 19.34 20.234 18.9C20.6701 18.7785 21.0675 18.5465 21.3878 18.2264C21.708 17.9064 21.9402 17.5091 22.062 17.073C22.3646 15.4029 22.5113 13.7083 22.5 12.011C22.5124 10.3064 22.3658 8.60435 22.062 6.92699ZM9.90696 15.152V8.85199L15.39 12.005L9.90696 15.152Z" fill="black"/>
</svg>
